M48
; DRILL file {KiCad (6.0.1)} date Sat Feb  4 15:12:08 2023
; FORMAT={-:-/ absolute / metric / decimal}
; #@! TF.CreationDate,2023-02-04T15:12:08+01:00
; #@! TF.GenerationSoftware,Kicad,Pcbnew,(6.0.1)
; #@! TF.FileFunction,MixedPlating,1,2
FMAT,2
METRIC
; #@! TA.AperFunction,Plated,PTH,ComponentDrill
T1C0.800
; #@! TA.AperFunction,Plated,PTH,ComponentDrill
T2C1.000
; #@! TA.AperFunction,NonPlated,NPTH,ComponentDrill
T3C1.524
%
G90
G05
T1
X133.147Y-59.741
X133.147Y-62.281
X133.147Y-85.141
X133.147Y-87.681
X135.687Y-59.741
X135.687Y-62.281
X135.687Y-85.141
X135.687Y-87.681
X138.227Y-59.741
X138.227Y-62.281
X138.227Y-85.141
X138.227Y-87.681
X140.767Y-59.741
X140.767Y-62.281
X140.767Y-85.141
X140.767Y-87.681
X143.307Y-59.741
X143.307Y-62.281
X143.307Y-85.141
X143.307Y-87.681
X145.847Y-59.741
X145.847Y-62.281
X145.847Y-85.141
X145.847Y-87.681
X148.387Y-59.741
X148.387Y-62.281
X148.387Y-85.141
X148.387Y-87.681
X150.927Y-59.741
X150.927Y-62.281
X150.927Y-85.141
X150.927Y-87.681
X153.467Y-59.741
X153.467Y-62.281
X153.467Y-85.141
X153.467Y-87.681
X156.007Y-59.741
X156.007Y-62.281
X156.007Y-85.141
X156.007Y-87.681
X179.133Y-67.221
X179.133Y-69.761
X179.133Y-72.301
X179.133Y-74.841
X179.133Y-77.381
X179.133Y-79.921
X179.133Y-82.461
X179.133Y-85.001
X191.833Y-67.221
X191.833Y-69.761
X191.833Y-72.301
X191.833Y-74.841
X191.833Y-77.381
X191.833Y-79.921
X191.833Y-82.461
X191.833Y-85.001
T2
X123.247Y-70.191
X123.247Y-72.731
X123.247Y-75.271
X123.408Y-88.254
X125.204Y-90.05
X127.0Y-91.846
X128.796Y-93.642
X130.592Y-95.439
X132.388Y-97.235
X137.566Y-56.039
X140.106Y-56.039
X142.646Y-56.039
X145.186Y-56.039
X147.726Y-56.039
X150.266Y-56.039
X155.332Y-97.205
X157.128Y-95.409
X158.924Y-93.613
X160.72Y-91.817
X162.516Y-90.021
X164.312Y-88.225
X179.283Y-62.636
X181.823Y-62.636
X184.363Y-62.636
X186.903Y-62.636
X189.443Y-62.636
X191.983Y-62.636
T3
X182.307Y-88.522
X188.911Y-88.522
X189.038Y-68.456
T0
M30
