%TF.GenerationSoftware,KiCad,Pcbnew,(6.0.1)*%
%TF.CreationDate,2023-02-04T15:12:00+01:00*%
%TF.ProjectId,PCB_Top_Rev4-PcbDoc,5043425f-546f-4705-9f52-6576342d5063,rev?*%
%TF.SameCoordinates,Original*%
%TF.FileFunction,Copper,L2,Bot*%
%TF.FilePolarity,Positive*%
%FSLAX46Y46*%
G04 Gerber Fmt 4.6, Leading zero omitted, Abs format (unit mm)*
G04 Created by KiCad (PCBNEW (6.0.1)) date 2023-02-04 15:12:00*
%MOMM*%
%LPD*%
G01*
G04 APERTURE LIST*
G04 Aperture macros list*
%AMHorizOval*
0 Thick line with rounded ends*
0 $1 width*
0 $2 $3 position (X,Y) of the first rounded end (center of the circle)*
0 $4 $5 position (X,Y) of the second rounded end (center of the circle)*
0 Add line between two ends*
20,1,$1,$2,$3,$4,$5,0*
0 Add two circle primitives to create the rounded ends*
1,1,$1,$2,$3*
1,1,$1,$4,$5*%
%AMRotRect*
0 Rectangle, with rotation*
0 The origin of the aperture is its center*
0 $1 length*
0 $2 width*
0 $3 Rotation angle, in degrees counterclockwise*
0 Add horizontal line*
21,1,$1,$2,0,0,$3*%
G04 Aperture macros list end*
%TA.AperFunction,Profile*%
%ADD10C,0.100000*%
%TD*%
%TA.AperFunction,ComponentPad*%
%ADD11R,1.700000X1.700000*%
%TD*%
%TA.AperFunction,ComponentPad*%
%ADD12O,1.700000X1.700000*%
%TD*%
%TA.AperFunction,ComponentPad*%
%ADD13O,1.600000X1.600000*%
%TD*%
%TA.AperFunction,ComponentPad*%
%ADD14R,1.600000X1.600000*%
%TD*%
%TA.AperFunction,ComponentPad*%
%ADD15RotRect,1.700000X1.700000X225.000000*%
%TD*%
%TA.AperFunction,ComponentPad*%
%ADD16HorizOval,1.700000X0.000000X0.000000X0.000000X0.000000X0*%
%TD*%
%TA.AperFunction,ComponentPad*%
%ADD17RotRect,1.700000X1.700000X315.000000*%
%TD*%
%TA.AperFunction,ComponentPad*%
%ADD18HorizOval,1.700000X0.000000X0.000000X0.000000X0.000000X0*%
%TD*%
%TA.AperFunction,ComponentPad*%
%ADD19C,1.400000*%
%TD*%
%TA.AperFunction,Conductor*%
%ADD20C,0.500000*%
%TD*%
%TA.AperFunction,Conductor*%
%ADD21C,0.254000*%
%TD*%
G04 APERTURE END LIST*
D10*
X169773600Y-58572400D02*
X170332400Y-58572400D01*
X169773600Y-81483200D02*
X169773600Y-58572400D01*
X177800000Y-89509600D02*
X169773600Y-81483200D01*
X193395600Y-89509600D02*
X177800000Y-89509600D01*
X193395600Y-58572400D02*
X193395600Y-89509600D01*
X170332400Y-58572400D02*
X193395600Y-58572400D01*
%TO.C,Ref\u002A\u002A*%
X118831617Y-60473457D02*
X118828000Y-93299227D01*
X127416920Y-101880927D02*
X160242700Y-101884527D01*
X160239100Y-55580407D02*
X160239100Y-51888144D01*
X165128500Y-60469817D02*
X160239100Y-55580407D01*
X168824400Y-93295627D02*
X168828000Y-60469817D01*
X160242700Y-98185027D02*
X165132100Y-93295627D01*
X122523880Y-60473457D02*
X118831617Y-60473457D01*
X160242700Y-101884527D02*
X160242700Y-98185027D01*
X122527490Y-93299227D02*
X127416920Y-98188627D01*
X165132100Y-93295627D02*
X168824400Y-93295627D01*
X127413300Y-55584027D02*
X122523880Y-60473457D01*
X127413300Y-51884527D02*
X127413300Y-55584027D01*
X118828000Y-93299227D02*
X122527490Y-93299227D01*
X127413300Y-51884527D02*
X127413300Y-51884527D01*
X127416920Y-98188627D02*
X127416920Y-101880927D01*
X160239100Y-51888144D02*
X127413300Y-51884527D01*
X168828000Y-60469817D02*
X165128500Y-60469817D01*
%TD*%
D11*
%TO.P,J1,1,Pin_1*%
%TO.N,Net-(A1-Pad8)*%
X179283315Y-62635915D03*
D12*
%TO.P,J1,2,Pin_2*%
%TO.N,GND2*%
X181823315Y-62635915D03*
%TO.P,J1,3,Pin_3*%
%TO.N,Net-(A1-Pad10)*%
X184363315Y-62635915D03*
%TO.P,J1,4,Pin_4*%
%TO.N,Net-(A1-Pad9)*%
X186903315Y-62635915D03*
%TO.P,J1,5,Pin_5*%
%TO.N,Net-(A1-Pad15)*%
X189443315Y-62635915D03*
%TO.P,J1,6,Pin_6*%
%TO.N,Net-(A1-Pad16)*%
X191983315Y-62635915D03*
%TD*%
D13*
%TO.P,A1,16,DIR*%
%TO.N,Net-(A1-Pad16)*%
X191833315Y-85000915D03*
%TO.P,A1,15,STEP*%
%TO.N,Net-(A1-Pad15)*%
X191833315Y-82460915D03*
%TO.P,A1,14,~{SLEEP}*%
%TO.N,unconnected-(A1-Pad14)*%
X191833315Y-79920915D03*
%TO.P,A1,13,~{RESET}*%
%TO.N,unconnected-(A1-Pad13)*%
X191833315Y-77380915D03*
%TO.P,A1,12,MS3*%
%TO.N,Net-(A1-Pad10)*%
X191833315Y-74840915D03*
%TO.P,A1,11,MS2*%
X191833315Y-72300915D03*
%TO.P,A1,10,MS1*%
X191833315Y-69760915D03*
%TO.P,A1,9,~{ENABLE}*%
%TO.N,Net-(A1-Pad9)*%
X191833315Y-67220915D03*
%TO.P,A1,8,VMOT*%
%TO.N,Net-(A1-Pad8)*%
X179133315Y-67220915D03*
%TO.P,A1,7,GND*%
%TO.N,GND2*%
X179133315Y-69760915D03*
%TO.P,A1,6,2B*%
%TO.N,Net-(A1-Pad6)*%
X179133315Y-72300915D03*
%TO.P,A1,5,2A*%
%TO.N,Net-(A1-Pad5)*%
X179133315Y-74840915D03*
%TO.P,A1,4,1A*%
%TO.N,Net-(A1-Pad4)*%
X179133315Y-77380915D03*
%TO.P,A1,3,1B*%
%TO.N,Net-(A1-Pad3)*%
X179133315Y-79920915D03*
%TO.P,A1,2,VDD*%
%TO.N,Net-(A1-Pad10)*%
X179133315Y-82460915D03*
D14*
%TO.P,A1,1,GND*%
%TO.N,GND2*%
X179133315Y-85000915D03*
%TD*%
D15*
%TO.P,J6,1,Pin_1*%
%TO.N,Net-(J4-Pad1)*%
X132388154Y-97234554D03*
D16*
%TO.P,J6,2,Pin_2*%
%TO.N,GND*%
X130592103Y-95438503D03*
%TO.P,J6,3,Pin_3*%
%TO.N,Net-(J4-Pad3)*%
X128796052Y-93642452D03*
%TO.P,J6,4,Pin_4*%
%TO.N,Net-(J4-Pad1)*%
X127000000Y-91846400D03*
%TO.P,J6,5,Pin_5*%
%TO.N,STP_3*%
X125203949Y-90050349D03*
%TO.P,J6,6,Pin_6*%
%TO.N,DIR_3*%
X123407898Y-88254298D03*
%TD*%
D17*
%TO.P,J5,1,Pin_1*%
%TO.N,Net-(J4-Pad1)*%
X164312136Y-88225080D03*
D18*
%TO.P,J5,2,Pin_2*%
%TO.N,GND*%
X162516085Y-90021131D03*
%TO.P,J5,3,Pin_3*%
%TO.N,Net-(J4-Pad3)*%
X160720034Y-91817182D03*
%TO.P,J5,4,Pin_4*%
%TO.N,Net-(J4-Pad1)*%
X158923982Y-93613234D03*
%TO.P,J5,5,Pin_5*%
%TO.N,STP_2*%
X157127931Y-95409285D03*
%TO.P,J5,6,Pin_6*%
%TO.N,DIR_2*%
X155331880Y-97205336D03*
%TD*%
D11*
%TO.P,J3,1,Pin_1*%
%TO.N,Net-(J4-Pad1)*%
X137566400Y-56038600D03*
D12*
%TO.P,J3,2,Pin_2*%
%TO.N,GND*%
X140106400Y-56038600D03*
%TO.P,J3,3,Pin_3*%
%TO.N,Net-(J4-Pad3)*%
X142646400Y-56038600D03*
%TO.P,J3,4,Pin_4*%
%TO.N,Net-(J4-Pad1)*%
X145186400Y-56038600D03*
%TO.P,J3,5,Pin_5*%
%TO.N,STP_1*%
X147726400Y-56038600D03*
%TO.P,J3,6,Pin_6*%
%TO.N,DIR_1*%
X150266400Y-56038600D03*
%TD*%
D19*
%TO.P,U1,40,CLK*%
%TO.N,unconnected-(U1-Pad40)*%
X156006800Y-59740800D03*
%TO.P,U1,39,SD0*%
%TO.N,unconnected-(U1-Pad39)*%
X156006800Y-62280800D03*
%TO.P,U1,38,SD1*%
%TO.N,unconnected-(U1-Pad38)*%
X153466800Y-59740800D03*
%TO.P,U1,37,TD0*%
%TO.N,unconnected-(U1-Pad37)*%
X153466800Y-62280800D03*
%TO.P,U1,36,IO_02*%
%TO.N,DIR_1*%
X150926800Y-59740800D03*
%TO.P,U1,35,VCC_(USB)*%
%TO.N,Net-(J4-Pad3)*%
X150926800Y-62280800D03*
%TO.P,U1,34,IO_00*%
%TO.N,STP_1*%
X148386800Y-59740800D03*
%TO.P,U1,33,GND*%
%TO.N,GND*%
X148386800Y-62280800D03*
%TO.P,U1,32,IO_04*%
%TO.N,unconnected-(U1-Pad32)*%
X145846800Y-59740800D03*
%TO.P,U1,31,IO_16/D4*%
%TO.N,unconnected-(U1-Pad31)*%
X145846800Y-62280800D03*
%TO.P,U1,30,IO_12/TDI*%
%TO.N,unconnected-(U1-Pad30)*%
X143306800Y-59740800D03*
%TO.P,U1,29,IO_17/D3*%
%TO.N,DIR_2*%
X143306800Y-62280800D03*
%TO.P,U1,28,IO_32*%
%TO.N,unconnected-(U1-Pad28)*%
X140766800Y-59740800D03*
%TO.P,U1,27,IO_21/D2/SDA*%
%TO.N,unconnected-(U1-Pad27)*%
X140766800Y-62280800D03*
%TO.P,U1,26,IO_25*%
%TO.N,unconnected-(U1-Pad26)*%
X138226800Y-59740800D03*
%TO.P,U1,25,IO_22/D1/SCL*%
%TO.N,unconnected-(U1-Pad25)*%
X138226800Y-62280800D03*
%TO.P,U1,24,IO_27*%
%TO.N,unconnected-(U1-Pad24)*%
X135686800Y-59740800D03*
%TO.P,U1,23,RXD*%
%TO.N,unconnected-(U1-Pad23)*%
X135686800Y-62280800D03*
%TO.P,U1,22,GND*%
%TO.N,GND*%
X133146800Y-59740800D03*
%TO.P,U1,21,TXD*%
%TO.N,unconnected-(U1-Pad21)*%
X133146800Y-62280800D03*
%TO.P,U1,20,IO_10/SD3*%
%TO.N,unconnected-(U1-Pad20)*%
X156006800Y-85140800D03*
%TO.P,U1,19,CMD*%
%TO.N,unconnected-(U1-Pad19)*%
X156006800Y-87680800D03*
%TO.P,U1,18,IO_13/TCK*%
%TO.N,STP_2*%
X153466800Y-85140800D03*
%TO.P,U1,17,IO_09/SD2*%
%TO.N,unconnected-(U1-Pad17)*%
X153466800Y-87680800D03*
%TO.P,U1,16,3V3*%
%TO.N,unconnected-(U1-Pad16)*%
X150926800Y-85140800D03*
%TO.P,U1,15,NC*%
%TO.N,unconnected-(U1-Pad15)*%
X150926800Y-87680800D03*
%TO.P,U1,14,IO_05/D8*%
%TO.N,unconnected-(U1-Pad14)*%
X148386800Y-85140800D03*
%TO.P,U1,13,IO_14/TMS*%
%TO.N,STP_3*%
X148386800Y-87680800D03*
%TO.P,U1,12,IO_23/D7*%
%TO.N,unconnected-(U1-Pad12)*%
X145846800Y-85140800D03*
%TO.P,U1,11,IO_34*%
%TO.N,unconnected-(U1-Pad11)*%
X145846800Y-87680800D03*
%TO.P,U1,10,IO_19/D6*%
%TO.N,EN*%
X143306800Y-85140800D03*
%TO.P,U1,9,IO_33*%
%TO.N,unconnected-(U1-Pad9)*%
X143306800Y-87680800D03*
%TO.P,U1,8,IO_18/D5*%
%TO.N,DIR_3*%
X140766800Y-85140800D03*
%TO.P,U1,7,IO_35*%
%TO.N,unconnected-(U1-Pad7)*%
X140766800Y-87680800D03*
%TO.P,U1,6,IO_26/D0*%
%TO.N,unconnected-(U1-Pad6)*%
X138226800Y-85140800D03*
%TO.P,U1,5,IO_39/SVN*%
%TO.N,unconnected-(U1-Pad5)*%
X138226800Y-87680800D03*
%TO.P,U1,4,IO_36/SVP/A0*%
%TO.N,unconnected-(U1-Pad4)*%
X135686800Y-85140800D03*
%TO.P,U1,3,NC*%
%TO.N,unconnected-(U1-Pad3)*%
X135686800Y-87680800D03*
%TO.P,U1,2,RST*%
%TO.N,unconnected-(U1-Pad2)*%
X133146800Y-85140800D03*
%TO.P,U1,1,GND*%
%TO.N,GND*%
X133146800Y-87680800D03*
%TD*%
D12*
%TO.P,J4,3,Pin_3*%
%TO.N,Net-(J4-Pad3)*%
X123247000Y-70190600D03*
%TO.P,J4,2,Pin_2*%
%TO.N,GND*%
X123247000Y-72730600D03*
D11*
%TO.P,J4,1,Pin_1*%
%TO.N,Net-(J4-Pad1)*%
X123247000Y-75270600D03*
%TD*%
D20*
%TO.N,Net-(J4-Pad1)*%
X158923982Y-95527389D02*
X158923982Y-93613234D01*
X155695590Y-98755781D02*
X158923982Y-95527389D01*
X138277019Y-98755781D02*
X155695590Y-98755781D01*
X131367638Y-91846400D02*
X138277019Y-98755781D01*
X127000000Y-91846400D02*
X131367638Y-91846400D01*
%TO.N,Net-(J4-Pad3)*%
X156059924Y-99517200D02*
X161798000Y-93779124D01*
X137972800Y-99517200D02*
X156059924Y-99517200D01*
X132098052Y-93642452D02*
X137972800Y-99517200D01*
X128796052Y-93642452D02*
X132098052Y-93642452D01*
X161798000Y-93779124D02*
X161798000Y-92895148D01*
X161798000Y-92895148D02*
X160720034Y-91817182D01*
%TO.N,GND*%
X163779200Y-91284246D02*
X162516085Y-90021131D01*
X163779200Y-92863562D02*
X163779200Y-91284246D01*
X156312762Y-100330000D02*
X163779200Y-92863562D01*
X137397768Y-100330000D02*
X156312762Y-100330000D01*
X132506271Y-95438503D02*
X137397768Y-100330000D01*
X130592103Y-95438503D02*
X132506271Y-95438503D01*
%TO.N,Net-(J4-Pad1)*%
X136347200Y-101193600D02*
X132388154Y-97234554D01*
X156514800Y-101193600D02*
X136347200Y-101193600D01*
X165608000Y-92100400D02*
X156514800Y-101193600D01*
X165608000Y-89520944D02*
X165608000Y-92100400D01*
X164312136Y-88225080D02*
X165608000Y-89520944D01*
D21*
%TO.N,GND*%
X143876911Y-57059711D02*
X143876911Y-54621311D01*
X143876911Y-54621311D02*
X143764000Y-54508400D01*
X145051511Y-57269111D02*
X144086311Y-57269111D01*
X146927311Y-59144911D02*
X145051511Y-57269111D01*
X146927311Y-60821311D02*
X146927311Y-59144911D01*
X148386800Y-62280800D02*
X146927311Y-60821311D01*
X144086311Y-57269111D02*
X143876911Y-57059711D01*
D20*
X143399920Y-54144320D02*
X143764000Y-54508400D01*
X142000680Y-54144320D02*
X142654880Y-54144320D01*
X142654880Y-54144320D02*
X143399920Y-54144320D01*
X140106400Y-56038600D02*
X142000680Y-54144320D01*
%TO.N,Net-(J4-Pad1)*%
X140214200Y-53390800D02*
X137566400Y-56038600D01*
X145186400Y-53797200D02*
X144780000Y-53390800D01*
X144780000Y-53390800D02*
X140214200Y-53390800D01*
X145186400Y-56038600D02*
X145186400Y-53797200D01*
%TO.N,Net-(J4-Pad3)*%
X148894800Y-64312800D02*
X150926800Y-62280800D01*
X144621400Y-62757423D02*
X146176777Y-64312800D01*
X144621400Y-61868200D02*
X144621400Y-62757423D01*
X146176777Y-64312800D02*
X148894800Y-64312800D01*
X142808288Y-61077289D02*
X143830489Y-61077289D01*
X142103289Y-56581711D02*
X142103289Y-60372290D01*
X143830489Y-61077289D02*
X144621400Y-61868200D01*
X142646400Y-56038600D02*
X142103289Y-56581711D01*
X142103289Y-60372290D02*
X142808288Y-61077289D01*
%TO.N,STP_1*%
X147726400Y-59080400D02*
X148386800Y-59740800D01*
X147726400Y-56038600D02*
X147726400Y-59080400D01*
%TO.N,DIR_1*%
X150266400Y-59080400D02*
X150926800Y-59740800D01*
X150266400Y-56038600D02*
X150266400Y-59080400D01*
X150926800Y-58978800D02*
X150926800Y-59740800D01*
%TO.N,STP_2*%
X157127931Y-94035493D02*
X157127931Y-95409285D01*
X154803289Y-86477289D02*
X154803289Y-91710851D01*
X153466800Y-85140800D02*
X154803289Y-86477289D01*
X154803289Y-91710851D02*
X157127931Y-94035493D01*
%TO.N,DIR_2*%
X143306800Y-64719200D02*
X143306800Y-62280800D01*
X152263289Y-90236489D02*
X152263289Y-73675689D01*
X155331880Y-93305080D02*
X152263289Y-90236489D01*
X155331880Y-97205336D02*
X155331880Y-93305080D01*
X152263289Y-73675689D02*
X143306800Y-64719200D01*
%TO.N,STP_3*%
X126882711Y-86477289D02*
X125203949Y-88156051D01*
X147132489Y-86477289D02*
X126882711Y-86477289D01*
X125203949Y-88156051D02*
X125203949Y-90050349D01*
X147167600Y-86512400D02*
X147132489Y-86477289D01*
X148386800Y-87680800D02*
X147218400Y-86512400D01*
X147218400Y-86512400D02*
X147167600Y-86512400D01*
%TO.N,DIR_3*%
X123407898Y-85104698D02*
X123407898Y-88254298D01*
X123037600Y-84734400D02*
X123407898Y-85104698D01*
X125730000Y-82042000D02*
X123037600Y-84734400D01*
X140258800Y-82042000D02*
X125730000Y-82042000D01*
X140766800Y-85140800D02*
X140766800Y-82550000D01*
X140766800Y-82550000D02*
X140258800Y-82042000D01*
%TO.N,Net-(J4-Pad1)*%
X158923982Y-91699079D02*
X158923982Y-93613234D01*
X164312136Y-88225080D02*
X162397981Y-88225080D01*
X162397981Y-88225080D02*
X158923982Y-91699079D01*
%TO.N,Net-(J4-Pad3)*%
X126764052Y-93642452D02*
X128796052Y-93642452D01*
X122054387Y-88932787D02*
X126764052Y-93642452D01*
X122054387Y-82161613D02*
X122054387Y-88932787D01*
X126085600Y-73029200D02*
X126085600Y-78130400D01*
X126085600Y-78130400D02*
X122054387Y-82161613D01*
X123247000Y-70190600D02*
X126085600Y-73029200D01*
%TO.N,GND*%
X129663006Y-96367600D02*
X130592103Y-95438503D01*
X120844720Y-89196320D02*
X128016000Y-96367600D01*
X120844720Y-81186880D02*
X120844720Y-89196320D01*
X124917200Y-74400800D02*
X124917200Y-77114400D01*
X123247000Y-72730600D02*
X124917200Y-74400800D01*
X124917200Y-77114400D02*
X120844720Y-81186880D01*
X128016000Y-96367600D02*
X129663006Y-96367600D01*
%TO.N,Net-(J4-Pad1)*%
X121020600Y-75270600D02*
X123247000Y-75270600D01*
X120091200Y-76200000D02*
X121020600Y-75270600D01*
X129133600Y-98856800D02*
X120091200Y-89814400D01*
X130765908Y-98856800D02*
X129133600Y-98856800D01*
X132388154Y-97234554D02*
X130765908Y-98856800D01*
X120091200Y-89814400D02*
X120091200Y-76200000D01*
%TO.N,Net-(J4-Pad3)*%
X123247000Y-65944600D02*
X123247000Y-70190600D01*
X123240800Y-65938400D02*
X123247000Y-65944600D01*
X130641911Y-58537289D02*
X123240800Y-65938400D01*
X140147711Y-58537289D02*
X130641911Y-58537289D01*
X142646400Y-56038600D02*
X140147711Y-58537289D01*
%TO.N,GND*%
X121513600Y-70997200D02*
X123247000Y-72730600D01*
X129438400Y-57607200D02*
X121513600Y-65532000D01*
X140004800Y-57607200D02*
X129438400Y-57607200D01*
X140106400Y-57505600D02*
X140004800Y-57607200D01*
X121513600Y-65532000D02*
X121513600Y-70997200D01*
X140106400Y-56038600D02*
X140106400Y-57505600D01*
%TO.N,Net-(J4-Pad1)*%
X129127400Y-56038600D02*
X137566400Y-56038600D01*
X120142000Y-73812400D02*
X120142000Y-65024000D01*
X120142000Y-65024000D02*
X129127400Y-56038600D01*
X121600200Y-75270600D02*
X120142000Y-73812400D01*
X123247000Y-75270600D02*
X121600200Y-75270600D01*
%TD*%
%TA.AperFunction,Conductor*%
%TO.N,GND*%
G36*
X159809721Y-52090002D02*
G01*
X159856214Y-52143658D01*
X159867600Y-52196000D01*
X159867600Y-55880000D01*
X165150800Y-61163200D01*
X168326800Y-61163200D01*
X168394921Y-61183202D01*
X168441414Y-61236858D01*
X168452800Y-61289200D01*
X168452800Y-92888800D01*
X168432798Y-92956921D01*
X168379142Y-93003414D01*
X168326800Y-93014800D01*
X165711261Y-93014800D01*
X165643140Y-92994798D01*
X165596647Y-92941142D01*
X165586543Y-92870868D01*
X165616037Y-92806288D01*
X165622166Y-92799705D01*
X165914794Y-92507077D01*
X165924234Y-92499535D01*
X165923911Y-92499155D01*
X165930747Y-92493337D01*
X165938339Y-92488547D01*
X165973672Y-92448540D01*
X165979017Y-92442854D01*
X165990351Y-92431520D01*
X165993038Y-92427934D01*
X165993043Y-92427929D01*
X165996557Y-92423241D01*
X166002938Y-92415403D01*
X166028058Y-92386959D01*
X166034001Y-92380230D01*
X166037816Y-92372105D01*
X166039669Y-92369284D01*
X166048077Y-92355288D01*
X166049686Y-92352350D01*
X166055071Y-92345164D01*
X166071544Y-92301222D01*
X166075471Y-92291901D01*
X166091602Y-92257544D01*
X166091602Y-92257543D01*
X166095417Y-92249418D01*
X166096798Y-92240547D01*
X166097783Y-92237325D01*
X166101923Y-92221542D01*
X166102645Y-92218258D01*
X166105798Y-92209848D01*
X166109276Y-92163043D01*
X166110430Y-92152995D01*
X166111751Y-92144514D01*
X166111751Y-92144513D01*
X166112500Y-92139703D01*
X166112500Y-92124334D01*
X166112847Y-92114996D01*
X166115843Y-92074684D01*
X166115843Y-92074683D01*
X166116508Y-92065733D01*
X166114635Y-92056958D01*
X166114043Y-92048274D01*
X166112500Y-92033658D01*
X166112500Y-89591568D01*
X166113841Y-89579563D01*
X166113345Y-89579523D01*
X166114065Y-89570576D01*
X166116046Y-89561820D01*
X166112742Y-89508562D01*
X166112500Y-89500760D01*
X166112500Y-89484718D01*
X166111683Y-89479010D01*
X166111035Y-89474491D01*
X166110003Y-89464421D01*
X166107654Y-89426544D01*
X166107654Y-89426542D01*
X166107098Y-89417585D01*
X166104051Y-89409145D01*
X166103370Y-89405855D01*
X166099416Y-89389998D01*
X166098473Y-89386773D01*
X166097201Y-89377892D01*
X166089063Y-89359992D01*
X166077773Y-89335162D01*
X166073969Y-89325819D01*
X166058027Y-89281659D01*
X166052732Y-89274411D01*
X166051147Y-89271430D01*
X166042907Y-89257331D01*
X166041103Y-89254511D01*
X166037388Y-89246339D01*
X166006751Y-89210782D01*
X166000469Y-89202870D01*
X165995404Y-89195937D01*
X165995393Y-89195924D01*
X165992526Y-89192000D01*
X165981672Y-89181146D01*
X165975314Y-89174299D01*
X165948916Y-89143662D01*
X165948913Y-89143660D01*
X165943056Y-89136862D01*
X165935523Y-89131980D01*
X165928955Y-89126250D01*
X165917542Y-89117016D01*
X165538965Y-88738439D01*
X165504939Y-88676127D01*
X165510004Y-88605312D01*
X165538965Y-88560249D01*
X165711900Y-88387314D01*
X165753951Y-88324381D01*
X165773703Y-88225080D01*
X165753951Y-88125779D01*
X165717288Y-88070908D01*
X165715339Y-88067991D01*
X165715338Y-88067989D01*
X165711901Y-88062846D01*
X164474370Y-86825316D01*
X164411437Y-86783265D01*
X164312136Y-86763513D01*
X164299965Y-86765934D01*
X164225005Y-86780844D01*
X164225004Y-86780845D01*
X164212835Y-86783265D01*
X164192986Y-86796527D01*
X164155048Y-86821876D01*
X164155047Y-86821877D01*
X164149902Y-86825315D01*
X163703847Y-87271371D01*
X163291543Y-87683675D01*
X163229230Y-87717700D01*
X163202447Y-87720580D01*
X162468611Y-87720580D01*
X162456603Y-87719238D01*
X162456563Y-87719734D01*
X162447612Y-87719014D01*
X162438858Y-87717033D01*
X162408411Y-87718922D01*
X162385588Y-87720338D01*
X162377786Y-87720580D01*
X162361755Y-87720580D01*
X162351522Y-87722045D01*
X162341470Y-87723075D01*
X162312066Y-87724900D01*
X162303582Y-87725426D01*
X162303581Y-87725426D01*
X162294623Y-87725982D01*
X162286180Y-87729030D01*
X162282901Y-87729709D01*
X162267036Y-87733664D01*
X162263812Y-87734607D01*
X162254929Y-87735879D01*
X162246760Y-87739593D01*
X162246754Y-87739595D01*
X162212202Y-87755305D01*
X162202834Y-87759119D01*
X162158697Y-87775052D01*
X162151447Y-87780349D01*
X162148480Y-87781926D01*
X162134367Y-87790173D01*
X162131544Y-87791978D01*
X162123376Y-87795692D01*
X162116579Y-87801549D01*
X162116577Y-87801550D01*
X162087828Y-87826323D01*
X162079917Y-87832605D01*
X162069037Y-87840553D01*
X162058175Y-87851415D01*
X162051329Y-87857773D01*
X162013899Y-87890024D01*
X162009015Y-87897559D01*
X162003282Y-87904131D01*
X161994055Y-87915535D01*
X158617188Y-91292402D01*
X158607748Y-91299944D01*
X158608071Y-91300324D01*
X158601235Y-91306142D01*
X158593643Y-91310932D01*
X158587701Y-91317660D01*
X158558311Y-91350938D01*
X158552965Y-91356625D01*
X158541631Y-91367959D01*
X158538946Y-91371542D01*
X158538944Y-91371544D01*
X158535429Y-91376234D01*
X158529044Y-91384077D01*
X158497981Y-91419249D01*
X158494168Y-91427371D01*
X158492328Y-91430172D01*
X158483919Y-91444167D01*
X158482297Y-91447130D01*
X158476912Y-91454315D01*
X158473759Y-91462725D01*
X158473758Y-91462727D01*
X158460436Y-91498261D01*
X158456512Y-91507574D01*
X158436565Y-91550061D01*
X158435183Y-91558935D01*
X158434197Y-91562162D01*
X158430057Y-91577945D01*
X158429336Y-91581223D01*
X158426184Y-91589631D01*
X158425519Y-91598582D01*
X158422706Y-91636436D01*
X158421552Y-91646483D01*
X158419482Y-91659776D01*
X158419482Y-91675141D01*
X158419136Y-91684478D01*
X158415475Y-91733746D01*
X158417348Y-91742521D01*
X158417941Y-91751217D01*
X158419482Y-91765817D01*
X158419482Y-92556448D01*
X158399480Y-92624569D01*
X158357905Y-92664733D01*
X158276960Y-92712890D01*
X158276957Y-92712892D01*
X158271992Y-92715846D01*
X158267652Y-92719652D01*
X158267648Y-92719655D01*
X158175180Y-92800748D01*
X158119374Y-92849689D01*
X158115799Y-92854224D01*
X158115798Y-92854225D01*
X158099449Y-92874964D01*
X157993702Y-93009103D01*
X157991013Y-93014214D01*
X157991011Y-93014217D01*
X157960411Y-93072379D01*
X157899185Y-93188749D01*
X157838989Y-93382612D01*
X157815130Y-93584198D01*
X157815508Y-93589965D01*
X157826453Y-93756961D01*
X157810949Y-93826244D01*
X157760449Y-93876146D01*
X157690986Y-93890824D01*
X157624615Y-93865618D01*
X157585485Y-93812439D01*
X157585221Y-93812579D01*
X157584263Y-93810778D01*
X157582210Y-93807988D01*
X157577958Y-93796209D01*
X157572662Y-93788959D01*
X157571077Y-93785979D01*
X157562851Y-93771901D01*
X157561035Y-93769062D01*
X157557319Y-93760888D01*
X157526688Y-93725339D01*
X157520396Y-93717416D01*
X157512458Y-93706549D01*
X157501596Y-93695687D01*
X157495238Y-93688840D01*
X157468846Y-93658211D01*
X157462987Y-93651411D01*
X157455452Y-93646527D01*
X157448880Y-93640794D01*
X157437476Y-93631567D01*
X155344694Y-91538785D01*
X155310668Y-91476473D01*
X155307789Y-91449690D01*
X155307789Y-88598398D01*
X155327791Y-88530277D01*
X155381447Y-88483784D01*
X155451721Y-88473680D01*
X155495259Y-88488410D01*
X155504166Y-88493388D01*
X155622818Y-88559700D01*
X155800843Y-88617544D01*
X155986714Y-88639708D01*
X155992849Y-88639236D01*
X155992851Y-88639236D01*
X156167208Y-88625820D01*
X156167213Y-88625819D01*
X156173349Y-88625347D01*
X156179279Y-88623691D01*
X156179281Y-88623691D01*
X156292164Y-88592173D01*
X156353641Y-88575009D01*
X156383948Y-88559700D01*
X156455262Y-88523676D01*
X156520721Y-88490610D01*
X156542391Y-88473680D01*
X156663371Y-88379160D01*
X156663372Y-88379160D01*
X156668227Y-88375366D01*
X156790538Y-88233667D01*
X156882998Y-88070908D01*
X156942083Y-87893291D01*
X156965544Y-87707580D01*
X156965918Y-87680800D01*
X156947652Y-87494506D01*
X156893549Y-87315309D01*
X156888491Y-87305797D01*
X156808564Y-87155474D01*
X156808562Y-87155471D01*
X156805670Y-87150032D01*
X156801780Y-87145262D01*
X156801777Y-87145258D01*
X156691257Y-87009748D01*
X156691254Y-87009745D01*
X156687362Y-87004973D01*
X156659338Y-86981789D01*
X156547881Y-86889584D01*
X156543132Y-86885655D01*
X156378473Y-86796624D01*
X156227204Y-86749799D01*
X156205544Y-86743094D01*
X156205541Y-86743093D01*
X156199657Y-86741272D01*
X156193532Y-86740628D01*
X156193531Y-86740628D01*
X156019624Y-86722349D01*
X156019623Y-86722349D01*
X156013496Y-86721705D01*
X155936943Y-86728672D01*
X155833218Y-86738112D01*
X155833215Y-86738113D01*
X155827079Y-86738671D01*
X155821173Y-86740409D01*
X155821169Y-86740410D01*
X155750969Y-86761071D01*
X155647508Y-86791521D01*
X155515455Y-86860557D01*
X155492164Y-86872733D01*
X155422529Y-86886567D01*
X155356468Y-86860557D01*
X155314956Y-86802961D01*
X155307789Y-86761071D01*
X155307789Y-86547914D01*
X155309130Y-86535909D01*
X155308634Y-86535869D01*
X155309354Y-86526922D01*
X155311335Y-86518166D01*
X155308031Y-86464908D01*
X155307789Y-86457106D01*
X155307789Y-86441063D01*
X155306323Y-86430825D01*
X155305293Y-86420770D01*
X155302943Y-86382890D01*
X155302943Y-86382888D01*
X155302387Y-86373931D01*
X155299340Y-86365490D01*
X155298661Y-86362212D01*
X155294705Y-86346344D01*
X155293762Y-86343120D01*
X155292490Y-86334237D01*
X155288776Y-86326068D01*
X155288774Y-86326062D01*
X155273064Y-86291510D01*
X155269250Y-86282141D01*
X155256366Y-86246452D01*
X155253317Y-86238005D01*
X155248020Y-86230755D01*
X155246443Y-86227788D01*
X155238196Y-86213675D01*
X155236391Y-86210852D01*
X155232677Y-86202684D01*
X155226617Y-86195650D01*
X155202046Y-86167136D01*
X155195764Y-86159225D01*
X155187816Y-86148345D01*
X155176954Y-86137483D01*
X155170596Y-86130636D01*
X155152799Y-86109982D01*
X155138345Y-86093207D01*
X155130810Y-86088323D01*
X155124238Y-86082590D01*
X155112834Y-86073363D01*
X154444685Y-85405214D01*
X154410659Y-85342902D01*
X154408774Y-85300327D01*
X154420788Y-85205227D01*
X154425544Y-85167580D01*
X154425918Y-85140800D01*
X154424605Y-85127409D01*
X155047775Y-85127409D01*
X155063439Y-85313939D01*
X155065138Y-85319864D01*
X155076729Y-85360285D01*
X155115035Y-85493875D01*
X155200597Y-85660362D01*
X155204420Y-85665186D01*
X155204423Y-85665190D01*
X155226994Y-85693667D01*
X155316868Y-85807059D01*
X155321562Y-85811054D01*
X155423480Y-85897793D01*
X155459418Y-85928379D01*
X155464796Y-85931385D01*
X155464798Y-85931386D01*
X155536123Y-85971248D01*
X155622818Y-86019700D01*
X155800843Y-86077544D01*
X155986714Y-86099708D01*
X155992849Y-86099236D01*
X155992851Y-86099236D01*
X156167208Y-86085820D01*
X156167213Y-86085819D01*
X156173349Y-86085347D01*
X156179279Y-86083691D01*
X156179281Y-86083691D01*
X156307467Y-86047901D01*
X156353641Y-86035009D01*
X156368980Y-86027261D01*
X156435440Y-85993689D01*
X156520721Y-85950610D01*
X156542391Y-85933680D01*
X156663371Y-85839160D01*
X156663372Y-85839160D01*
X156668227Y-85835366D01*
X156790538Y-85693667D01*
X156882998Y-85530908D01*
X156942083Y-85353291D01*
X156965544Y-85167580D01*
X156965918Y-85140800D01*
X156947652Y-84954506D01*
X156893549Y-84775309D01*
X156883466Y-84756346D01*
X156808564Y-84615474D01*
X156808562Y-84615471D01*
X156805670Y-84610032D01*
X156801780Y-84605262D01*
X156801777Y-84605258D01*
X156691257Y-84469748D01*
X156691254Y-84469745D01*
X156687362Y-84464973D01*
X156680556Y-84459342D01*
X156547881Y-84349584D01*
X156543132Y-84345655D01*
X156378473Y-84256624D01*
X156209895Y-84204441D01*
X156205544Y-84203094D01*
X156205541Y-84203093D01*
X156199657Y-84201272D01*
X156193532Y-84200628D01*
X156193531Y-84200628D01*
X156019624Y-84182349D01*
X156019623Y-84182349D01*
X156013496Y-84181705D01*
X155936943Y-84188672D01*
X155833218Y-84198112D01*
X155833215Y-84198113D01*
X155827079Y-84198671D01*
X155821173Y-84200409D01*
X155821169Y-84200410D01*
X155750969Y-84221071D01*
X155647508Y-84251521D01*
X155481622Y-84338244D01*
X155476822Y-84342104D01*
X155476821Y-84342104D01*
X155471270Y-84346567D01*
X155335740Y-84455536D01*
X155215419Y-84598930D01*
X155212455Y-84604322D01*
X155212452Y-84604326D01*
X155187530Y-84649660D01*
X155125241Y-84762963D01*
X155123380Y-84768830D01*
X155123379Y-84768832D01*
X155070503Y-84935518D01*
X155068641Y-84941388D01*
X155047775Y-85127409D01*
X154424605Y-85127409D01*
X154407652Y-84954506D01*
X154353549Y-84775309D01*
X154343466Y-84756346D01*
X154268564Y-84615474D01*
X154268562Y-84615471D01*
X154265670Y-84610032D01*
X154261780Y-84605262D01*
X154261777Y-84605258D01*
X154151257Y-84469748D01*
X154151254Y-84469745D01*
X154147362Y-84464973D01*
X154140556Y-84459342D01*
X154007881Y-84349584D01*
X154003132Y-84345655D01*
X153838473Y-84256624D01*
X153669895Y-84204441D01*
X153665544Y-84203094D01*
X153665541Y-84203093D01*
X153659657Y-84201272D01*
X153653532Y-84200628D01*
X153653531Y-84200628D01*
X153479624Y-84182349D01*
X153479623Y-84182349D01*
X153473496Y-84181705D01*
X153396943Y-84188672D01*
X153293218Y-84198112D01*
X153293215Y-84198113D01*
X153287079Y-84198671D01*
X153281173Y-84200409D01*
X153281169Y-84200410D01*
X153210969Y-84221071D01*
X153107508Y-84251521D01*
X152958597Y-84329370D01*
X152952164Y-84332733D01*
X152882529Y-84346567D01*
X152816468Y-84320557D01*
X152774956Y-84262961D01*
X152767789Y-84221071D01*
X152767789Y-73746313D01*
X152769130Y-73734308D01*
X152768634Y-73734268D01*
X152769354Y-73725321D01*
X152771335Y-73716565D01*
X152768031Y-73663307D01*
X152767789Y-73655505D01*
X152767789Y-73639463D01*
X152766324Y-73629232D01*
X152765292Y-73619166D01*
X152765184Y-73617412D01*
X152762387Y-73572330D01*
X152759340Y-73563890D01*
X152758659Y-73560600D01*
X152754707Y-73544751D01*
X152753762Y-73541521D01*
X152752490Y-73532637D01*
X152733063Y-73489907D01*
X152729253Y-73480549D01*
X152716364Y-73444847D01*
X152716363Y-73444846D01*
X152713316Y-73436405D01*
X152708020Y-73429156D01*
X152706435Y-73426175D01*
X152698209Y-73412097D01*
X152696393Y-73409258D01*
X152692677Y-73401084D01*
X152662046Y-73365535D01*
X152655754Y-73357612D01*
X152647816Y-73346745D01*
X152636954Y-73335883D01*
X152630596Y-73329036D01*
X152604204Y-73298407D01*
X152598345Y-73291607D01*
X152590810Y-73286723D01*
X152584238Y-73280990D01*
X152572834Y-73271763D01*
X143848205Y-64547134D01*
X143814179Y-64484822D01*
X143811300Y-64458039D01*
X143811300Y-63159424D01*
X143831302Y-63091303D01*
X143859723Y-63060138D01*
X143968227Y-62975366D01*
X143972253Y-62970702D01*
X143976007Y-62967127D01*
X144039132Y-62934635D01*
X144109802Y-62941429D01*
X144165581Y-62985352D01*
X144169650Y-62991938D01*
X144171372Y-62996707D01*
X144176669Y-63003957D01*
X144178241Y-63006914D01*
X144186493Y-63021037D01*
X144188298Y-63023860D01*
X144192012Y-63032028D01*
X144197869Y-63038825D01*
X144197870Y-63038827D01*
X144222643Y-63067576D01*
X144228925Y-63075487D01*
X144236873Y-63086367D01*
X144247735Y-63097229D01*
X144254093Y-63104075D01*
X144286344Y-63141505D01*
X144293879Y-63146389D01*
X144300451Y-63152122D01*
X144311855Y-63161349D01*
X145770100Y-64619594D01*
X145777642Y-64629034D01*
X145778022Y-64628711D01*
X145783840Y-64635547D01*
X145788630Y-64643139D01*
X145795358Y-64649081D01*
X145828636Y-64678471D01*
X145834323Y-64683817D01*
X145845657Y-64695151D01*
X145849240Y-64697836D01*
X145849242Y-64697838D01*
X145853932Y-64701353D01*
X145861775Y-64707738D01*
X145896947Y-64738801D01*
X145905069Y-64742614D01*
X145907870Y-64744454D01*
X145921865Y-64752863D01*
X145924828Y-64754485D01*
X145932013Y-64759870D01*
X145940423Y-64763023D01*
X145940425Y-64763024D01*
X145975959Y-64776346D01*
X145985272Y-64780270D01*
X146027759Y-64800217D01*
X146036633Y-64801599D01*
X146039860Y-64802585D01*
X146055623Y-64806720D01*
X146058917Y-64807444D01*
X146067329Y-64810598D01*
X146076287Y-64811264D01*
X146076288Y-64811264D01*
X146114127Y-64814076D01*
X146124151Y-64815226D01*
X146137474Y-64817300D01*
X146152839Y-64817300D01*
X146162176Y-64817646D01*
X146211443Y-64821307D01*
X146220218Y-64819434D01*
X146228914Y-64818841D01*
X146243514Y-64817300D01*
X148824176Y-64817300D01*
X148836181Y-64818641D01*
X148836221Y-64818145D01*
X148845168Y-64818865D01*
X148853924Y-64820846D01*
X148907182Y-64817542D01*
X148914984Y-64817300D01*
X148931026Y-64817300D01*
X148935457Y-64816665D01*
X148935462Y-64816665D01*
X148939487Y-64816088D01*
X148941257Y-64815835D01*
X148951314Y-64814804D01*
X148973776Y-64813411D01*
X148989200Y-64812454D01*
X148989202Y-64812454D01*
X148998159Y-64811898D01*
X149006599Y-64808851D01*
X149009889Y-64808170D01*
X149025738Y-64804218D01*
X149028968Y-64803273D01*
X149037852Y-64802001D01*
X149050169Y-64796401D01*
X149080563Y-64782582D01*
X149089928Y-64778770D01*
X149125637Y-64765878D01*
X149125640Y-64765876D01*
X149134084Y-64762828D01*
X149141333Y-64757532D01*
X149144290Y-64755960D01*
X149158414Y-64747707D01*
X149161237Y-64745902D01*
X149169405Y-64742188D01*
X149176202Y-64736331D01*
X149176204Y-64736330D01*
X149204953Y-64711557D01*
X149212864Y-64705275D01*
X149223744Y-64697327D01*
X149234606Y-64686465D01*
X149241453Y-64680107D01*
X149261709Y-64662653D01*
X149278882Y-64647856D01*
X149283766Y-64640321D01*
X149289499Y-64633749D01*
X149298726Y-64622345D01*
X150662109Y-63258962D01*
X150724421Y-63224936D01*
X150766121Y-63222943D01*
X150906714Y-63239708D01*
X150912849Y-63239236D01*
X150912851Y-63239236D01*
X151087208Y-63225820D01*
X151087213Y-63225819D01*
X151093349Y-63225347D01*
X151099279Y-63223691D01*
X151099281Y-63223691D01*
X151212164Y-63192173D01*
X151273641Y-63175009D01*
X151297227Y-63163095D01*
X151421061Y-63100541D01*
X151440721Y-63090610D01*
X151465294Y-63071412D01*
X151583371Y-62979160D01*
X151583372Y-62979160D01*
X151588227Y-62975366D01*
X151710538Y-62833667D01*
X151802998Y-62670908D01*
X151862083Y-62493291D01*
X151885544Y-62307580D01*
X151885918Y-62280800D01*
X151884605Y-62267409D01*
X152507775Y-62267409D01*
X152523439Y-62453939D01*
X152525138Y-62459864D01*
X152550311Y-62547651D01*
X152575035Y-62633875D01*
X152660597Y-62800362D01*
X152664420Y-62805186D01*
X152664423Y-62805190D01*
X152686994Y-62833667D01*
X152776868Y-62947059D01*
X152781562Y-62951054D01*
X152884695Y-63038827D01*
X152919418Y-63068379D01*
X152924796Y-63071385D01*
X152924798Y-63071386D01*
X152959196Y-63090610D01*
X153082818Y-63159700D01*
X153260843Y-63217544D01*
X153446714Y-63239708D01*
X153452849Y-63239236D01*
X153452851Y-63239236D01*
X153627208Y-63225820D01*
X153627213Y-63225819D01*
X153633349Y-63225347D01*
X153639279Y-63223691D01*
X153639281Y-63223691D01*
X153752164Y-63192173D01*
X153813641Y-63175009D01*
X153837227Y-63163095D01*
X153961061Y-63100541D01*
X153980721Y-63090610D01*
X154005294Y-63071412D01*
X154123371Y-62979160D01*
X154123372Y-62979160D01*
X154128227Y-62975366D01*
X154250538Y-62833667D01*
X154342998Y-62670908D01*
X154402083Y-62493291D01*
X154425544Y-62307580D01*
X154425918Y-62280800D01*
X154424605Y-62267409D01*
X155047775Y-62267409D01*
X155063439Y-62453939D01*
X155065138Y-62459864D01*
X155090311Y-62547651D01*
X155115035Y-62633875D01*
X155200597Y-62800362D01*
X155204420Y-62805186D01*
X155204423Y-62805190D01*
X155226994Y-62833667D01*
X155316868Y-62947059D01*
X155321562Y-62951054D01*
X155424695Y-63038827D01*
X155459418Y-63068379D01*
X155464796Y-63071385D01*
X155464798Y-63071386D01*
X155499196Y-63090610D01*
X155622818Y-63159700D01*
X155800843Y-63217544D01*
X155986714Y-63239708D01*
X155992849Y-63239236D01*
X155992851Y-63239236D01*
X156167208Y-63225820D01*
X156167213Y-63225819D01*
X156173349Y-63225347D01*
X156179279Y-63223691D01*
X156179281Y-63223691D01*
X156292164Y-63192173D01*
X156353641Y-63175009D01*
X156377227Y-63163095D01*
X156501061Y-63100541D01*
X156520721Y-63090610D01*
X156545294Y-63071412D01*
X156663371Y-62979160D01*
X156663372Y-62979160D01*
X156668227Y-62975366D01*
X156790538Y-62833667D01*
X156882998Y-62670908D01*
X156942083Y-62493291D01*
X156965544Y-62307580D01*
X156965918Y-62280800D01*
X156947652Y-62094506D01*
X156893549Y-61915309D01*
X156890105Y-61908832D01*
X156808564Y-61755474D01*
X156808562Y-61755471D01*
X156805670Y-61750032D01*
X156801780Y-61745262D01*
X156801777Y-61745258D01*
X156691257Y-61609748D01*
X156691254Y-61609745D01*
X156687362Y-61604973D01*
X156673609Y-61593595D01*
X156586518Y-61521547D01*
X156543132Y-61485655D01*
X156378473Y-61396624D01*
X156289065Y-61368948D01*
X156205544Y-61343094D01*
X156205541Y-61343093D01*
X156199657Y-61341272D01*
X156193532Y-61340628D01*
X156193531Y-61340628D01*
X156019624Y-61322349D01*
X156019623Y-61322349D01*
X156013496Y-61321705D01*
X155936943Y-61328672D01*
X155833218Y-61338112D01*
X155833215Y-61338113D01*
X155827079Y-61338671D01*
X155821173Y-61340409D01*
X155821169Y-61340410D01*
X155685875Y-61380229D01*
X155647508Y-61391521D01*
X155481622Y-61478244D01*
X155476822Y-61482104D01*
X155476821Y-61482104D01*
X155467518Y-61489584D01*
X155335740Y-61595536D01*
X155215419Y-61738930D01*
X155212455Y-61744322D01*
X155212452Y-61744326D01*
X155148268Y-61861077D01*
X155125241Y-61902963D01*
X155123380Y-61908830D01*
X155123379Y-61908832D01*
X155120981Y-61916392D01*
X155068641Y-62081388D01*
X155047775Y-62267409D01*
X154424605Y-62267409D01*
X154407652Y-62094506D01*
X154353549Y-61915309D01*
X154350105Y-61908832D01*
X154268564Y-61755474D01*
X154268562Y-61755471D01*
X154265670Y-61750032D01*
X154261780Y-61745262D01*
X154261777Y-61745258D01*
X154151257Y-61609748D01*
X154151254Y-61609745D01*
X154147362Y-61604973D01*
X154133609Y-61593595D01*
X154046518Y-61521547D01*
X154003132Y-61485655D01*
X153838473Y-61396624D01*
X153749065Y-61368948D01*
X153665544Y-61343094D01*
X153665541Y-61343093D01*
X153659657Y-61341272D01*
X153653532Y-61340628D01*
X153653531Y-61340628D01*
X153479624Y-61322349D01*
X153479623Y-61322349D01*
X153473496Y-61321705D01*
X153396943Y-61328672D01*
X153293218Y-61338112D01*
X153293215Y-61338113D01*
X153287079Y-61338671D01*
X153281173Y-61340409D01*
X153281169Y-61340410D01*
X153145875Y-61380229D01*
X153107508Y-61391521D01*
X152941622Y-61478244D01*
X152936822Y-61482104D01*
X152936821Y-61482104D01*
X152927518Y-61489584D01*
X152795740Y-61595536D01*
X152675419Y-61738930D01*
X152672455Y-61744322D01*
X152672452Y-61744326D01*
X152608268Y-61861077D01*
X152585241Y-61902963D01*
X152583380Y-61908830D01*
X152583379Y-61908832D01*
X152580981Y-61916392D01*
X152528641Y-62081388D01*
X152507775Y-62267409D01*
X151884605Y-62267409D01*
X151867652Y-62094506D01*
X151813549Y-61915309D01*
X151810105Y-61908832D01*
X151728564Y-61755474D01*
X151728562Y-61755471D01*
X151725670Y-61750032D01*
X151721780Y-61745262D01*
X151721777Y-61745258D01*
X151611257Y-61609748D01*
X151611254Y-61609745D01*
X151607362Y-61604973D01*
X151593609Y-61593595D01*
X151506518Y-61521547D01*
X151463132Y-61485655D01*
X151298473Y-61396624D01*
X151209065Y-61368948D01*
X151125544Y-61343094D01*
X151125541Y-61343093D01*
X151119657Y-61341272D01*
X151113532Y-61340628D01*
X151113531Y-61340628D01*
X150939624Y-61322349D01*
X150939623Y-61322349D01*
X150933496Y-61321705D01*
X150856943Y-61328672D01*
X150753218Y-61338112D01*
X150753215Y-61338113D01*
X150747079Y-61338671D01*
X150741173Y-61340409D01*
X150741169Y-61340410D01*
X150605875Y-61380229D01*
X150567508Y-61391521D01*
X150401622Y-61478244D01*
X150396822Y-61482104D01*
X150396821Y-61482104D01*
X150387518Y-61489584D01*
X150255740Y-61595536D01*
X150135419Y-61738930D01*
X150132455Y-61744322D01*
X150132452Y-61744326D01*
X150068268Y-61861077D01*
X150045241Y-61902963D01*
X150043380Y-61908830D01*
X150043379Y-61908832D01*
X150040981Y-61916392D01*
X149988641Y-62081388D01*
X149967775Y-62267409D01*
X149970852Y-62304055D01*
X149982941Y-62448012D01*
X149968710Y-62517568D01*
X149946478Y-62547651D01*
X149759122Y-62735007D01*
X149696810Y-62769033D01*
X149625995Y-62763968D01*
X149569159Y-62721421D01*
X149544348Y-62654901D01*
X149548320Y-62613300D01*
X149579569Y-62496678D01*
X149581471Y-62485891D01*
X149598935Y-62286275D01*
X149598935Y-62275325D01*
X149581471Y-62075709D01*
X149579569Y-62064922D01*
X149527707Y-61871371D01*
X149523959Y-61861077D01*
X149439279Y-61679477D01*
X149433801Y-61669989D01*
X149412489Y-61639552D01*
X149402012Y-61631177D01*
X149388564Y-61638246D01*
X147743524Y-63283286D01*
X147737094Y-63295061D01*
X147746390Y-63307076D01*
X147775989Y-63327801D01*
X147785477Y-63333279D01*
X147967077Y-63417959D01*
X147977371Y-63421707D01*
X148170922Y-63473569D01*
X148181709Y-63475471D01*
X148381325Y-63492935D01*
X148392275Y-63492935D01*
X148591891Y-63475471D01*
X148602678Y-63473569D01*
X148719300Y-63442320D01*
X148790277Y-63444010D01*
X148849073Y-63483804D01*
X148877021Y-63549068D01*
X148865248Y-63619082D01*
X148841007Y-63653122D01*
X148722734Y-63771395D01*
X148660422Y-63805421D01*
X148633639Y-63808300D01*
X146437938Y-63808300D01*
X146369817Y-63788298D01*
X146348843Y-63771395D01*
X146001220Y-63423772D01*
X145967194Y-63361460D01*
X145972259Y-63290645D01*
X146014806Y-63233809D01*
X146056432Y-63213318D01*
X146056508Y-63213297D01*
X146090088Y-63203921D01*
X146187711Y-63176665D01*
X146187714Y-63176664D01*
X146193641Y-63175009D01*
X146217227Y-63163095D01*
X146341061Y-63100541D01*
X146360721Y-63090610D01*
X146385294Y-63071412D01*
X146503371Y-62979160D01*
X146503372Y-62979160D01*
X146508227Y-62975366D01*
X146630538Y-62833667D01*
X146722998Y-62670908D01*
X146782083Y-62493291D01*
X146805544Y-62307580D01*
X146805842Y-62286275D01*
X147174665Y-62286275D01*
X147192129Y-62485891D01*
X147194031Y-62496678D01*
X147245893Y-62690229D01*
X147249641Y-62700523D01*
X147334321Y-62882123D01*
X147339799Y-62891611D01*
X147361111Y-62922048D01*
X147371588Y-62930423D01*
X147385036Y-62923354D01*
X148014778Y-62293612D01*
X148022392Y-62279668D01*
X148022261Y-62277835D01*
X148018010Y-62271220D01*
X147384314Y-61637524D01*
X147372539Y-61631094D01*
X147360524Y-61640390D01*
X147339799Y-61669989D01*
X147334321Y-61679477D01*
X147249641Y-61861077D01*
X147245893Y-61871371D01*
X147194031Y-62064922D01*
X147192129Y-62075709D01*
X147174665Y-62275325D01*
X147174665Y-62286275D01*
X146805842Y-62286275D01*
X146805918Y-62280800D01*
X146787652Y-62094506D01*
X146733549Y-61915309D01*
X146730105Y-61908832D01*
X146648564Y-61755474D01*
X146648562Y-61755471D01*
X146645670Y-61750032D01*
X146641780Y-61745262D01*
X146641777Y-61745258D01*
X146531257Y-61609748D01*
X146531254Y-61609745D01*
X146527362Y-61604973D01*
X146513609Y-61593595D01*
X146426518Y-61521547D01*
X146383132Y-61485655D01*
X146218473Y-61396624D01*
X146129065Y-61368948D01*
X146045544Y-61343094D01*
X146045541Y-61343093D01*
X146039657Y-61341272D01*
X146033532Y-61340628D01*
X146033531Y-61340628D01*
X145859624Y-61322349D01*
X145859623Y-61322349D01*
X145853496Y-61321705D01*
X145776943Y-61328672D01*
X145673218Y-61338112D01*
X145673215Y-61338113D01*
X145667079Y-61338671D01*
X145661173Y-61340409D01*
X145661169Y-61340410D01*
X145525875Y-61380229D01*
X145487508Y-61391521D01*
X145321622Y-61478244D01*
X145316822Y-61482104D01*
X145316821Y-61482104D01*
X145307518Y-61489584D01*
X145222375Y-61558041D01*
X145197823Y-61577781D01*
X145132201Y-61604877D01*
X145062346Y-61592194D01*
X145023415Y-61561827D01*
X145020151Y-61558040D01*
X145013865Y-61550123D01*
X145005927Y-61539256D01*
X144995065Y-61528394D01*
X144988707Y-61521547D01*
X144972500Y-61502738D01*
X144956456Y-61484118D01*
X144948921Y-61479234D01*
X144942349Y-61473501D01*
X144930945Y-61464274D01*
X144732259Y-61265588D01*
X147737177Y-61265588D01*
X147744246Y-61279036D01*
X148373988Y-61908778D01*
X148387932Y-61916392D01*
X148389765Y-61916261D01*
X148396380Y-61912010D01*
X149030076Y-61278314D01*
X149036506Y-61266539D01*
X149027210Y-61254524D01*
X148997611Y-61233799D01*
X148988123Y-61228321D01*
X148806523Y-61143641D01*
X148796229Y-61139893D01*
X148602678Y-61088031D01*
X148591891Y-61086129D01*
X148392275Y-61068665D01*
X148381325Y-61068665D01*
X148181709Y-61086129D01*
X148170922Y-61088031D01*
X147977371Y-61139893D01*
X147967077Y-61143641D01*
X147785477Y-61228321D01*
X147775989Y-61233799D01*
X147745552Y-61255111D01*
X147737177Y-61265588D01*
X144732259Y-61265588D01*
X144237166Y-60770495D01*
X144229624Y-60761055D01*
X144229244Y-60761378D01*
X144223426Y-60754542D01*
X144218636Y-60746950D01*
X144178629Y-60711617D01*
X144172943Y-60706272D01*
X144161609Y-60694938D01*
X144158024Y-60692251D01*
X144153334Y-60688736D01*
X144145489Y-60682349D01*
X144137893Y-60675640D01*
X144110319Y-60651288D01*
X144102197Y-60647475D01*
X144099396Y-60645635D01*
X144085401Y-60637226D01*
X144082438Y-60635604D01*
X144075253Y-60630219D01*
X144036599Y-60615728D01*
X143979834Y-60573086D01*
X143955135Y-60506524D01*
X143970343Y-60437175D01*
X143985448Y-60415415D01*
X143989213Y-60411054D01*
X144090538Y-60293667D01*
X144182998Y-60130908D01*
X144242083Y-59953291D01*
X144265544Y-59767580D01*
X144265918Y-59740800D01*
X144264605Y-59727409D01*
X144887775Y-59727409D01*
X144903439Y-59913939D01*
X144955035Y-60093875D01*
X144957850Y-60099352D01*
X144957851Y-60099355D01*
X144963111Y-60109590D01*
X145040597Y-60260362D01*
X145044420Y-60265186D01*
X145044423Y-60265190D01*
X145096912Y-60331414D01*
X145156868Y-60407059D01*
X145161562Y-60411054D01*
X145293702Y-60523514D01*
X145299418Y-60528379D01*
X145304796Y-60531385D01*
X145304798Y-60531386D01*
X145332411Y-60546818D01*
X145462818Y-60619700D01*
X145640843Y-60677544D01*
X145826714Y-60699708D01*
X145832849Y-60699236D01*
X145832851Y-60699236D01*
X146007208Y-60685820D01*
X146007213Y-60685819D01*
X146013349Y-60685347D01*
X146019279Y-60683691D01*
X146019281Y-60683691D01*
X146151070Y-60646895D01*
X146193641Y-60635009D01*
X146203124Y-60630219D01*
X146289258Y-60586709D01*
X146360721Y-60550610D01*
X146370050Y-60543322D01*
X146503371Y-60439160D01*
X146503372Y-60439160D01*
X146508227Y-60435366D01*
X146630538Y-60293667D01*
X146722998Y-60130908D01*
X146782083Y-59953291D01*
X146805544Y-59767580D01*
X146805918Y-59740800D01*
X146787652Y-59554506D01*
X146733549Y-59375309D01*
X146710187Y-59331371D01*
X146648564Y-59215474D01*
X146648562Y-59215471D01*
X146645670Y-59210032D01*
X146641780Y-59205262D01*
X146641777Y-59205258D01*
X146531257Y-59069748D01*
X146531254Y-59069745D01*
X146527362Y-59064973D01*
X146507431Y-59048484D01*
X146387881Y-58949584D01*
X146383132Y-58945655D01*
X146218473Y-58856624D01*
X146103618Y-58821071D01*
X146045544Y-58803094D01*
X146045541Y-58803093D01*
X146039657Y-58801272D01*
X146033532Y-58800628D01*
X146033531Y-58800628D01*
X145859624Y-58782349D01*
X145859623Y-58782349D01*
X145853496Y-58781705D01*
X145776943Y-58788672D01*
X145673218Y-58798112D01*
X145673215Y-58798113D01*
X145667079Y-58798671D01*
X145661173Y-58800409D01*
X145661169Y-58800410D01*
X145541101Y-58835748D01*
X145487508Y-58851521D01*
X145321622Y-58938244D01*
X145316822Y-58942104D01*
X145316821Y-58942104D01*
X145311270Y-58946567D01*
X145175740Y-59055536D01*
X145055419Y-59198930D01*
X145052455Y-59204322D01*
X145052452Y-59204326D01*
X145015072Y-59272320D01*
X144965241Y-59362963D01*
X144963380Y-59368830D01*
X144963379Y-59368832D01*
X144910503Y-59535518D01*
X144908641Y-59541388D01*
X144887775Y-59727409D01*
X144264605Y-59727409D01*
X144247652Y-59554506D01*
X144193549Y-59375309D01*
X144170187Y-59331371D01*
X144108564Y-59215474D01*
X144108562Y-59215471D01*
X144105670Y-59210032D01*
X144101780Y-59205262D01*
X144101777Y-59205258D01*
X143991257Y-59069748D01*
X143991254Y-59069745D01*
X143987362Y-59064973D01*
X143967431Y-59048484D01*
X143847881Y-58949584D01*
X143843132Y-58945655D01*
X143678473Y-58856624D01*
X143563618Y-58821071D01*
X143505544Y-58803094D01*
X143505541Y-58803093D01*
X143499657Y-58801272D01*
X143493532Y-58800628D01*
X143493531Y-58800628D01*
X143319624Y-58782349D01*
X143319623Y-58782349D01*
X143313496Y-58781705D01*
X143236943Y-58788672D01*
X143133218Y-58798112D01*
X143133215Y-58798113D01*
X143127079Y-58798671D01*
X143121173Y-58800409D01*
X143121169Y-58800410D01*
X143001101Y-58835748D01*
X142947508Y-58851521D01*
X142802639Y-58927257D01*
X142792164Y-58932733D01*
X142722529Y-58946567D01*
X142656468Y-58920557D01*
X142614956Y-58862961D01*
X142607789Y-58821071D01*
X142607789Y-57269376D01*
X142627791Y-57201255D01*
X142681447Y-57154762D01*
X142715709Y-57144680D01*
X142899631Y-57118013D01*
X142899636Y-57118012D01*
X142905345Y-57117184D01*
X142910809Y-57115329D01*
X142910814Y-57115328D01*
X143092093Y-57053792D01*
X143092098Y-57053790D01*
X143097565Y-57051934D01*
X143274676Y-56952747D01*
X143314369Y-56919735D01*
X143402096Y-56846772D01*
X143430745Y-56822945D01*
X143487863Y-56754269D01*
X143556853Y-56671318D01*
X143556855Y-56671315D01*
X143560547Y-56666876D01*
X143659734Y-56489765D01*
X143661590Y-56484298D01*
X143661592Y-56484293D01*
X143723128Y-56303014D01*
X143723129Y-56303009D01*
X143724984Y-56297545D01*
X143725812Y-56291836D01*
X143725813Y-56291831D01*
X143753579Y-56100327D01*
X143754112Y-56096653D01*
X143755632Y-56038600D01*
X143737058Y-55836459D01*
X143735490Y-55830899D01*
X143683525Y-55646646D01*
X143683524Y-55646644D01*
X143681957Y-55641087D01*
X143672055Y-55621006D01*
X143594731Y-55464209D01*
X143592176Y-55459028D01*
X143470720Y-55296379D01*
X143321658Y-55158587D01*
X143316775Y-55155506D01*
X143316771Y-55155503D01*
X143171128Y-55063610D01*
X143149981Y-55050267D01*
X142961439Y-54975046D01*
X142955779Y-54973920D01*
X142955775Y-54973919D01*
X142768013Y-54936571D01*
X142768010Y-54936571D01*
X142762346Y-54935444D01*
X142756571Y-54935368D01*
X142756567Y-54935368D01*
X142655193Y-54934041D01*
X142559371Y-54932787D01*
X142553674Y-54933766D01*
X142553673Y-54933766D01*
X142479892Y-54946444D01*
X142359310Y-54967164D01*
X142168863Y-55037424D01*
X141994410Y-55141212D01*
X141990070Y-55145018D01*
X141990066Y-55145021D01*
X141846133Y-55271248D01*
X141841792Y-55275055D01*
X141716120Y-55434469D01*
X141713431Y-55439580D01*
X141713429Y-55439583D01*
X141623989Y-55609580D01*
X141574570Y-55660552D01*
X141505437Y-55676715D01*
X141438541Y-55652936D01*
X141398403Y-55598573D01*
X141396355Y-55599463D01*
X141309372Y-55399414D01*
X141304505Y-55390339D01*
X141188826Y-55211526D01*
X141182536Y-55203357D01*
X141039206Y-55045840D01*
X141031673Y-55038815D01*
X140864539Y-54906822D01*
X140855952Y-54901117D01*
X140669517Y-54798199D01*
X140660105Y-54793969D01*
X140459359Y-54722880D01*
X140449388Y-54720246D01*
X140378237Y-54707572D01*
X140364940Y-54709032D01*
X140360400Y-54723589D01*
X140360400Y-57357117D01*
X140364875Y-57372356D01*
X140388125Y-57392503D01*
X140426508Y-57452229D01*
X140426508Y-57523226D01*
X140394707Y-57576822D01*
X139975645Y-57995884D01*
X139913333Y-58029910D01*
X139886550Y-58032789D01*
X130712541Y-58032789D01*
X130700533Y-58031447D01*
X130700493Y-58031943D01*
X130691542Y-58031223D01*
X130682788Y-58029242D01*
X130652341Y-58031131D01*
X130629518Y-58032547D01*
X130621716Y-58032789D01*
X130605685Y-58032789D01*
X130595452Y-58034254D01*
X130585400Y-58035284D01*
X130555996Y-58037109D01*
X130547512Y-58037635D01*
X130547511Y-58037635D01*
X130538553Y-58038191D01*
X130530110Y-58041239D01*
X130526831Y-58041918D01*
X130510966Y-58045873D01*
X130507742Y-58046816D01*
X130498859Y-58048088D01*
X130490690Y-58051802D01*
X130490684Y-58051804D01*
X130456132Y-58067514D01*
X130446764Y-58071328D01*
X130402627Y-58087261D01*
X130395377Y-58092558D01*
X130392410Y-58094135D01*
X130378297Y-58102382D01*
X130375474Y-58104187D01*
X130367306Y-58107901D01*
X130360509Y-58113758D01*
X130360507Y-58113759D01*
X130331758Y-58138532D01*
X130323847Y-58144814D01*
X130312967Y-58152762D01*
X130302105Y-58163624D01*
X130295259Y-58169982D01*
X130257829Y-58202233D01*
X130252945Y-58209768D01*
X130247212Y-58216340D01*
X130237985Y-58227744D01*
X122890106Y-65575623D01*
X122889561Y-65576165D01*
X122834818Y-65630244D01*
X122830460Y-65638090D01*
X122830459Y-65638091D01*
X122820603Y-65655835D01*
X122811283Y-65670214D01*
X122793730Y-65693636D01*
X122790579Y-65702040D01*
X122790579Y-65702041D01*
X122784815Y-65717416D01*
X122776981Y-65734369D01*
X122764647Y-65756575D01*
X122762665Y-65765333D01*
X122762665Y-65765334D01*
X122758188Y-65785121D01*
X122753277Y-65801543D01*
X122743002Y-65828952D01*
X122742337Y-65837906D01*
X122741120Y-65854283D01*
X122738361Y-65872743D01*
X122732754Y-65897524D01*
X122733310Y-65906484D01*
X122734566Y-65926738D01*
X122734462Y-65943874D01*
X122732293Y-65973067D01*
X122737596Y-65997913D01*
X122740129Y-66016405D01*
X122741702Y-66041760D01*
X122741427Y-66041777D01*
X122742500Y-66052246D01*
X122742500Y-69133814D01*
X122722498Y-69201935D01*
X122680923Y-69242099D01*
X122599978Y-69290256D01*
X122599975Y-69290258D01*
X122595010Y-69293212D01*
X122590670Y-69297018D01*
X122590666Y-69297021D01*
X122570723Y-69314511D01*
X122442392Y-69427055D01*
X122316720Y-69586469D01*
X122314031Y-69591580D01*
X122314029Y-69591583D01*
X122301073Y-69616209D01*
X122222203Y-69766115D01*
X122162007Y-69959978D01*
X122138148Y-70161564D01*
X122151424Y-70364122D01*
X122152845Y-70369718D01*
X122152846Y-70369723D01*
X122193249Y-70528807D01*
X122201392Y-70560869D01*
X122286377Y-70745216D01*
X122403533Y-70910989D01*
X122548938Y-71052635D01*
X122717720Y-71165412D01*
X122723023Y-71167690D01*
X122723026Y-71167692D01*
X122819954Y-71209335D01*
X122874647Y-71254603D01*
X122896184Y-71322254D01*
X122877727Y-71390810D01*
X122825136Y-71438504D01*
X122809361Y-71444868D01*
X122723868Y-71472812D01*
X122714359Y-71476809D01*
X122525463Y-71575142D01*
X122516738Y-71580636D01*
X122346433Y-71708505D01*
X122338726Y-71715348D01*
X122191590Y-71869317D01*
X122185104Y-71877327D01*
X122065098Y-72053249D01*
X122060000Y-72062223D01*
X121970338Y-72255383D01*
X121966775Y-72265070D01*
X121911389Y-72464783D01*
X121912912Y-72473207D01*
X121925292Y-72476600D01*
X124565344Y-72476600D01*
X124580584Y-72472125D01*
X124600811Y-72448782D01*
X124660538Y-72410399D01*
X124731534Y-72410399D01*
X124785130Y-72442200D01*
X125544195Y-73201265D01*
X125578221Y-73263577D01*
X125581100Y-73290360D01*
X125581100Y-77869239D01*
X125561098Y-77937360D01*
X125544195Y-77958334D01*
X121747593Y-81754936D01*
X121738153Y-81762478D01*
X121738476Y-81762858D01*
X121731640Y-81768676D01*
X121724048Y-81773466D01*
X121718106Y-81780194D01*
X121688716Y-81813472D01*
X121683370Y-81819159D01*
X121672036Y-81830493D01*
X121669351Y-81834076D01*
X121669349Y-81834078D01*
X121665834Y-81838768D01*
X121659449Y-81846611D01*
X121628386Y-81881783D01*
X121624573Y-81889905D01*
X121622733Y-81892706D01*
X121614324Y-81906701D01*
X121612702Y-81909664D01*
X121607317Y-81916849D01*
X121604164Y-81925259D01*
X121604163Y-81925261D01*
X121590841Y-81960795D01*
X121586917Y-81970108D01*
X121566970Y-82012595D01*
X121565588Y-82021469D01*
X121564602Y-82024696D01*
X121560462Y-82040479D01*
X121559741Y-82043757D01*
X121556589Y-82052165D01*
X121555924Y-82061116D01*
X121553111Y-82098970D01*
X121551957Y-82109017D01*
X121549887Y-82122310D01*
X121549887Y-82137675D01*
X121549541Y-82147012D01*
X121545880Y-82196280D01*
X121547753Y-82205055D01*
X121548346Y-82213751D01*
X121549887Y-82228351D01*
X121549887Y-88862163D01*
X121548546Y-88874168D01*
X121549042Y-88874208D01*
X121548322Y-88883155D01*
X121546341Y-88891911D01*
X121546897Y-88900871D01*
X121549645Y-88945169D01*
X121549887Y-88952971D01*
X121549887Y-88969013D01*
X121550522Y-88973444D01*
X121550522Y-88973449D01*
X121551352Y-88979240D01*
X121552383Y-88989301D01*
X121555289Y-89036146D01*
X121558336Y-89044586D01*
X121559017Y-89047876D01*
X121562969Y-89063725D01*
X121563914Y-89066955D01*
X121565186Y-89075839D01*
X121568901Y-89084010D01*
X121584605Y-89118550D01*
X121588417Y-89127915D01*
X121601309Y-89163624D01*
X121601311Y-89163627D01*
X121604359Y-89172071D01*
X121609655Y-89179320D01*
X121611227Y-89182277D01*
X121619480Y-89196401D01*
X121621285Y-89199224D01*
X121624999Y-89207392D01*
X121630856Y-89214189D01*
X121630857Y-89214191D01*
X121655630Y-89242940D01*
X121661912Y-89250851D01*
X121669860Y-89261731D01*
X121680722Y-89272593D01*
X121687080Y-89279439D01*
X121719331Y-89316869D01*
X121726866Y-89321753D01*
X121733438Y-89327486D01*
X121744842Y-89336713D01*
X126357375Y-93949246D01*
X126364917Y-93958686D01*
X126365297Y-93958363D01*
X126371115Y-93965199D01*
X126375905Y-93972791D01*
X126382633Y-93978733D01*
X126415911Y-94008123D01*
X126421598Y-94013469D01*
X126432932Y-94024803D01*
X126436515Y-94027488D01*
X126436517Y-94027490D01*
X126441207Y-94031005D01*
X126449050Y-94037390D01*
X126484222Y-94068453D01*
X126492344Y-94072266D01*
X126495145Y-94074106D01*
X126509140Y-94082515D01*
X126512103Y-94084137D01*
X126519288Y-94089522D01*
X126527698Y-94092675D01*
X126527700Y-94092676D01*
X126563234Y-94105998D01*
X126572547Y-94109922D01*
X126615034Y-94129869D01*
X126623908Y-94131251D01*
X126627135Y-94132237D01*
X126642918Y-94136377D01*
X126646196Y-94137098D01*
X126654604Y-94140250D01*
X126668361Y-94141272D01*
X126701409Y-94143728D01*
X126711456Y-94144882D01*
X126719938Y-94146203D01*
X126719941Y-94146203D01*
X126724749Y-94146952D01*
X126740114Y-94146952D01*
X126749452Y-94147298D01*
X126798719Y-94150959D01*
X126807494Y-94149086D01*
X126816190Y-94148493D01*
X126830790Y-94146952D01*
X127734768Y-94146952D01*
X127802889Y-94166954D01*
X127837665Y-94200232D01*
X127934788Y-94337658D01*
X127952585Y-94362841D01*
X128097990Y-94504487D01*
X128266772Y-94617264D01*
X128272075Y-94619542D01*
X128272078Y-94619544D01*
X128447973Y-94695114D01*
X128453280Y-94697394D01*
X128526296Y-94713916D01*
X128645631Y-94740919D01*
X128645636Y-94740920D01*
X128651268Y-94742194D01*
X128657039Y-94742421D01*
X128657041Y-94742421D01*
X128716808Y-94744769D01*
X128854105Y-94750164D01*
X128954551Y-94735600D01*
X129049283Y-94721865D01*
X129049288Y-94721864D01*
X129054997Y-94721036D01*
X129060461Y-94719181D01*
X129060466Y-94719180D01*
X129218922Y-94665391D01*
X129289857Y-94662435D01*
X129351129Y-94698298D01*
X129383286Y-94761595D01*
X129373711Y-94837754D01*
X129315441Y-94963286D01*
X129311878Y-94972973D01*
X129254967Y-95178184D01*
X129253036Y-95188303D01*
X129230405Y-95400077D01*
X129230153Y-95410366D01*
X129242412Y-95622980D01*
X129243848Y-95633200D01*
X129290668Y-95840949D01*
X129293748Y-95850778D01*
X129373873Y-96048106D01*
X129378516Y-96057297D01*
X129458563Y-96187923D01*
X129469019Y-96197383D01*
X129477797Y-96193599D01*
X131345492Y-94325904D01*
X131353106Y-94311960D01*
X131350959Y-94281942D01*
X131366050Y-94212568D01*
X131416252Y-94162365D01*
X131476638Y-94146952D01*
X131836891Y-94146952D01*
X131905012Y-94166954D01*
X131925986Y-94183857D01*
X137566123Y-99823994D01*
X137573665Y-99833434D01*
X137574045Y-99833111D01*
X137579863Y-99839947D01*
X137584653Y-99847539D01*
X137591381Y-99853481D01*
X137624659Y-99882871D01*
X137630346Y-99888217D01*
X137641680Y-99899551D01*
X137645266Y-99902238D01*
X137645271Y-99902243D01*
X137649959Y-99905757D01*
X137657797Y-99912138D01*
X137686243Y-99937260D01*
X137692970Y-99943201D01*
X137701093Y-99947015D01*
X137703904Y-99948861D01*
X137717903Y-99957272D01*
X137720852Y-99958886D01*
X137728035Y-99964270D01*
X137764823Y-99978061D01*
X137771974Y-99980742D01*
X137781294Y-99984669D01*
X137823782Y-100004617D01*
X137832653Y-100005998D01*
X137835875Y-100006983D01*
X137851646Y-100011120D01*
X137854940Y-100011844D01*
X137863352Y-100014998D01*
X137872310Y-100015664D01*
X137872311Y-100015664D01*
X137910150Y-100018476D01*
X137920174Y-100019626D01*
X137933497Y-100021700D01*
X137948862Y-100021700D01*
X137958199Y-100022046D01*
X138007466Y-100025707D01*
X138016241Y-100023834D01*
X138024937Y-100023241D01*
X138039537Y-100021700D01*
X155989300Y-100021700D01*
X156001305Y-100023041D01*
X156001345Y-100022545D01*
X156010292Y-100023265D01*
X156019048Y-100025246D01*
X156072306Y-100021942D01*
X156080108Y-100021700D01*
X156096150Y-100021700D01*
X156100581Y-100021065D01*
X156100586Y-100021065D01*
X156104611Y-100020488D01*
X156106381Y-100020235D01*
X156116438Y-100019204D01*
X156138900Y-100017811D01*
X156154324Y-100016854D01*
X156154326Y-100016854D01*
X156163283Y-100016298D01*
X156171723Y-100013251D01*
X156175013Y-100012570D01*
X156190862Y-100008618D01*
X156194092Y-100007673D01*
X156202976Y-100006401D01*
X156245687Y-99986982D01*
X156255052Y-99983170D01*
X156290761Y-99970278D01*
X156290764Y-99970276D01*
X156299208Y-99967228D01*
X156306457Y-99961932D01*
X156309414Y-99960360D01*
X156323538Y-99952107D01*
X156326361Y-99950302D01*
X156334529Y-99946588D01*
X156341326Y-99940731D01*
X156341328Y-99940730D01*
X156370077Y-99915957D01*
X156377988Y-99909675D01*
X156388868Y-99901727D01*
X156399730Y-99890865D01*
X156406577Y-99884507D01*
X156437206Y-99858115D01*
X156444006Y-99852256D01*
X156448890Y-99844721D01*
X156454623Y-99838149D01*
X156463850Y-99826745D01*
X162104794Y-94185801D01*
X162114234Y-94178259D01*
X162113911Y-94177879D01*
X162120747Y-94172061D01*
X162128339Y-94167271D01*
X162163672Y-94127264D01*
X162169017Y-94121578D01*
X162180351Y-94110244D01*
X162186553Y-94101969D01*
X162192940Y-94094124D01*
X162218060Y-94065681D01*
X162224001Y-94058954D01*
X162227814Y-94050832D01*
X162229654Y-94048031D01*
X162238063Y-94034036D01*
X162239685Y-94031073D01*
X162245070Y-94023888D01*
X162250014Y-94010701D01*
X162261546Y-93979942D01*
X162265471Y-93970626D01*
X162270278Y-93960387D01*
X162285417Y-93928142D01*
X162286799Y-93919268D01*
X162287785Y-93916041D01*
X162291925Y-93900258D01*
X162292646Y-93896980D01*
X162295798Y-93888572D01*
X162297441Y-93866465D01*
X162299276Y-93841767D01*
X162300430Y-93831720D01*
X162301751Y-93823238D01*
X162301751Y-93823235D01*
X162302500Y-93818427D01*
X162302500Y-93803062D01*
X162302846Y-93793725D01*
X162305842Y-93753405D01*
X162306507Y-93744457D01*
X162304634Y-93735682D01*
X162304041Y-93726986D01*
X162302500Y-93712386D01*
X162302500Y-92965772D01*
X162303841Y-92953767D01*
X162303345Y-92953727D01*
X162304065Y-92944780D01*
X162306046Y-92936024D01*
X162302742Y-92882766D01*
X162302500Y-92874964D01*
X162302500Y-92858922D01*
X162301828Y-92854225D01*
X162301288Y-92850461D01*
X162301035Y-92848691D01*
X162300003Y-92838625D01*
X162297654Y-92800748D01*
X162297654Y-92800746D01*
X162297098Y-92791789D01*
X162294051Y-92783349D01*
X162293370Y-92780059D01*
X162289418Y-92764210D01*
X162288473Y-92760980D01*
X162287201Y-92752096D01*
X162267774Y-92709366D01*
X162263964Y-92700008D01*
X162251075Y-92664306D01*
X162251074Y-92664305D01*
X162248027Y-92655864D01*
X162242731Y-92648615D01*
X162241146Y-92645634D01*
X162232920Y-92631556D01*
X162231104Y-92628717D01*
X162227388Y-92620543D01*
X162196757Y-92584994D01*
X162190465Y-92577071D01*
X162186042Y-92571016D01*
X162182527Y-92566204D01*
X162171665Y-92555342D01*
X162165307Y-92548495D01*
X162157381Y-92539296D01*
X162133056Y-92511066D01*
X162125521Y-92506182D01*
X162118949Y-92500449D01*
X162107545Y-92491222D01*
X161827115Y-92210792D01*
X161793089Y-92148480D01*
X161796544Y-92087487D01*
X161795412Y-92087215D01*
X161796760Y-92081600D01*
X161798618Y-92076127D01*
X161802657Y-92048274D01*
X161825398Y-91891429D01*
X161827746Y-91875235D01*
X161829266Y-91817182D01*
X161817072Y-91684478D01*
X161811221Y-91620795D01*
X161811220Y-91620792D01*
X161810692Y-91615041D01*
X161798096Y-91570378D01*
X161757159Y-91425228D01*
X161757158Y-91425226D01*
X161755591Y-91419669D01*
X161753037Y-91414490D01*
X161750966Y-91409095D01*
X161752474Y-91408516D01*
X161741591Y-91346045D01*
X161769155Y-91280618D01*
X161827716Y-91240479D01*
X161898681Y-91238372D01*
X161921232Y-91246639D01*
X161932128Y-91251860D01*
X162131086Y-91327834D01*
X162140984Y-91330710D01*
X162349680Y-91373169D01*
X162359908Y-91374388D01*
X162572735Y-91382193D01*
X162583021Y-91381726D01*
X162794270Y-91354665D01*
X162804347Y-91352523D01*
X163008340Y-91291322D01*
X163017927Y-91287564D01*
X163209183Y-91193869D01*
X163218029Y-91188596D01*
X163265332Y-91154854D01*
X163273733Y-91144154D01*
X163266745Y-91131001D01*
X162245970Y-90110226D01*
X162211944Y-90047914D01*
X162217009Y-89977099D01*
X162245970Y-89932036D01*
X162426990Y-89751016D01*
X162489302Y-89716990D01*
X162560117Y-89722055D01*
X162605180Y-89751016D01*
X163626559Y-90772395D01*
X163638569Y-90778954D01*
X163650308Y-90769986D01*
X163681089Y-90727150D01*
X163686400Y-90718311D01*
X163780755Y-90527398D01*
X163784554Y-90517803D01*
X163846461Y-90314046D01*
X163848640Y-90303965D01*
X163876675Y-90091018D01*
X163877194Y-90084343D01*
X163878657Y-90024495D01*
X163878463Y-90017777D01*
X163860866Y-89803735D01*
X163859181Y-89793555D01*
X163816130Y-89622163D01*
X163818934Y-89551222D01*
X163859647Y-89493058D01*
X163925342Y-89466139D01*
X163995162Y-89479010D01*
X164027429Y-89502372D01*
X164145519Y-89620462D01*
X164145524Y-89620466D01*
X164149902Y-89624844D01*
X164212835Y-89666895D01*
X164312136Y-89686647D01*
X164324307Y-89684226D01*
X164399267Y-89669316D01*
X164399268Y-89669315D01*
X164411437Y-89666895D01*
X164464587Y-89631382D01*
X164469225Y-89628283D01*
X164469227Y-89628282D01*
X164474370Y-89624845D01*
X164647305Y-89451910D01*
X164709617Y-89417884D01*
X164780432Y-89422949D01*
X164825495Y-89451910D01*
X165066595Y-89693010D01*
X165100621Y-89755322D01*
X165103500Y-89782105D01*
X165103500Y-91839239D01*
X165083498Y-91907360D01*
X165066595Y-91928334D01*
X156342734Y-100652195D01*
X156280422Y-100686221D01*
X156253639Y-100689100D01*
X136608361Y-100689100D01*
X136540240Y-100669098D01*
X136519266Y-100652195D01*
X133614984Y-97747913D01*
X133580958Y-97685601D01*
X133586023Y-97614786D01*
X133614984Y-97569723D01*
X133783536Y-97401171D01*
X133783540Y-97401166D01*
X133787918Y-97396788D01*
X133829969Y-97333855D01*
X133849721Y-97234554D01*
X133829969Y-97135253D01*
X133787919Y-97072320D01*
X132550388Y-95834790D01*
X132487455Y-95792739D01*
X132388154Y-95772987D01*
X132375983Y-95775408D01*
X132301023Y-95790318D01*
X132301022Y-95790319D01*
X132288853Y-95792739D01*
X132278536Y-95799632D01*
X132278537Y-95799632D01*
X132252954Y-95816726D01*
X132225920Y-95834789D01*
X132100953Y-95959756D01*
X132038645Y-95993779D01*
X131967829Y-95988715D01*
X131910993Y-95946168D01*
X131886182Y-95879648D01*
X131891302Y-95834031D01*
X131922480Y-95731410D01*
X131924658Y-95721337D01*
X131952693Y-95508390D01*
X131953212Y-95501715D01*
X131954675Y-95441867D01*
X131954481Y-95435149D01*
X131936884Y-95221107D01*
X131935199Y-95210927D01*
X131883317Y-95004378D01*
X131879997Y-94994627D01*
X131795075Y-94799317D01*
X131790208Y-94790242D01*
X131725166Y-94689700D01*
X131714480Y-94680498D01*
X131704915Y-94684901D01*
X129838840Y-96550976D01*
X129832080Y-96563356D01*
X129837361Y-96570410D01*
X129998859Y-96664782D01*
X130008145Y-96669232D01*
X130207104Y-96745206D01*
X130217002Y-96748082D01*
X130425698Y-96790541D01*
X130435926Y-96791760D01*
X130648753Y-96799565D01*
X130659039Y-96799098D01*
X130870288Y-96772037D01*
X130880369Y-96769894D01*
X130988034Y-96737593D01*
X131059029Y-96737177D01*
X131118979Y-96775209D01*
X131148851Y-96839615D01*
X131139160Y-96909948D01*
X131113336Y-96947374D01*
X130988390Y-97072320D01*
X130946339Y-97135253D01*
X130926587Y-97234554D01*
X130946339Y-97333855D01*
X130953232Y-97344171D01*
X130984949Y-97391639D01*
X130988389Y-97396788D01*
X131161324Y-97569723D01*
X131195350Y-97632035D01*
X131190285Y-97702850D01*
X131161324Y-97747913D01*
X130593842Y-98315395D01*
X130531530Y-98349421D01*
X130504747Y-98352300D01*
X129394761Y-98352300D01*
X129326640Y-98332298D01*
X129305666Y-98315395D01*
X120632605Y-89642334D01*
X120598579Y-89580022D01*
X120595700Y-89553239D01*
X120595700Y-76461161D01*
X120615702Y-76393040D01*
X120632605Y-76372066D01*
X121192666Y-75812005D01*
X121254978Y-75777979D01*
X121281761Y-75775100D01*
X121576262Y-75775100D01*
X121585599Y-75775446D01*
X121634866Y-75779107D01*
X121643641Y-75777234D01*
X121652337Y-75776641D01*
X121666937Y-75775100D01*
X122016501Y-75775100D01*
X122084622Y-75795102D01*
X122131115Y-75848758D01*
X122142501Y-75901100D01*
X122142501Y-76145666D01*
X122157266Y-76219901D01*
X122213516Y-76304084D01*
X122297699Y-76360334D01*
X122371933Y-76375100D01*
X123246858Y-76375100D01*
X124122066Y-76375099D01*
X124157818Y-76367988D01*
X124184126Y-76362756D01*
X124184128Y-76362755D01*
X124196301Y-76360334D01*
X124206621Y-76353439D01*
X124206622Y-76353438D01*
X124270168Y-76310977D01*
X124280484Y-76304084D01*
X124336734Y-76219901D01*
X124351500Y-76145667D01*
X124351499Y-74395534D01*
X124336734Y-74321299D01*
X124280484Y-74237116D01*
X124196301Y-74180866D01*
X124122067Y-74166100D01*
X123947334Y-74166100D01*
X123879213Y-74146098D01*
X123832720Y-74092442D01*
X123822616Y-74022168D01*
X123852110Y-73957588D01*
X123891902Y-73926948D01*
X123940100Y-73903336D01*
X123948945Y-73898064D01*
X124122328Y-73774392D01*
X124130200Y-73767739D01*
X124281052Y-73617412D01*
X124287730Y-73609565D01*
X124412003Y-73436620D01*
X124417313Y-73427783D01*
X124511670Y-73236867D01*
X124515469Y-73227272D01*
X124577377Y-73023510D01*
X124579555Y-73013437D01*
X124580986Y-73002562D01*
X124578775Y-72988378D01*
X124565617Y-72984600D01*
X121930225Y-72984600D01*
X121916694Y-72988573D01*
X121915257Y-72998566D01*
X121945565Y-73133046D01*
X121948645Y-73142875D01*
X122028770Y-73340203D01*
X122033413Y-73349394D01*
X122144694Y-73530988D01*
X122150777Y-73539299D01*
X122290213Y-73700267D01*
X122297580Y-73707483D01*
X122461434Y-73843516D01*
X122469881Y-73849431D01*
X122610005Y-73931313D01*
X122658729Y-73982952D01*
X122671800Y-74052735D01*
X122645069Y-74118506D01*
X122587022Y-74159385D01*
X122546436Y-74166101D01*
X122371934Y-74166101D01*
X122336182Y-74173212D01*
X122309874Y-74178444D01*
X122309872Y-74178445D01*
X122297699Y-74180866D01*
X122287379Y-74187761D01*
X122287378Y-74187762D01*
X122284505Y-74189682D01*
X122213516Y-74237116D01*
X122157266Y-74321299D01*
X122142500Y-74395533D01*
X122142500Y-74640100D01*
X122122498Y-74708221D01*
X122068842Y-74754714D01*
X122016500Y-74766100D01*
X121861361Y-74766100D01*
X121793240Y-74746098D01*
X121772266Y-74729195D01*
X120683405Y-73640334D01*
X120649379Y-73578022D01*
X120646500Y-73551239D01*
X120646500Y-65285161D01*
X120666502Y-65217040D01*
X120683405Y-65196066D01*
X129299465Y-56580005D01*
X129361777Y-56545979D01*
X129388560Y-56543100D01*
X136335901Y-56543100D01*
X136404022Y-56563102D01*
X136450515Y-56616758D01*
X136461901Y-56669100D01*
X136461901Y-56913666D01*
X136476666Y-56987901D01*
X136483561Y-56998220D01*
X136483562Y-56998222D01*
X136523916Y-57058615D01*
X136532916Y-57072084D01*
X136617099Y-57128334D01*
X136691333Y-57143100D01*
X137566258Y-57143100D01*
X138441466Y-57143099D01*
X138477218Y-57135988D01*
X138503526Y-57130756D01*
X138503528Y-57130755D01*
X138515701Y-57128334D01*
X138526021Y-57121439D01*
X138526022Y-57121438D01*
X138589568Y-57078977D01*
X138599884Y-57072084D01*
X138656134Y-56987901D01*
X138670900Y-56913667D01*
X138670900Y-56742028D01*
X138690902Y-56673907D01*
X138744558Y-56627414D01*
X138814832Y-56617310D01*
X138879412Y-56646804D01*
X138904333Y-56676193D01*
X139004094Y-56838988D01*
X139010177Y-56847299D01*
X139149613Y-57008267D01*
X139156980Y-57015483D01*
X139320834Y-57151516D01*
X139329281Y-57157431D01*
X139513156Y-57264879D01*
X139522442Y-57269329D01*
X139721401Y-57345303D01*
X139731299Y-57348179D01*
X139834650Y-57369206D01*
X139848699Y-57368010D01*
X139852400Y-57357665D01*
X139852400Y-54721702D01*
X139847925Y-54706463D01*
X139823807Y-54685564D01*
X139785424Y-54625838D01*
X139785424Y-54554841D01*
X139817225Y-54501245D01*
X140386265Y-53932205D01*
X140448577Y-53898179D01*
X140475360Y-53895300D01*
X144518839Y-53895300D01*
X144586960Y-53915302D01*
X144607934Y-53932205D01*
X144644995Y-53969266D01*
X144679021Y-54031578D01*
X144681900Y-54058361D01*
X144681900Y-54981814D01*
X144661898Y-55049935D01*
X144620323Y-55090099D01*
X144539378Y-55138256D01*
X144539377Y-55138257D01*
X144534410Y-55141212D01*
X144530070Y-55145018D01*
X144530066Y-55145021D01*
X144386133Y-55271248D01*
X144381792Y-55275055D01*
X144256120Y-55434469D01*
X144253431Y-55439580D01*
X144253429Y-55439583D01*
X144240473Y-55464209D01*
X144161603Y-55614115D01*
X144101407Y-55807978D01*
X144077548Y-56009564D01*
X144090824Y-56212122D01*
X144092245Y-56217718D01*
X144092246Y-56217723D01*
X144112519Y-56297545D01*
X144140792Y-56408869D01*
X144143209Y-56414112D01*
X144180410Y-56494808D01*
X144225777Y-56593216D01*
X144229110Y-56597932D01*
X144316786Y-56721991D01*
X144342933Y-56758989D01*
X144488338Y-56900635D01*
X144657120Y-57013412D01*
X144662423Y-57015690D01*
X144662426Y-57015692D01*
X144793683Y-57072084D01*
X144843628Y-57093542D01*
X144916644Y-57110064D01*
X145035979Y-57137067D01*
X145035984Y-57137068D01*
X145041616Y-57138342D01*
X145047387Y-57138569D01*
X145047389Y-57138569D01*
X145107156Y-57140917D01*
X145244453Y-57146312D01*
X145351748Y-57130755D01*
X145439631Y-57118013D01*
X145439636Y-57118012D01*
X145445345Y-57117184D01*
X145450809Y-57115329D01*
X145450814Y-57115328D01*
X145632093Y-57053792D01*
X145632098Y-57053790D01*
X145637565Y-57051934D01*
X145814676Y-56952747D01*
X145854369Y-56919735D01*
X145942096Y-56846772D01*
X145970745Y-56822945D01*
X146027863Y-56754269D01*
X146096853Y-56671318D01*
X146096855Y-56671315D01*
X146100547Y-56666876D01*
X146199734Y-56489765D01*
X146201590Y-56484298D01*
X146201592Y-56484293D01*
X146263128Y-56303014D01*
X146263129Y-56303009D01*
X146264984Y-56297545D01*
X146265812Y-56291836D01*
X146265813Y-56291831D01*
X146293579Y-56100327D01*
X146294112Y-56096653D01*
X146295632Y-56038600D01*
X146292964Y-56009564D01*
X146617548Y-56009564D01*
X146630824Y-56212122D01*
X146632245Y-56217718D01*
X146632246Y-56217723D01*
X146652519Y-56297545D01*
X146680792Y-56408869D01*
X146683209Y-56414112D01*
X146720410Y-56494808D01*
X146765777Y-56593216D01*
X146769110Y-56597932D01*
X146856786Y-56721991D01*
X146882933Y-56758989D01*
X147028338Y-56900635D01*
X147033142Y-56903845D01*
X147165902Y-56992553D01*
X147211430Y-57047030D01*
X147221900Y-57097318D01*
X147221900Y-59009776D01*
X147220559Y-59021781D01*
X147221055Y-59021821D01*
X147220335Y-59030768D01*
X147218354Y-59039524D01*
X147218910Y-59048484D01*
X147221658Y-59092782D01*
X147221900Y-59100584D01*
X147221900Y-59116626D01*
X147222535Y-59121057D01*
X147222535Y-59121062D01*
X147223365Y-59126853D01*
X147224396Y-59136914D01*
X147227302Y-59183759D01*
X147230349Y-59192199D01*
X147231030Y-59195489D01*
X147234982Y-59211338D01*
X147235927Y-59214568D01*
X147237199Y-59223452D01*
X147240914Y-59231623D01*
X147256618Y-59266163D01*
X147260430Y-59275528D01*
X147273322Y-59311237D01*
X147273324Y-59311240D01*
X147276372Y-59319684D01*
X147281668Y-59326933D01*
X147283240Y-59329890D01*
X147291493Y-59344014D01*
X147293298Y-59346837D01*
X147297012Y-59355005D01*
X147302869Y-59361802D01*
X147302870Y-59361804D01*
X147327643Y-59390553D01*
X147333925Y-59398464D01*
X147341873Y-59409344D01*
X147352734Y-59420205D01*
X147359092Y-59427052D01*
X147391344Y-59464482D01*
X147398877Y-59469365D01*
X147401819Y-59471931D01*
X147440004Y-59531784D01*
X147444206Y-59580926D01*
X147427775Y-59727409D01*
X147443439Y-59913939D01*
X147495035Y-60093875D01*
X147497850Y-60099352D01*
X147497851Y-60099355D01*
X147503111Y-60109590D01*
X147580597Y-60260362D01*
X147584420Y-60265186D01*
X147584423Y-60265190D01*
X147636912Y-60331414D01*
X147696868Y-60407059D01*
X147701562Y-60411054D01*
X147833702Y-60523514D01*
X147839418Y-60528379D01*
X147844796Y-60531385D01*
X147844798Y-60531386D01*
X147872411Y-60546818D01*
X148002818Y-60619700D01*
X148180843Y-60677544D01*
X148366714Y-60699708D01*
X148372849Y-60699236D01*
X148372851Y-60699236D01*
X148547208Y-60685820D01*
X148547213Y-60685819D01*
X148553349Y-60685347D01*
X148559279Y-60683691D01*
X148559281Y-60683691D01*
X148691070Y-60646895D01*
X148733641Y-60635009D01*
X148743124Y-60630219D01*
X148829258Y-60586709D01*
X148900721Y-60550610D01*
X148910050Y-60543322D01*
X149043371Y-60439160D01*
X149043372Y-60439160D01*
X149048227Y-60435366D01*
X149170538Y-60293667D01*
X149262998Y-60130908D01*
X149322083Y-59953291D01*
X149345544Y-59767580D01*
X149345918Y-59740800D01*
X149327652Y-59554506D01*
X149273549Y-59375309D01*
X149250187Y-59331371D01*
X149188564Y-59215474D01*
X149188562Y-59215471D01*
X149185670Y-59210032D01*
X149181780Y-59205262D01*
X149181777Y-59205258D01*
X149071257Y-59069748D01*
X149071254Y-59069745D01*
X149067362Y-59064973D01*
X149047431Y-59048484D01*
X148927881Y-58949584D01*
X148923132Y-58945655D01*
X148758473Y-58856624D01*
X148643618Y-58821071D01*
X148585544Y-58803094D01*
X148585541Y-58803093D01*
X148579657Y-58801272D01*
X148573532Y-58800628D01*
X148573531Y-58800628D01*
X148399624Y-58782349D01*
X148399623Y-58782349D01*
X148393496Y-58781705D01*
X148368317Y-58783997D01*
X148298666Y-58770250D01*
X148247502Y-58721029D01*
X148230900Y-58658515D01*
X148230900Y-57095914D01*
X148250902Y-57027793D01*
X148295331Y-56985982D01*
X148354676Y-56952747D01*
X148394369Y-56919735D01*
X148482096Y-56846772D01*
X148510745Y-56822945D01*
X148567863Y-56754269D01*
X148636853Y-56671318D01*
X148636855Y-56671315D01*
X148640547Y-56666876D01*
X148739734Y-56489765D01*
X148741590Y-56484298D01*
X148741592Y-56484293D01*
X148803128Y-56303014D01*
X148803129Y-56303009D01*
X148804984Y-56297545D01*
X148805812Y-56291836D01*
X148805813Y-56291831D01*
X148833579Y-56100327D01*
X148834112Y-56096653D01*
X148835632Y-56038600D01*
X148832964Y-56009564D01*
X149157548Y-56009564D01*
X149170824Y-56212122D01*
X149172245Y-56217718D01*
X149172246Y-56217723D01*
X149192519Y-56297545D01*
X149220792Y-56408869D01*
X149223209Y-56414112D01*
X149260410Y-56494808D01*
X149305777Y-56593216D01*
X149309110Y-56597932D01*
X149396786Y-56721991D01*
X149422933Y-56758989D01*
X149568338Y-56900635D01*
X149573142Y-56903845D01*
X149705902Y-56992553D01*
X149751430Y-57047030D01*
X149761900Y-57097318D01*
X149761900Y-59009776D01*
X149760559Y-59021781D01*
X149761055Y-59021821D01*
X149760335Y-59030768D01*
X149758354Y-59039524D01*
X149758910Y-59048484D01*
X149761658Y-59092782D01*
X149761900Y-59100584D01*
X149761900Y-59116626D01*
X149762535Y-59121057D01*
X149762535Y-59121062D01*
X149763365Y-59126853D01*
X149764396Y-59136914D01*
X149767302Y-59183759D01*
X149770349Y-59192199D01*
X149771030Y-59195489D01*
X149774982Y-59211338D01*
X149775927Y-59214568D01*
X149777199Y-59223452D01*
X149780914Y-59231623D01*
X149796618Y-59266163D01*
X149800430Y-59275528D01*
X149813322Y-59311237D01*
X149813324Y-59311240D01*
X149816372Y-59319684D01*
X149821668Y-59326933D01*
X149823240Y-59329890D01*
X149831493Y-59344014D01*
X149833298Y-59346837D01*
X149837012Y-59355005D01*
X149842869Y-59361802D01*
X149842870Y-59361804D01*
X149867643Y-59390553D01*
X149873925Y-59398464D01*
X149881873Y-59409344D01*
X149892734Y-59420205D01*
X149899092Y-59427052D01*
X149931344Y-59464482D01*
X149938877Y-59469365D01*
X149941819Y-59471931D01*
X149980004Y-59531784D01*
X149984206Y-59580926D01*
X149967775Y-59727409D01*
X149983439Y-59913939D01*
X150035035Y-60093875D01*
X150037850Y-60099352D01*
X150037851Y-60099355D01*
X150043111Y-60109590D01*
X150120597Y-60260362D01*
X150124420Y-60265186D01*
X150124423Y-60265190D01*
X150176912Y-60331414D01*
X150236868Y-60407059D01*
X150241562Y-60411054D01*
X150373702Y-60523514D01*
X150379418Y-60528379D01*
X150384796Y-60531385D01*
X150384798Y-60531386D01*
X150412411Y-60546818D01*
X150542818Y-60619700D01*
X150720843Y-60677544D01*
X150906714Y-60699708D01*
X150912849Y-60699236D01*
X150912851Y-60699236D01*
X151087208Y-60685820D01*
X151087213Y-60685819D01*
X151093349Y-60685347D01*
X151099279Y-60683691D01*
X151099281Y-60683691D01*
X151231070Y-60646895D01*
X151273641Y-60635009D01*
X151283124Y-60630219D01*
X151369258Y-60586709D01*
X151440721Y-60550610D01*
X151450050Y-60543322D01*
X151583371Y-60439160D01*
X151583372Y-60439160D01*
X151588227Y-60435366D01*
X151710538Y-60293667D01*
X151802998Y-60130908D01*
X151862083Y-59953291D01*
X151885544Y-59767580D01*
X151885918Y-59740800D01*
X151884605Y-59727409D01*
X152507775Y-59727409D01*
X152523439Y-59913939D01*
X152575035Y-60093875D01*
X152577850Y-60099352D01*
X152577851Y-60099355D01*
X152583111Y-60109590D01*
X152660597Y-60260362D01*
X152664420Y-60265186D01*
X152664423Y-60265190D01*
X152716912Y-60331414D01*
X152776868Y-60407059D01*
X152781562Y-60411054D01*
X152913702Y-60523514D01*
X152919418Y-60528379D01*
X152924796Y-60531385D01*
X152924798Y-60531386D01*
X152952411Y-60546818D01*
X153082818Y-60619700D01*
X153260843Y-60677544D01*
X153446714Y-60699708D01*
X153452849Y-60699236D01*
X153452851Y-60699236D01*
X153627208Y-60685820D01*
X153627213Y-60685819D01*
X153633349Y-60685347D01*
X153639279Y-60683691D01*
X153639281Y-60683691D01*
X153771070Y-60646895D01*
X153813641Y-60635009D01*
X153823124Y-60630219D01*
X153909258Y-60586709D01*
X153980721Y-60550610D01*
X153990050Y-60543322D01*
X154123371Y-60439160D01*
X154123372Y-60439160D01*
X154128227Y-60435366D01*
X154250538Y-60293667D01*
X154342998Y-60130908D01*
X154402083Y-59953291D01*
X154425544Y-59767580D01*
X154425918Y-59740800D01*
X154424605Y-59727409D01*
X155047775Y-59727409D01*
X155063439Y-59913939D01*
X155115035Y-60093875D01*
X155117850Y-60099352D01*
X155117851Y-60099355D01*
X155123111Y-60109590D01*
X155200597Y-60260362D01*
X155204420Y-60265186D01*
X155204423Y-60265190D01*
X155256912Y-60331414D01*
X155316868Y-60407059D01*
X155321562Y-60411054D01*
X155453702Y-60523514D01*
X155459418Y-60528379D01*
X155464796Y-60531385D01*
X155464798Y-60531386D01*
X155492411Y-60546818D01*
X155622818Y-60619700D01*
X155800843Y-60677544D01*
X155986714Y-60699708D01*
X155992849Y-60699236D01*
X155992851Y-60699236D01*
X156167208Y-60685820D01*
X156167213Y-60685819D01*
X156173349Y-60685347D01*
X156179279Y-60683691D01*
X156179281Y-60683691D01*
X156311070Y-60646895D01*
X156353641Y-60635009D01*
X156363124Y-60630219D01*
X156449258Y-60586709D01*
X156520721Y-60550610D01*
X156530050Y-60543322D01*
X156663371Y-60439160D01*
X156663372Y-60439160D01*
X156668227Y-60435366D01*
X156790538Y-60293667D01*
X156882998Y-60130908D01*
X156942083Y-59953291D01*
X156965544Y-59767580D01*
X156965918Y-59740800D01*
X156947652Y-59554506D01*
X156893549Y-59375309D01*
X156870187Y-59331371D01*
X156808564Y-59215474D01*
X156808562Y-59215471D01*
X156805670Y-59210032D01*
X156801780Y-59205262D01*
X156801777Y-59205258D01*
X156691257Y-59069748D01*
X156691254Y-59069745D01*
X156687362Y-59064973D01*
X156667431Y-59048484D01*
X156547881Y-58949584D01*
X156543132Y-58945655D01*
X156378473Y-58856624D01*
X156263618Y-58821071D01*
X156205544Y-58803094D01*
X156205541Y-58803093D01*
X156199657Y-58801272D01*
X156193532Y-58800628D01*
X156193531Y-58800628D01*
X156019624Y-58782349D01*
X156019623Y-58782349D01*
X156013496Y-58781705D01*
X155936943Y-58788672D01*
X155833218Y-58798112D01*
X155833215Y-58798113D01*
X155827079Y-58798671D01*
X155821173Y-58800409D01*
X155821169Y-58800410D01*
X155701101Y-58835748D01*
X155647508Y-58851521D01*
X155481622Y-58938244D01*
X155476822Y-58942104D01*
X155476821Y-58942104D01*
X155471270Y-58946567D01*
X155335740Y-59055536D01*
X155215419Y-59198930D01*
X155212455Y-59204322D01*
X155212452Y-59204326D01*
X155175072Y-59272320D01*
X155125241Y-59362963D01*
X155123380Y-59368830D01*
X155123379Y-59368832D01*
X155070503Y-59535518D01*
X155068641Y-59541388D01*
X155047775Y-59727409D01*
X154424605Y-59727409D01*
X154407652Y-59554506D01*
X154353549Y-59375309D01*
X154330187Y-59331371D01*
X154268564Y-59215474D01*
X154268562Y-59215471D01*
X154265670Y-59210032D01*
X154261780Y-59205262D01*
X154261777Y-59205258D01*
X154151257Y-59069748D01*
X154151254Y-59069745D01*
X154147362Y-59064973D01*
X154127431Y-59048484D01*
X154007881Y-58949584D01*
X154003132Y-58945655D01*
X153838473Y-58856624D01*
X153723618Y-58821071D01*
X153665544Y-58803094D01*
X153665541Y-58803093D01*
X153659657Y-58801272D01*
X153653532Y-58800628D01*
X153653531Y-58800628D01*
X153479624Y-58782349D01*
X153479623Y-58782349D01*
X153473496Y-58781705D01*
X153396943Y-58788672D01*
X153293218Y-58798112D01*
X153293215Y-58798113D01*
X153287079Y-58798671D01*
X153281173Y-58800409D01*
X153281169Y-58800410D01*
X153161101Y-58835748D01*
X153107508Y-58851521D01*
X152941622Y-58938244D01*
X152936822Y-58942104D01*
X152936821Y-58942104D01*
X152931270Y-58946567D01*
X152795740Y-59055536D01*
X152675419Y-59198930D01*
X152672455Y-59204322D01*
X152672452Y-59204326D01*
X152635072Y-59272320D01*
X152585241Y-59362963D01*
X152583380Y-59368830D01*
X152583379Y-59368832D01*
X152530503Y-59535518D01*
X152528641Y-59541388D01*
X152507775Y-59727409D01*
X151884605Y-59727409D01*
X151867652Y-59554506D01*
X151813549Y-59375309D01*
X151790187Y-59331371D01*
X151728564Y-59215474D01*
X151728562Y-59215471D01*
X151725670Y-59210032D01*
X151721780Y-59205262D01*
X151721777Y-59205258D01*
X151611257Y-59069748D01*
X151611254Y-59069745D01*
X151607362Y-59064973D01*
X151587431Y-59048484D01*
X151465031Y-58947226D01*
X151425293Y-58888393D01*
X151420622Y-58868017D01*
X151416001Y-58835748D01*
X151356188Y-58704195D01*
X151350330Y-58697396D01*
X151350327Y-58697392D01*
X151267716Y-58601518D01*
X151267713Y-58601516D01*
X151261856Y-58594718D01*
X151140590Y-58516117D01*
X151082065Y-58498614D01*
X151010738Y-58477282D01*
X151010736Y-58477282D01*
X151002137Y-58474710D01*
X150993163Y-58474655D01*
X150993161Y-58474655D01*
X150896131Y-58474063D01*
X150828134Y-58453645D01*
X150781969Y-58399707D01*
X150770900Y-58348065D01*
X150770900Y-57095914D01*
X150790902Y-57027793D01*
X150835331Y-56985982D01*
X150894676Y-56952747D01*
X150934369Y-56919735D01*
X151022096Y-56846772D01*
X151050745Y-56822945D01*
X151107863Y-56754269D01*
X151176853Y-56671318D01*
X151176855Y-56671315D01*
X151180547Y-56666876D01*
X151279734Y-56489765D01*
X151281590Y-56484298D01*
X151281592Y-56484293D01*
X151343128Y-56303014D01*
X151343129Y-56303009D01*
X151344984Y-56297545D01*
X151345812Y-56291836D01*
X151345813Y-56291831D01*
X151373579Y-56100327D01*
X151374112Y-56096653D01*
X151375632Y-56038600D01*
X151357058Y-55836459D01*
X151355490Y-55830899D01*
X151303525Y-55646646D01*
X151303524Y-55646644D01*
X151301957Y-55641087D01*
X151292055Y-55621006D01*
X151214731Y-55464209D01*
X151212176Y-55459028D01*
X151090720Y-55296379D01*
X150941658Y-55158587D01*
X150936775Y-55155506D01*
X150936771Y-55155503D01*
X150791128Y-55063610D01*
X150769981Y-55050267D01*
X150581439Y-54975046D01*
X150575779Y-54973920D01*
X150575775Y-54973919D01*
X150388013Y-54936571D01*
X150388010Y-54936571D01*
X150382346Y-54935444D01*
X150376571Y-54935368D01*
X150376567Y-54935368D01*
X150275193Y-54934041D01*
X150179371Y-54932787D01*
X150173674Y-54933766D01*
X150173673Y-54933766D01*
X150099892Y-54946444D01*
X149979310Y-54967164D01*
X149788863Y-55037424D01*
X149614410Y-55141212D01*
X149610070Y-55145018D01*
X149610066Y-55145021D01*
X149466133Y-55271248D01*
X149461792Y-55275055D01*
X149336120Y-55434469D01*
X149333431Y-55439580D01*
X149333429Y-55439583D01*
X149320473Y-55464209D01*
X149241603Y-55614115D01*
X149181407Y-55807978D01*
X149157548Y-56009564D01*
X148832964Y-56009564D01*
X148817058Y-55836459D01*
X148815490Y-55830899D01*
X148763525Y-55646646D01*
X148763524Y-55646644D01*
X148761957Y-55641087D01*
X148752055Y-55621006D01*
X148674731Y-55464209D01*
X148672176Y-55459028D01*
X148550720Y-55296379D01*
X148401658Y-55158587D01*
X148396775Y-55155506D01*
X148396771Y-55155503D01*
X148251128Y-55063610D01*
X148229981Y-55050267D01*
X148041439Y-54975046D01*
X148035779Y-54973920D01*
X148035775Y-54973919D01*
X147848013Y-54936571D01*
X147848010Y-54936571D01*
X147842346Y-54935444D01*
X147836571Y-54935368D01*
X147836567Y-54935368D01*
X147735193Y-54934041D01*
X147639371Y-54932787D01*
X147633674Y-54933766D01*
X147633673Y-54933766D01*
X147559892Y-54946444D01*
X147439310Y-54967164D01*
X147248863Y-55037424D01*
X147074410Y-55141212D01*
X147070070Y-55145018D01*
X147070066Y-55145021D01*
X146926133Y-55271248D01*
X146921792Y-55275055D01*
X146796120Y-55434469D01*
X146793431Y-55439580D01*
X146793429Y-55439583D01*
X146780473Y-55464209D01*
X146701603Y-55614115D01*
X146641407Y-55807978D01*
X146617548Y-56009564D01*
X146292964Y-56009564D01*
X146277058Y-55836459D01*
X146275490Y-55830899D01*
X146223525Y-55646646D01*
X146223524Y-55646644D01*
X146221957Y-55641087D01*
X146212055Y-55621006D01*
X146134731Y-55464209D01*
X146132176Y-55459028D01*
X146010720Y-55296379D01*
X145861658Y-55158587D01*
X145856775Y-55155506D01*
X145856771Y-55155503D01*
X145749665Y-55087925D01*
X145702726Y-55034658D01*
X145690900Y-54981363D01*
X145690900Y-53867824D01*
X145692241Y-53855819D01*
X145691745Y-53855779D01*
X145692465Y-53846832D01*
X145694446Y-53838076D01*
X145691142Y-53784818D01*
X145690900Y-53777016D01*
X145690900Y-53760974D01*
X145689435Y-53750743D01*
X145688403Y-53740677D01*
X145686054Y-53702800D01*
X145686054Y-53702798D01*
X145685498Y-53693841D01*
X145682451Y-53685401D01*
X145681770Y-53682111D01*
X145677816Y-53666254D01*
X145676873Y-53663029D01*
X145675601Y-53654148D01*
X145656173Y-53611418D01*
X145652369Y-53602075D01*
X145636427Y-53557915D01*
X145631130Y-53550664D01*
X145629543Y-53547680D01*
X145621333Y-53533630D01*
X145619506Y-53530773D01*
X145615788Y-53522595D01*
X145585153Y-53487042D01*
X145578875Y-53479136D01*
X145570927Y-53468256D01*
X145560065Y-53457394D01*
X145553707Y-53450547D01*
X145527315Y-53419918D01*
X145521456Y-53413118D01*
X145513921Y-53408234D01*
X145507349Y-53402501D01*
X145495945Y-53393274D01*
X145186677Y-53084006D01*
X145179135Y-53074566D01*
X145178755Y-53074889D01*
X145172937Y-53068053D01*
X145168147Y-53060461D01*
X145128140Y-53025128D01*
X145122454Y-53019783D01*
X145111120Y-53008449D01*
X145102845Y-53002247D01*
X145095000Y-52995860D01*
X145066557Y-52970740D01*
X145059830Y-52964799D01*
X145051708Y-52960986D01*
X145048907Y-52959146D01*
X145034912Y-52950737D01*
X145031949Y-52949115D01*
X145024764Y-52943730D01*
X145016354Y-52940577D01*
X145016352Y-52940576D01*
X144980818Y-52927254D01*
X144971502Y-52923329D01*
X144929018Y-52903383D01*
X144920144Y-52902001D01*
X144916917Y-52901015D01*
X144901134Y-52896875D01*
X144897856Y-52896154D01*
X144889448Y-52893002D01*
X144875691Y-52891980D01*
X144842643Y-52889524D01*
X144832596Y-52888370D01*
X144824114Y-52887049D01*
X144824111Y-52887049D01*
X144819303Y-52886300D01*
X144803938Y-52886300D01*
X144794601Y-52885954D01*
X144778519Y-52884759D01*
X144745333Y-52882293D01*
X144736558Y-52884166D01*
X144727862Y-52884759D01*
X144713262Y-52886300D01*
X140284830Y-52886300D01*
X140272822Y-52884958D01*
X140272782Y-52885454D01*
X140263831Y-52884734D01*
X140255077Y-52882753D01*
X140224630Y-52884642D01*
X140201807Y-52886058D01*
X140194005Y-52886300D01*
X140177974Y-52886300D01*
X140167741Y-52887765D01*
X140157689Y-52888795D01*
X140128285Y-52890620D01*
X140119801Y-52891146D01*
X140119800Y-52891146D01*
X140110842Y-52891702D01*
X140102399Y-52894750D01*
X140099120Y-52895429D01*
X140083255Y-52899384D01*
X140080031Y-52900327D01*
X140071148Y-52901599D01*
X140062979Y-52905313D01*
X140062973Y-52905315D01*
X140028421Y-52921025D01*
X140019053Y-52924839D01*
X139974916Y-52940772D01*
X139967666Y-52946069D01*
X139964699Y-52947646D01*
X139950586Y-52955893D01*
X139947763Y-52957698D01*
X139939595Y-52961412D01*
X139932798Y-52967269D01*
X139932796Y-52967270D01*
X139904047Y-52992043D01*
X139896136Y-52998325D01*
X139885256Y-53006273D01*
X139874394Y-53017135D01*
X139867548Y-53023493D01*
X139830118Y-53055744D01*
X139825234Y-53063279D01*
X139819501Y-53069851D01*
X139810274Y-53081255D01*
X137994334Y-54897195D01*
X137932022Y-54931221D01*
X137905239Y-54934100D01*
X136825558Y-54934101D01*
X136691334Y-54934101D01*
X136655582Y-54941212D01*
X136629274Y-54946444D01*
X136629272Y-54946445D01*
X136617099Y-54948866D01*
X136606779Y-54955761D01*
X136606778Y-54955762D01*
X136568464Y-54981363D01*
X136532916Y-55005116D01*
X136476666Y-55089299D01*
X136461900Y-55163533D01*
X136461900Y-55408100D01*
X136441898Y-55476221D01*
X136388242Y-55522714D01*
X136335900Y-55534100D01*
X129198030Y-55534100D01*
X129186022Y-55532758D01*
X129185982Y-55533254D01*
X129177031Y-55532534D01*
X129168277Y-55530553D01*
X129137830Y-55532442D01*
X129115007Y-55533858D01*
X129107205Y-55534100D01*
X129091174Y-55534100D01*
X129080941Y-55535565D01*
X129070889Y-55536595D01*
X129041485Y-55538420D01*
X129033001Y-55538946D01*
X129033000Y-55538946D01*
X129024042Y-55539502D01*
X129015599Y-55542550D01*
X129012320Y-55543229D01*
X128996455Y-55547184D01*
X128993231Y-55548127D01*
X128984348Y-55549399D01*
X128976179Y-55553113D01*
X128976173Y-55553115D01*
X128941621Y-55568825D01*
X128932253Y-55572639D01*
X128888116Y-55588572D01*
X128880866Y-55593869D01*
X128877899Y-55595446D01*
X128863786Y-55603693D01*
X128860963Y-55605498D01*
X128852795Y-55609212D01*
X128845998Y-55615069D01*
X128845996Y-55615070D01*
X128838395Y-55621620D01*
X128821815Y-55635907D01*
X128817247Y-55639843D01*
X128809336Y-55646125D01*
X128798456Y-55654073D01*
X128787594Y-55664935D01*
X128780748Y-55671293D01*
X128743318Y-55703544D01*
X128738434Y-55711079D01*
X128732701Y-55717651D01*
X128723474Y-55729055D01*
X119835206Y-64617323D01*
X119825766Y-64624865D01*
X119826089Y-64625245D01*
X119819253Y-64631063D01*
X119811661Y-64635853D01*
X119805719Y-64642581D01*
X119776329Y-64675859D01*
X119770983Y-64681546D01*
X119759649Y-64692880D01*
X119756964Y-64696463D01*
X119756962Y-64696465D01*
X119753447Y-64701155D01*
X119747062Y-64708998D01*
X119715999Y-64744170D01*
X119712186Y-64752292D01*
X119710346Y-64755093D01*
X119701937Y-64769088D01*
X119700315Y-64772051D01*
X119694930Y-64779236D01*
X119691777Y-64787646D01*
X119691776Y-64787648D01*
X119678454Y-64823182D01*
X119674530Y-64832495D01*
X119654583Y-64874982D01*
X119653201Y-64883856D01*
X119652215Y-64887083D01*
X119648075Y-64902866D01*
X119647354Y-64906144D01*
X119644202Y-64914552D01*
X119643537Y-64923503D01*
X119640724Y-64961357D01*
X119639570Y-64971404D01*
X119637500Y-64984697D01*
X119637500Y-65000062D01*
X119637154Y-65009399D01*
X119633493Y-65058667D01*
X119635366Y-65067442D01*
X119635959Y-65076138D01*
X119637500Y-65090738D01*
X119637500Y-73741776D01*
X119636159Y-73753781D01*
X119636655Y-73753821D01*
X119635935Y-73762768D01*
X119633954Y-73771524D01*
X119634510Y-73780484D01*
X119637258Y-73824782D01*
X119637500Y-73832584D01*
X119637500Y-73848626D01*
X119638135Y-73853057D01*
X119638135Y-73853062D01*
X119638965Y-73858853D01*
X119639996Y-73868914D01*
X119642902Y-73915759D01*
X119645949Y-73924199D01*
X119646630Y-73927489D01*
X119650582Y-73943338D01*
X119651527Y-73946568D01*
X119652799Y-73955452D01*
X119656514Y-73963623D01*
X119672218Y-73998163D01*
X119676030Y-74007528D01*
X119688922Y-74043237D01*
X119688924Y-74043240D01*
X119691972Y-74051684D01*
X119697268Y-74058933D01*
X119698840Y-74061890D01*
X119707093Y-74076014D01*
X119708898Y-74078837D01*
X119712612Y-74087005D01*
X119739756Y-74118506D01*
X119743243Y-74122553D01*
X119749525Y-74130464D01*
X119757473Y-74141344D01*
X119768335Y-74152206D01*
X119774693Y-74159052D01*
X119806944Y-74196482D01*
X119814479Y-74201366D01*
X119821051Y-74207099D01*
X119832455Y-74216326D01*
X120507834Y-74891705D01*
X120541860Y-74954017D01*
X120536795Y-75024832D01*
X120507834Y-75069895D01*
X119784406Y-75793323D01*
X119774966Y-75800865D01*
X119775289Y-75801245D01*
X119768453Y-75807063D01*
X119760861Y-75811853D01*
X119754919Y-75818581D01*
X119725529Y-75851859D01*
X119720183Y-75857546D01*
X119708849Y-75868880D01*
X119706164Y-75872463D01*
X119706162Y-75872465D01*
X119702647Y-75877155D01*
X119696262Y-75884998D01*
X119665199Y-75920170D01*
X119661386Y-75928292D01*
X119659546Y-75931093D01*
X119651137Y-75945088D01*
X119649515Y-75948051D01*
X119644130Y-75955236D01*
X119640977Y-75963646D01*
X119640976Y-75963648D01*
X119627654Y-75999182D01*
X119623730Y-76008495D01*
X119603783Y-76050982D01*
X119602401Y-76059856D01*
X119601415Y-76063083D01*
X119597275Y-76078866D01*
X119596554Y-76082144D01*
X119593402Y-76090552D01*
X119592737Y-76099503D01*
X119589924Y-76137357D01*
X119588770Y-76147404D01*
X119588096Y-76151735D01*
X119586700Y-76160697D01*
X119586700Y-76176062D01*
X119586354Y-76185399D01*
X119582693Y-76234667D01*
X119584566Y-76243442D01*
X119585159Y-76252138D01*
X119586700Y-76266738D01*
X119586700Y-89743776D01*
X119585359Y-89755781D01*
X119585855Y-89755821D01*
X119585135Y-89764768D01*
X119583154Y-89773524D01*
X119583710Y-89782484D01*
X119586458Y-89826782D01*
X119586700Y-89834584D01*
X119586700Y-89850626D01*
X119587335Y-89855057D01*
X119587335Y-89855062D01*
X119588165Y-89860853D01*
X119589196Y-89870914D01*
X119592102Y-89917759D01*
X119595149Y-89926199D01*
X119595830Y-89929489D01*
X119599782Y-89945338D01*
X119600727Y-89948568D01*
X119601999Y-89957452D01*
X119605714Y-89965623D01*
X119621418Y-90000163D01*
X119625230Y-90009528D01*
X119638122Y-90045237D01*
X119638124Y-90045240D01*
X119641172Y-90053684D01*
X119646468Y-90060933D01*
X119648040Y-90063890D01*
X119656293Y-90078014D01*
X119658098Y-90080837D01*
X119661812Y-90089005D01*
X119667669Y-90095802D01*
X119667670Y-90095804D01*
X119692443Y-90124553D01*
X119698725Y-90132464D01*
X119706673Y-90143344D01*
X119717535Y-90154206D01*
X119723893Y-90161052D01*
X119756144Y-90198482D01*
X119763679Y-90203366D01*
X119770251Y-90209099D01*
X119781655Y-90218326D01*
X121905834Y-92342505D01*
X121939860Y-92404817D01*
X121934795Y-92475632D01*
X121892248Y-92532468D01*
X121825728Y-92557279D01*
X121816739Y-92557600D01*
X119353701Y-92557600D01*
X119285580Y-92537598D01*
X119239087Y-92483942D01*
X119227701Y-92431499D01*
X119227723Y-92404817D01*
X119252942Y-61006762D01*
X119272999Y-60938657D01*
X119315271Y-60898135D01*
X119794120Y-60617728D01*
X119857789Y-60600457D01*
X122500832Y-60600457D01*
X122500832Y-60601707D01*
X122503087Y-60601302D01*
X122514186Y-60605463D01*
X122537438Y-60600457D01*
X122537771Y-60602006D01*
X122541519Y-60600457D01*
X122542157Y-60600457D01*
X122550799Y-60597922D01*
X122550824Y-60597918D01*
X122559687Y-60595667D01*
X122573798Y-60592629D01*
X122587037Y-60589779D01*
X122587535Y-60589408D01*
X122590738Y-60586205D01*
X122595387Y-60584841D01*
X122609323Y-60568782D01*
X122614024Y-60563364D01*
X122620093Y-60556850D01*
X122830486Y-60346457D01*
X126454944Y-56721990D01*
X126480369Y-56702357D01*
X126549575Y-56661831D01*
X127711200Y-55981600D01*
X127761032Y-52194341D01*
X127781928Y-52126491D01*
X127836191Y-52080708D01*
X127887021Y-52070000D01*
X159741600Y-52070000D01*
X159809721Y-52090002D01*
G37*
%TD.AperFunction*%
%TA.AperFunction,Conductor*%
G36*
X132010215Y-59061791D02*
G01*
X132056708Y-59115447D01*
X132066812Y-59185721D01*
X132056289Y-59221038D01*
X132009641Y-59321077D01*
X132005893Y-59331371D01*
X131954031Y-59524922D01*
X131952129Y-59535709D01*
X131934665Y-59735325D01*
X131934665Y-59746275D01*
X131952129Y-59945891D01*
X131954031Y-59956678D01*
X132005893Y-60150229D01*
X132009641Y-60160523D01*
X132094321Y-60342123D01*
X132099799Y-60351611D01*
X132121111Y-60382048D01*
X132131588Y-60390423D01*
X132145036Y-60383354D01*
X133057705Y-59470685D01*
X133120017Y-59436659D01*
X133190832Y-59441724D01*
X133235895Y-59470685D01*
X134149286Y-60384076D01*
X134161061Y-60390506D01*
X134173076Y-60381210D01*
X134193801Y-60351611D01*
X134199279Y-60342123D01*
X134283959Y-60160523D01*
X134287707Y-60150229D01*
X134339569Y-59956678D01*
X134341471Y-59945891D01*
X134358935Y-59746275D01*
X134358935Y-59735325D01*
X134341471Y-59535709D01*
X134339569Y-59524922D01*
X134287707Y-59331371D01*
X134283959Y-59321077D01*
X134237311Y-59221038D01*
X134226650Y-59150847D01*
X134255630Y-59086034D01*
X134315050Y-59047178D01*
X134351506Y-59041789D01*
X134768753Y-59041789D01*
X134836874Y-59061791D01*
X134883367Y-59115447D01*
X134893471Y-59185721D01*
X134879168Y-59228490D01*
X134805241Y-59362963D01*
X134803380Y-59368830D01*
X134803379Y-59368832D01*
X134750503Y-59535518D01*
X134748641Y-59541388D01*
X134727775Y-59727409D01*
X134743439Y-59913939D01*
X134795035Y-60093875D01*
X134797850Y-60099352D01*
X134797851Y-60099355D01*
X134803111Y-60109590D01*
X134880597Y-60260362D01*
X134884420Y-60265186D01*
X134884423Y-60265190D01*
X134936912Y-60331414D01*
X134996868Y-60407059D01*
X135001562Y-60411054D01*
X135133702Y-60523514D01*
X135139418Y-60528379D01*
X135144796Y-60531385D01*
X135144798Y-60531386D01*
X135172411Y-60546818D01*
X135302818Y-60619700D01*
X135480843Y-60677544D01*
X135666714Y-60699708D01*
X135672849Y-60699236D01*
X135672851Y-60699236D01*
X135847208Y-60685820D01*
X135847213Y-60685819D01*
X135853349Y-60685347D01*
X135859279Y-60683691D01*
X135859281Y-60683691D01*
X135991070Y-60646895D01*
X136033641Y-60635009D01*
X136043124Y-60630219D01*
X136129258Y-60586709D01*
X136200721Y-60550610D01*
X136210050Y-60543322D01*
X136343371Y-60439160D01*
X136343372Y-60439160D01*
X136348227Y-60435366D01*
X136470538Y-60293667D01*
X136562998Y-60130908D01*
X136622083Y-59953291D01*
X136645544Y-59767580D01*
X136645918Y-59740800D01*
X136627652Y-59554506D01*
X136573549Y-59375309D01*
X136494661Y-59226941D01*
X136480341Y-59157405D01*
X136505889Y-59091164D01*
X136563193Y-59049252D01*
X136605912Y-59041789D01*
X137308753Y-59041789D01*
X137376874Y-59061791D01*
X137423367Y-59115447D01*
X137433471Y-59185721D01*
X137419168Y-59228490D01*
X137345241Y-59362963D01*
X137343380Y-59368830D01*
X137343379Y-59368832D01*
X137290503Y-59535518D01*
X137288641Y-59541388D01*
X137267775Y-59727409D01*
X137283439Y-59913939D01*
X137335035Y-60093875D01*
X137337850Y-60099352D01*
X137337851Y-60099355D01*
X137343111Y-60109590D01*
X137420597Y-60260362D01*
X137424420Y-60265186D01*
X137424423Y-60265190D01*
X137476912Y-60331414D01*
X137536868Y-60407059D01*
X137541562Y-60411054D01*
X137673702Y-60523514D01*
X137679418Y-60528379D01*
X137684796Y-60531385D01*
X137684798Y-60531386D01*
X137712411Y-60546818D01*
X137842818Y-60619700D01*
X138020843Y-60677544D01*
X138206714Y-60699708D01*
X138212849Y-60699236D01*
X138212851Y-60699236D01*
X138387208Y-60685820D01*
X138387213Y-60685819D01*
X138393349Y-60685347D01*
X138399279Y-60683691D01*
X138399281Y-60683691D01*
X138531070Y-60646895D01*
X138573641Y-60635009D01*
X138583124Y-60630219D01*
X138669258Y-60586709D01*
X138740721Y-60550610D01*
X138750050Y-60543322D01*
X138883371Y-60439160D01*
X138883372Y-60439160D01*
X138888227Y-60435366D01*
X139010538Y-60293667D01*
X139102998Y-60130908D01*
X139162083Y-59953291D01*
X139185544Y-59767580D01*
X139185918Y-59740800D01*
X139167652Y-59554506D01*
X139113549Y-59375309D01*
X139034661Y-59226941D01*
X139020341Y-59157405D01*
X139045889Y-59091164D01*
X139103193Y-59049252D01*
X139145912Y-59041789D01*
X139848753Y-59041789D01*
X139916874Y-59061791D01*
X139963367Y-59115447D01*
X139973471Y-59185721D01*
X139959168Y-59228490D01*
X139885241Y-59362963D01*
X139883380Y-59368830D01*
X139883379Y-59368832D01*
X139830503Y-59535518D01*
X139828641Y-59541388D01*
X139807775Y-59727409D01*
X139823439Y-59913939D01*
X139875035Y-60093875D01*
X139877850Y-60099352D01*
X139877851Y-60099355D01*
X139883111Y-60109590D01*
X139960597Y-60260362D01*
X139964420Y-60265186D01*
X139964423Y-60265190D01*
X140016912Y-60331414D01*
X140076868Y-60407059D01*
X140081562Y-60411054D01*
X140213702Y-60523514D01*
X140219418Y-60528379D01*
X140224796Y-60531385D01*
X140224798Y-60531386D01*
X140252411Y-60546818D01*
X140382818Y-60619700D01*
X140560843Y-60677544D01*
X140746714Y-60699708D01*
X140752849Y-60699236D01*
X140752851Y-60699236D01*
X140927208Y-60685820D01*
X140927213Y-60685819D01*
X140933349Y-60685347D01*
X140939279Y-60683691D01*
X140939281Y-60683691D01*
X141071070Y-60646895D01*
X141113641Y-60635009D01*
X141123124Y-60630219D01*
X141209258Y-60586709D01*
X141280721Y-60550610D01*
X141415192Y-60445550D01*
X141481184Y-60419374D01*
X141550855Y-60433032D01*
X141602082Y-60482188D01*
X141613019Y-60507881D01*
X141614088Y-60515342D01*
X141621383Y-60531386D01*
X141633507Y-60558053D01*
X141637319Y-60567418D01*
X141650211Y-60603127D01*
X141650213Y-60603130D01*
X141653261Y-60611574D01*
X141658557Y-60618823D01*
X141660129Y-60621780D01*
X141668382Y-60635904D01*
X141670187Y-60638727D01*
X141673901Y-60646895D01*
X141700939Y-60678273D01*
X141704532Y-60682443D01*
X141710814Y-60690354D01*
X141718762Y-60701234D01*
X141729624Y-60712096D01*
X141735982Y-60718942D01*
X141768233Y-60756372D01*
X141775768Y-60761256D01*
X141782340Y-60766989D01*
X141793744Y-60776216D01*
X142401611Y-61384083D01*
X142409153Y-61393523D01*
X142409533Y-61393200D01*
X142415351Y-61400036D01*
X142420141Y-61407628D01*
X142426869Y-61413570D01*
X142460147Y-61442960D01*
X142465834Y-61448306D01*
X142477168Y-61459640D01*
X142480751Y-61462325D01*
X142480753Y-61462327D01*
X142485443Y-61465842D01*
X142493286Y-61472227D01*
X142528458Y-61503290D01*
X142531694Y-61504809D01*
X142575890Y-61556855D01*
X142585291Y-61627226D01*
X142557280Y-61689041D01*
X142519382Y-61734206D01*
X142519378Y-61734212D01*
X142515419Y-61738930D01*
X142512455Y-61744322D01*
X142512452Y-61744326D01*
X142448268Y-61861077D01*
X142425241Y-61902963D01*
X142423380Y-61908830D01*
X142423379Y-61908832D01*
X142420981Y-61916392D01*
X142368641Y-62081388D01*
X142347775Y-62267409D01*
X142363439Y-62453939D01*
X142365138Y-62459864D01*
X142390311Y-62547651D01*
X142415035Y-62633875D01*
X142500597Y-62800362D01*
X142504420Y-62805186D01*
X142504423Y-62805190D01*
X142526994Y-62833667D01*
X142616868Y-62947059D01*
X142621562Y-62951054D01*
X142757963Y-63067141D01*
X142796876Y-63126524D01*
X142802300Y-63163095D01*
X142802300Y-64648576D01*
X142800959Y-64660581D01*
X142801455Y-64660621D01*
X142800735Y-64669568D01*
X142798754Y-64678324D01*
X142799933Y-64697327D01*
X142802058Y-64731582D01*
X142802300Y-64739384D01*
X142802300Y-64755426D01*
X142802935Y-64759857D01*
X142802935Y-64759862D01*
X142803765Y-64765653D01*
X142804796Y-64775714D01*
X142806079Y-64796401D01*
X142807041Y-64811898D01*
X142807702Y-64822559D01*
X142810749Y-64830999D01*
X142811430Y-64834289D01*
X142815382Y-64850138D01*
X142816327Y-64853368D01*
X142817599Y-64862252D01*
X142821314Y-64870423D01*
X142837018Y-64904963D01*
X142840830Y-64914328D01*
X142853722Y-64950037D01*
X142853724Y-64950040D01*
X142856772Y-64958484D01*
X142862068Y-64965733D01*
X142863640Y-64968690D01*
X142871893Y-64982814D01*
X142873698Y-64985637D01*
X142877412Y-64993805D01*
X142883269Y-65000602D01*
X142883270Y-65000604D01*
X142908043Y-65029353D01*
X142914325Y-65037264D01*
X142922273Y-65048144D01*
X142933135Y-65059006D01*
X142939493Y-65065852D01*
X142971744Y-65103282D01*
X142979279Y-65108166D01*
X142985851Y-65113899D01*
X142997255Y-65123126D01*
X151721884Y-73847755D01*
X151755910Y-73910067D01*
X151758789Y-73936850D01*
X151758789Y-84322481D01*
X151738787Y-84390602D01*
X151685131Y-84437095D01*
X151614857Y-84447199D01*
X151552473Y-84419565D01*
X151467881Y-84349584D01*
X151463132Y-84345655D01*
X151298473Y-84256624D01*
X151129895Y-84204441D01*
X151125544Y-84203094D01*
X151125541Y-84203093D01*
X151119657Y-84201272D01*
X151113532Y-84200628D01*
X151113531Y-84200628D01*
X150939624Y-84182349D01*
X150939623Y-84182349D01*
X150933496Y-84181705D01*
X150856943Y-84188672D01*
X150753218Y-84198112D01*
X150753215Y-84198113D01*
X150747079Y-84198671D01*
X150741173Y-84200409D01*
X150741169Y-84200410D01*
X150670969Y-84221071D01*
X150567508Y-84251521D01*
X150401622Y-84338244D01*
X150396822Y-84342104D01*
X150396821Y-84342104D01*
X150391270Y-84346567D01*
X150255740Y-84455536D01*
X150135419Y-84598930D01*
X150132455Y-84604322D01*
X150132452Y-84604326D01*
X150107530Y-84649660D01*
X150045241Y-84762963D01*
X150043380Y-84768830D01*
X150043379Y-84768832D01*
X149990503Y-84935518D01*
X149988641Y-84941388D01*
X149967775Y-85127409D01*
X149983439Y-85313939D01*
X149985138Y-85319864D01*
X149996729Y-85360285D01*
X150035035Y-85493875D01*
X150120597Y-85660362D01*
X150124420Y-85665186D01*
X150124423Y-85665190D01*
X150146994Y-85693667D01*
X150236868Y-85807059D01*
X150241562Y-85811054D01*
X150343480Y-85897793D01*
X150379418Y-85928379D01*
X150384796Y-85931385D01*
X150384798Y-85931386D01*
X150456123Y-85971248D01*
X150542818Y-86019700D01*
X150720843Y-86077544D01*
X150906714Y-86099708D01*
X150912849Y-86099236D01*
X150912851Y-86099236D01*
X151087208Y-86085820D01*
X151087213Y-86085819D01*
X151093349Y-86085347D01*
X151099279Y-86083691D01*
X151099281Y-86083691D01*
X151227467Y-86047901D01*
X151273641Y-86035009D01*
X151288980Y-86027261D01*
X151355440Y-85993689D01*
X151440721Y-85950610D01*
X151462391Y-85933680D01*
X151555216Y-85861157D01*
X151621210Y-85834979D01*
X151690881Y-85848637D01*
X151742108Y-85897793D01*
X151758789Y-85960446D01*
X151758789Y-86862481D01*
X151738787Y-86930602D01*
X151685131Y-86977095D01*
X151614857Y-86987199D01*
X151552473Y-86959565D01*
X151467881Y-86889584D01*
X151463132Y-86885655D01*
X151298473Y-86796624D01*
X151147204Y-86749799D01*
X151125544Y-86743094D01*
X151125541Y-86743093D01*
X151119657Y-86741272D01*
X151113532Y-86740628D01*
X151113531Y-86740628D01*
X150939624Y-86722349D01*
X150939623Y-86722349D01*
X150933496Y-86721705D01*
X150856943Y-86728672D01*
X150753218Y-86738112D01*
X150753215Y-86738113D01*
X150747079Y-86738671D01*
X150741173Y-86740409D01*
X150741169Y-86740410D01*
X150670969Y-86761071D01*
X150567508Y-86791521D01*
X150401622Y-86878244D01*
X150396822Y-86882104D01*
X150396821Y-86882104D01*
X150391270Y-86886567D01*
X150255740Y-86995536D01*
X150135419Y-87138930D01*
X150132455Y-87144322D01*
X150132452Y-87144326D01*
X150123265Y-87161038D01*
X150045241Y-87302963D01*
X150043380Y-87308830D01*
X150043379Y-87308832D01*
X149994728Y-87462199D01*
X149988641Y-87481388D01*
X149967775Y-87667409D01*
X149972363Y-87722045D01*
X149982038Y-87837252D01*
X149983439Y-87853939D01*
X149985138Y-87859864D01*
X150013842Y-87959965D01*
X150035035Y-88033875D01*
X150037850Y-88039352D01*
X150037851Y-88039355D01*
X150117782Y-88194885D01*
X150120597Y-88200362D01*
X150124420Y-88205186D01*
X150124423Y-88205190D01*
X150150694Y-88238335D01*
X150236868Y-88347059D01*
X150241562Y-88351054D01*
X150343480Y-88437793D01*
X150379418Y-88468379D01*
X150384796Y-88471385D01*
X150384798Y-88471386D01*
X150415259Y-88488410D01*
X150542818Y-88559700D01*
X150720843Y-88617544D01*
X150906714Y-88639708D01*
X150912849Y-88639236D01*
X150912851Y-88639236D01*
X151087208Y-88625820D01*
X151087213Y-88625819D01*
X151093349Y-88625347D01*
X151099279Y-88623691D01*
X151099281Y-88623691D01*
X151212164Y-88592173D01*
X151273641Y-88575009D01*
X151303948Y-88559700D01*
X151375262Y-88523676D01*
X151440721Y-88490610D01*
X151462391Y-88473680D01*
X151555216Y-88401157D01*
X151621210Y-88374979D01*
X151690881Y-88388637D01*
X151742108Y-88437793D01*
X151758789Y-88500446D01*
X151758789Y-90165865D01*
X151757448Y-90177870D01*
X151757944Y-90177910D01*
X151757224Y-90186857D01*
X151755243Y-90195613D01*
X151755799Y-90204573D01*
X151758547Y-90248871D01*
X151758789Y-90256673D01*
X151758789Y-90272715D01*
X151759424Y-90277146D01*
X151759424Y-90277151D01*
X151760254Y-90282942D01*
X151761285Y-90293003D01*
X151764191Y-90339848D01*
X151767238Y-90348288D01*
X151767919Y-90351578D01*
X151771871Y-90367427D01*
X151772816Y-90370657D01*
X151774088Y-90379541D01*
X151777803Y-90387712D01*
X151793507Y-90422252D01*
X151797319Y-90431617D01*
X151810211Y-90467326D01*
X151810213Y-90467329D01*
X151813261Y-90475773D01*
X151818557Y-90483022D01*
X151820129Y-90485979D01*
X151828382Y-90500103D01*
X151830187Y-90502926D01*
X151833901Y-90511094D01*
X151839758Y-90517891D01*
X151839759Y-90517893D01*
X151864532Y-90546642D01*
X151870814Y-90554553D01*
X151878762Y-90565433D01*
X151889624Y-90576295D01*
X151895982Y-90583141D01*
X151928233Y-90620571D01*
X151935768Y-90625455D01*
X151942340Y-90631188D01*
X151953744Y-90640415D01*
X154790475Y-93477146D01*
X154824501Y-93539458D01*
X154827380Y-93566241D01*
X154827380Y-96148550D01*
X154807378Y-96216671D01*
X154765803Y-96256835D01*
X154684858Y-96304992D01*
X154684855Y-96304994D01*
X154679890Y-96307948D01*
X154675550Y-96311754D01*
X154675546Y-96311757D01*
X154655603Y-96329247D01*
X154527272Y-96441791D01*
X154401600Y-96601205D01*
X154398911Y-96606316D01*
X154398909Y-96606319D01*
X154351008Y-96697363D01*
X154307083Y-96780851D01*
X154246887Y-96974714D01*
X154223028Y-97176300D01*
X154236304Y-97378858D01*
X154237725Y-97384454D01*
X154237726Y-97384459D01*
X154284778Y-97569723D01*
X154286272Y-97575605D01*
X154371257Y-97759952D01*
X154488413Y-97925725D01*
X154600618Y-98035029D01*
X154635454Y-98096888D01*
X154631317Y-98167764D01*
X154589518Y-98225152D01*
X154523329Y-98250831D01*
X154512695Y-98251281D01*
X138538180Y-98251281D01*
X138470059Y-98231279D01*
X138449085Y-98214376D01*
X131774315Y-91539606D01*
X131766773Y-91530166D01*
X131766393Y-91530489D01*
X131760575Y-91523653D01*
X131755785Y-91516061D01*
X131715778Y-91480728D01*
X131710092Y-91475383D01*
X131698758Y-91464049D01*
X131690483Y-91457847D01*
X131682638Y-91451460D01*
X131654195Y-91426340D01*
X131647468Y-91420399D01*
X131639346Y-91416586D01*
X131636545Y-91414746D01*
X131622550Y-91406337D01*
X131619587Y-91404715D01*
X131612402Y-91399330D01*
X131603992Y-91396177D01*
X131603990Y-91396176D01*
X131568456Y-91382854D01*
X131559140Y-91378929D01*
X131549468Y-91374388D01*
X131516656Y-91358983D01*
X131507782Y-91357601D01*
X131504555Y-91356615D01*
X131488772Y-91352475D01*
X131485494Y-91351754D01*
X131477086Y-91348602D01*
X131463329Y-91347580D01*
X131430281Y-91345124D01*
X131420234Y-91343970D01*
X131411752Y-91342649D01*
X131411749Y-91342649D01*
X131406941Y-91341900D01*
X131391576Y-91341900D01*
X131382239Y-91341554D01*
X131366157Y-91340359D01*
X131332971Y-91337893D01*
X131324196Y-91339766D01*
X131315500Y-91340359D01*
X131300900Y-91341900D01*
X128061149Y-91341900D01*
X127993028Y-91321898D01*
X127952339Y-91276327D01*
X127951349Y-91276934D01*
X127948330Y-91272008D01*
X127945776Y-91266828D01*
X127824320Y-91104179D01*
X127675258Y-90966387D01*
X127670375Y-90963306D01*
X127670371Y-90963303D01*
X127508464Y-90861148D01*
X127503581Y-90858067D01*
X127315039Y-90782846D01*
X127309379Y-90781720D01*
X127309375Y-90781719D01*
X127121613Y-90744371D01*
X127121610Y-90744371D01*
X127115946Y-90743244D01*
X127110171Y-90743168D01*
X127110167Y-90743168D01*
X127008793Y-90741841D01*
X126912971Y-90740587D01*
X126907274Y-90741566D01*
X126907273Y-90741566D01*
X126718607Y-90773985D01*
X126712910Y-90774964D01*
X126522463Y-90845224D01*
X126348010Y-90949012D01*
X126343670Y-90952818D01*
X126343666Y-90952821D01*
X126217253Y-91063683D01*
X126195392Y-91082855D01*
X126069720Y-91242269D01*
X126067031Y-91247380D01*
X126067029Y-91247383D01*
X126038105Y-91302358D01*
X125975203Y-91421915D01*
X125915007Y-91615778D01*
X125914328Y-91621516D01*
X125896418Y-91772839D01*
X125868548Y-91838137D01*
X125809799Y-91878001D01*
X125738825Y-91879775D01*
X125682196Y-91847125D01*
X125204905Y-91369834D01*
X125170879Y-91307522D01*
X125175944Y-91236707D01*
X125218491Y-91179871D01*
X125275920Y-91156043D01*
X125457180Y-91129762D01*
X125457185Y-91129761D01*
X125462894Y-91128933D01*
X125468358Y-91127078D01*
X125468363Y-91127077D01*
X125649642Y-91065541D01*
X125649647Y-91065539D01*
X125655114Y-91063683D01*
X125832225Y-90964496D01*
X125850843Y-90949012D01*
X125983862Y-90838380D01*
X125988294Y-90834694D01*
X126037971Y-90774964D01*
X126114402Y-90683067D01*
X126114404Y-90683064D01*
X126118096Y-90678625D01*
X126217283Y-90501514D01*
X126219139Y-90496047D01*
X126219141Y-90496042D01*
X126280677Y-90314763D01*
X126280678Y-90314758D01*
X126282533Y-90309294D01*
X126283361Y-90303585D01*
X126283362Y-90303580D01*
X126304027Y-90161053D01*
X126311661Y-90108402D01*
X126313181Y-90050349D01*
X126294607Y-89848208D01*
X126290765Y-89834584D01*
X126241074Y-89658395D01*
X126241073Y-89658393D01*
X126239506Y-89652836D01*
X126228927Y-89631382D01*
X126152280Y-89475958D01*
X126149725Y-89470777D01*
X126028269Y-89308128D01*
X125919294Y-89207392D01*
X125883452Y-89174260D01*
X125879207Y-89170336D01*
X125874324Y-89167255D01*
X125874320Y-89167252D01*
X125767214Y-89099674D01*
X125720275Y-89046407D01*
X125708449Y-88993112D01*
X125708449Y-88695061D01*
X132497094Y-88695061D01*
X132506390Y-88707076D01*
X132535989Y-88727801D01*
X132545477Y-88733279D01*
X132727077Y-88817959D01*
X132737371Y-88821707D01*
X132930922Y-88873569D01*
X132941709Y-88875471D01*
X133141325Y-88892935D01*
X133152275Y-88892935D01*
X133351891Y-88875471D01*
X133362678Y-88873569D01*
X133556229Y-88821707D01*
X133566523Y-88817959D01*
X133748123Y-88733279D01*
X133757611Y-88727801D01*
X133788048Y-88706489D01*
X133796423Y-88696012D01*
X133789354Y-88682564D01*
X133159612Y-88052822D01*
X133145668Y-88045208D01*
X133143835Y-88045339D01*
X133137220Y-88049590D01*
X132503524Y-88683286D01*
X132497094Y-88695061D01*
X125708449Y-88695061D01*
X125708449Y-88417212D01*
X125728451Y-88349091D01*
X125745354Y-88328117D01*
X127054777Y-87018694D01*
X127117089Y-86984668D01*
X127143872Y-86981789D01*
X131942094Y-86981789D01*
X132010215Y-87001791D01*
X132056708Y-87055447D01*
X132066812Y-87125721D01*
X132056289Y-87161038D01*
X132009641Y-87261077D01*
X132005893Y-87271371D01*
X131954031Y-87464922D01*
X131952129Y-87475709D01*
X131934665Y-87675325D01*
X131934665Y-87686275D01*
X131952129Y-87885891D01*
X131954031Y-87896678D01*
X132005893Y-88090229D01*
X132009641Y-88100523D01*
X132094321Y-88282123D01*
X132099799Y-88291611D01*
X132121111Y-88322048D01*
X132131588Y-88330423D01*
X132145036Y-88323354D01*
X133057705Y-87410685D01*
X133120017Y-87376659D01*
X133190832Y-87381724D01*
X133235895Y-87410685D01*
X134149286Y-88324076D01*
X134161061Y-88330506D01*
X134173076Y-88321210D01*
X134193801Y-88291611D01*
X134199279Y-88282123D01*
X134283959Y-88100523D01*
X134287707Y-88090229D01*
X134339569Y-87896678D01*
X134341471Y-87885891D01*
X134358935Y-87686275D01*
X134358935Y-87675325D01*
X134341471Y-87475709D01*
X134339569Y-87464922D01*
X134287707Y-87271371D01*
X134283959Y-87261077D01*
X134237311Y-87161038D01*
X134226650Y-87090847D01*
X134255630Y-87026034D01*
X134315050Y-86987178D01*
X134351506Y-86981789D01*
X134768753Y-86981789D01*
X134836874Y-87001791D01*
X134883367Y-87055447D01*
X134893471Y-87125721D01*
X134879168Y-87168490D01*
X134805241Y-87302963D01*
X134803380Y-87308830D01*
X134803379Y-87308832D01*
X134754728Y-87462199D01*
X134748641Y-87481388D01*
X134727775Y-87667409D01*
X134732363Y-87722045D01*
X134742038Y-87837252D01*
X134743439Y-87853939D01*
X134745138Y-87859864D01*
X134773842Y-87959965D01*
X134795035Y-88033875D01*
X134797850Y-88039352D01*
X134797851Y-88039355D01*
X134877782Y-88194885D01*
X134880597Y-88200362D01*
X134884420Y-88205186D01*
X134884423Y-88205190D01*
X134910694Y-88238335D01*
X134996868Y-88347059D01*
X135001562Y-88351054D01*
X135103480Y-88437793D01*
X135139418Y-88468379D01*
X135144796Y-88471385D01*
X135144798Y-88471386D01*
X135175259Y-88488410D01*
X135302818Y-88559700D01*
X135480843Y-88617544D01*
X135666714Y-88639708D01*
X135672849Y-88639236D01*
X135672851Y-88639236D01*
X135847208Y-88625820D01*
X135847213Y-88625819D01*
X135853349Y-88625347D01*
X135859279Y-88623691D01*
X135859281Y-88623691D01*
X135972164Y-88592173D01*
X136033641Y-88575009D01*
X136063948Y-88559700D01*
X136135262Y-88523676D01*
X136200721Y-88490610D01*
X136222391Y-88473680D01*
X136343371Y-88379160D01*
X136343372Y-88379160D01*
X136348227Y-88375366D01*
X136470538Y-88233667D01*
X136562998Y-88070908D01*
X136622083Y-87893291D01*
X136645544Y-87707580D01*
X136645918Y-87680800D01*
X136627652Y-87494506D01*
X136573549Y-87315309D01*
X136494661Y-87166941D01*
X136480341Y-87097405D01*
X136505889Y-87031164D01*
X136563193Y-86989252D01*
X136605912Y-86981789D01*
X137308753Y-86981789D01*
X137376874Y-87001791D01*
X137423367Y-87055447D01*
X137433471Y-87125721D01*
X137419168Y-87168490D01*
X137345241Y-87302963D01*
X137343380Y-87308830D01*
X137343379Y-87308832D01*
X137294728Y-87462199D01*
X137288641Y-87481388D01*
X137267775Y-87667409D01*
X137272363Y-87722045D01*
X137282038Y-87837252D01*
X137283439Y-87853939D01*
X137285138Y-87859864D01*
X137313842Y-87959965D01*
X137335035Y-88033875D01*
X137337850Y-88039352D01*
X137337851Y-88039355D01*
X137417782Y-88194885D01*
X137420597Y-88200362D01*
X137424420Y-88205186D01*
X137424423Y-88205190D01*
X137450694Y-88238335D01*
X137536868Y-88347059D01*
X137541562Y-88351054D01*
X137643480Y-88437793D01*
X137679418Y-88468379D01*
X137684796Y-88471385D01*
X137684798Y-88471386D01*
X137715259Y-88488410D01*
X137842818Y-88559700D01*
X138020843Y-88617544D01*
X138206714Y-88639708D01*
X138212849Y-88639236D01*
X138212851Y-88639236D01*
X138387208Y-88625820D01*
X138387213Y-88625819D01*
X138393349Y-88625347D01*
X138399279Y-88623691D01*
X138399281Y-88623691D01*
X138512164Y-88592173D01*
X138573641Y-88575009D01*
X138603948Y-88559700D01*
X138675262Y-88523676D01*
X138740721Y-88490610D01*
X138762391Y-88473680D01*
X138883371Y-88379160D01*
X138883372Y-88379160D01*
X138888227Y-88375366D01*
X139010538Y-88233667D01*
X139102998Y-88070908D01*
X139162083Y-87893291D01*
X139185544Y-87707580D01*
X139185918Y-87680800D01*
X139167652Y-87494506D01*
X139113549Y-87315309D01*
X139034661Y-87166941D01*
X139020341Y-87097405D01*
X139045889Y-87031164D01*
X139103193Y-86989252D01*
X139145912Y-86981789D01*
X139848753Y-86981789D01*
X139916874Y-87001791D01*
X139963367Y-87055447D01*
X139973471Y-87125721D01*
X139959168Y-87168490D01*
X139885241Y-87302963D01*
X139883380Y-87308830D01*
X139883379Y-87308832D01*
X139834728Y-87462199D01*
X139828641Y-87481388D01*
X139807775Y-87667409D01*
X139812363Y-87722045D01*
X139822038Y-87837252D01*
X139823439Y-87853939D01*
X139825138Y-87859864D01*
X139853842Y-87959965D01*
X139875035Y-88033875D01*
X139877850Y-88039352D01*
X139877851Y-88039355D01*
X139957782Y-88194885D01*
X139960597Y-88200362D01*
X139964420Y-88205186D01*
X139964423Y-88205190D01*
X139990694Y-88238335D01*
X140076868Y-88347059D01*
X140081562Y-88351054D01*
X140183480Y-88437793D01*
X140219418Y-88468379D01*
X140224796Y-88471385D01*
X140224798Y-88471386D01*
X140255259Y-88488410D01*
X140382818Y-88559700D01*
X140560843Y-88617544D01*
X140746714Y-88639708D01*
X140752849Y-88639236D01*
X140752851Y-88639236D01*
X140927208Y-88625820D01*
X140927213Y-88625819D01*
X140933349Y-88625347D01*
X140939279Y-88623691D01*
X140939281Y-88623691D01*
X141052164Y-88592173D01*
X141113641Y-88575009D01*
X141143948Y-88559700D01*
X141215262Y-88523676D01*
X141280721Y-88490610D01*
X141302391Y-88473680D01*
X141423371Y-88379160D01*
X141423372Y-88379160D01*
X141428227Y-88375366D01*
X141550538Y-88233667D01*
X141642998Y-88070908D01*
X141702083Y-87893291D01*
X141725544Y-87707580D01*
X141725918Y-87680800D01*
X141707652Y-87494506D01*
X141653549Y-87315309D01*
X141574661Y-87166941D01*
X141560341Y-87097405D01*
X141585889Y-87031164D01*
X141643193Y-86989252D01*
X141685912Y-86981789D01*
X142388753Y-86981789D01*
X142456874Y-87001791D01*
X142503367Y-87055447D01*
X142513471Y-87125721D01*
X142499168Y-87168490D01*
X142425241Y-87302963D01*
X142423380Y-87308830D01*
X142423379Y-87308832D01*
X142374728Y-87462199D01*
X142368641Y-87481388D01*
X142347775Y-87667409D01*
X142352363Y-87722045D01*
X142362038Y-87837252D01*
X142363439Y-87853939D01*
X142365138Y-87859864D01*
X142393842Y-87959965D01*
X142415035Y-88033875D01*
X142417850Y-88039352D01*
X142417851Y-88039355D01*
X142497782Y-88194885D01*
X142500597Y-88200362D01*
X142504420Y-88205186D01*
X142504423Y-88205190D01*
X142530694Y-88238335D01*
X142616868Y-88347059D01*
X142621562Y-88351054D01*
X142723480Y-88437793D01*
X142759418Y-88468379D01*
X142764796Y-88471385D01*
X142764798Y-88471386D01*
X142795259Y-88488410D01*
X142922818Y-88559700D01*
X143100843Y-88617544D01*
X143286714Y-88639708D01*
X143292849Y-88639236D01*
X143292851Y-88639236D01*
X143467208Y-88625820D01*
X143467213Y-88625819D01*
X143473349Y-88625347D01*
X143479279Y-88623691D01*
X143479281Y-88623691D01*
X143592164Y-88592173D01*
X143653641Y-88575009D01*
X143683948Y-88559700D01*
X143755262Y-88523676D01*
X143820721Y-88490610D01*
X143842391Y-88473680D01*
X143963371Y-88379160D01*
X143963372Y-88379160D01*
X143968227Y-88375366D01*
X144090538Y-88233667D01*
X144182998Y-88070908D01*
X144242083Y-87893291D01*
X144265544Y-87707580D01*
X144265918Y-87680800D01*
X144247652Y-87494506D01*
X144193549Y-87315309D01*
X144114661Y-87166941D01*
X144100341Y-87097405D01*
X144125889Y-87031164D01*
X144183193Y-86989252D01*
X144225912Y-86981789D01*
X144928753Y-86981789D01*
X144996874Y-87001791D01*
X145043367Y-87055447D01*
X145053471Y-87125721D01*
X145039168Y-87168490D01*
X144965241Y-87302963D01*
X144963380Y-87308830D01*
X144963379Y-87308832D01*
X144914728Y-87462199D01*
X144908641Y-87481388D01*
X144887775Y-87667409D01*
X144892363Y-87722045D01*
X144902038Y-87837252D01*
X144903439Y-87853939D01*
X144905138Y-87859864D01*
X144933842Y-87959965D01*
X144955035Y-88033875D01*
X144957850Y-88039352D01*
X144957851Y-88039355D01*
X145037782Y-88194885D01*
X145040597Y-88200362D01*
X145044420Y-88205186D01*
X145044423Y-88205190D01*
X145070694Y-88238335D01*
X145156868Y-88347059D01*
X145161562Y-88351054D01*
X145263480Y-88437793D01*
X145299418Y-88468379D01*
X145304796Y-88471385D01*
X145304798Y-88471386D01*
X145335259Y-88488410D01*
X145462818Y-88559700D01*
X145640843Y-88617544D01*
X145826714Y-88639708D01*
X145832849Y-88639236D01*
X145832851Y-88639236D01*
X146007208Y-88625820D01*
X146007213Y-88625819D01*
X146013349Y-88625347D01*
X146019279Y-88623691D01*
X146019281Y-88623691D01*
X146132164Y-88592173D01*
X146193641Y-88575009D01*
X146223948Y-88559700D01*
X146295262Y-88523676D01*
X146360721Y-88490610D01*
X146382391Y-88473680D01*
X146503371Y-88379160D01*
X146503372Y-88379160D01*
X146508227Y-88375366D01*
X146630538Y-88233667D01*
X146722998Y-88070908D01*
X146782083Y-87893291D01*
X146805544Y-87707580D01*
X146805918Y-87680800D01*
X146787652Y-87494506D01*
X146733549Y-87315309D01*
X146654661Y-87166941D01*
X146640341Y-87097405D01*
X146665889Y-87031164D01*
X146723193Y-86989252D01*
X146765912Y-86981789D01*
X146922128Y-86981789D01*
X146990249Y-87001791D01*
X147011223Y-87018694D01*
X147408311Y-87415782D01*
X147442337Y-87478094D01*
X147444431Y-87518921D01*
X147427775Y-87667409D01*
X147432363Y-87722045D01*
X147442038Y-87837252D01*
X147443439Y-87853939D01*
X147445138Y-87859864D01*
X147473842Y-87959965D01*
X147495035Y-88033875D01*
X147497850Y-88039352D01*
X147497851Y-88039355D01*
X147577782Y-88194885D01*
X147580597Y-88200362D01*
X147584420Y-88205186D01*
X147584423Y-88205190D01*
X147610694Y-88238335D01*
X147696868Y-88347059D01*
X147701562Y-88351054D01*
X147803480Y-88437793D01*
X147839418Y-88468379D01*
X147844796Y-88471385D01*
X147844798Y-88471386D01*
X147875259Y-88488410D01*
X148002818Y-88559700D01*
X148180843Y-88617544D01*
X148366714Y-88639708D01*
X148372849Y-88639236D01*
X148372851Y-88639236D01*
X148547208Y-88625820D01*
X148547213Y-88625819D01*
X148553349Y-88625347D01*
X148559279Y-88623691D01*
X148559281Y-88623691D01*
X148672164Y-88592173D01*
X148733641Y-88575009D01*
X148763948Y-88559700D01*
X148835262Y-88523676D01*
X148900721Y-88490610D01*
X148922391Y-88473680D01*
X149043371Y-88379160D01*
X149043372Y-88379160D01*
X149048227Y-88375366D01*
X149170538Y-88233667D01*
X149262998Y-88070908D01*
X149322083Y-87893291D01*
X149345544Y-87707580D01*
X149345918Y-87680800D01*
X149327652Y-87494506D01*
X149273549Y-87315309D01*
X149268491Y-87305797D01*
X149188564Y-87155474D01*
X149188562Y-87155471D01*
X149185670Y-87150032D01*
X149181780Y-87145262D01*
X149181777Y-87145258D01*
X149071257Y-87009748D01*
X149071254Y-87009745D01*
X149067362Y-87004973D01*
X149039338Y-86981789D01*
X148927881Y-86889584D01*
X148923132Y-86885655D01*
X148758473Y-86796624D01*
X148607204Y-86749799D01*
X148585544Y-86743094D01*
X148585541Y-86743093D01*
X148579657Y-86741272D01*
X148573532Y-86740628D01*
X148573531Y-86740628D01*
X148399624Y-86722349D01*
X148399623Y-86722349D01*
X148393496Y-86721705D01*
X148221003Y-86737404D01*
X148151351Y-86723659D01*
X148120489Y-86701018D01*
X147625077Y-86205606D01*
X147617535Y-86196166D01*
X147617155Y-86196489D01*
X147611337Y-86189653D01*
X147606547Y-86182061D01*
X147566540Y-86146728D01*
X147560854Y-86141383D01*
X147549520Y-86130049D01*
X147541245Y-86123847D01*
X147533400Y-86117460D01*
X147504957Y-86092340D01*
X147498230Y-86086399D01*
X147490108Y-86082586D01*
X147487307Y-86080746D01*
X147473312Y-86072337D01*
X147470349Y-86070715D01*
X147463164Y-86065330D01*
X147454754Y-86062177D01*
X147454752Y-86062176D01*
X147419218Y-86048854D01*
X147409902Y-86044929D01*
X147404477Y-86042382D01*
X147367418Y-86024983D01*
X147364996Y-86024606D01*
X147361054Y-86022010D01*
X147360352Y-86023883D01*
X147333310Y-86013745D01*
X147323993Y-86009819D01*
X147281507Y-85989872D01*
X147272632Y-85988490D01*
X147269406Y-85987504D01*
X147253623Y-85983364D01*
X147250345Y-85982643D01*
X147241937Y-85979491D01*
X147228180Y-85978469D01*
X147195132Y-85976013D01*
X147185085Y-85974859D01*
X147176603Y-85973538D01*
X147176600Y-85973538D01*
X147171792Y-85972789D01*
X147156427Y-85972789D01*
X147147090Y-85972443D01*
X147139537Y-85971882D01*
X147097822Y-85968782D01*
X147089047Y-85970655D01*
X147080351Y-85971248D01*
X147065751Y-85972789D01*
X146664814Y-85972789D01*
X146596693Y-85952787D01*
X146550200Y-85899131D01*
X146540096Y-85828857D01*
X146569433Y-85764458D01*
X146626509Y-85698335D01*
X146626510Y-85698333D01*
X146630538Y-85693667D01*
X146722998Y-85530908D01*
X146782083Y-85353291D01*
X146805544Y-85167580D01*
X146805918Y-85140800D01*
X146804605Y-85127409D01*
X147427775Y-85127409D01*
X147443439Y-85313939D01*
X147445138Y-85319864D01*
X147456729Y-85360285D01*
X147495035Y-85493875D01*
X147580597Y-85660362D01*
X147584420Y-85665186D01*
X147584423Y-85665190D01*
X147606994Y-85693667D01*
X147696868Y-85807059D01*
X147701562Y-85811054D01*
X147803480Y-85897793D01*
X147839418Y-85928379D01*
X147844796Y-85931385D01*
X147844798Y-85931386D01*
X147916123Y-85971248D01*
X148002818Y-86019700D01*
X148180843Y-86077544D01*
X148366714Y-86099708D01*
X148372849Y-86099236D01*
X148372851Y-86099236D01*
X148547208Y-86085820D01*
X148547213Y-86085819D01*
X148553349Y-86085347D01*
X148559279Y-86083691D01*
X148559281Y-86083691D01*
X148687467Y-86047901D01*
X148733641Y-86035009D01*
X148748980Y-86027261D01*
X148815440Y-85993689D01*
X148900721Y-85950610D01*
X148922391Y-85933680D01*
X149043371Y-85839160D01*
X149043372Y-85839160D01*
X149048227Y-85835366D01*
X149170538Y-85693667D01*
X149262998Y-85530908D01*
X149322083Y-85353291D01*
X149345544Y-85167580D01*
X149345918Y-85140800D01*
X149327652Y-84954506D01*
X149273549Y-84775309D01*
X149263466Y-84756346D01*
X149188564Y-84615474D01*
X149188562Y-84615471D01*
X149185670Y-84610032D01*
X149181780Y-84605262D01*
X149181777Y-84605258D01*
X149071257Y-84469748D01*
X149071254Y-84469745D01*
X149067362Y-84464973D01*
X149060556Y-84459342D01*
X148927881Y-84349584D01*
X148923132Y-84345655D01*
X148758473Y-84256624D01*
X148589895Y-84204441D01*
X148585544Y-84203094D01*
X148585541Y-84203093D01*
X148579657Y-84201272D01*
X148573532Y-84200628D01*
X148573531Y-84200628D01*
X148399624Y-84182349D01*
X148399623Y-84182349D01*
X148393496Y-84181705D01*
X148316943Y-84188672D01*
X148213218Y-84198112D01*
X148213215Y-84198113D01*
X148207079Y-84198671D01*
X148201173Y-84200409D01*
X148201169Y-84200410D01*
X148130969Y-84221071D01*
X148027508Y-84251521D01*
X147861622Y-84338244D01*
X147856822Y-84342104D01*
X147856821Y-84342104D01*
X147851270Y-84346567D01*
X147715740Y-84455536D01*
X147595419Y-84598930D01*
X147592455Y-84604322D01*
X147592452Y-84604326D01*
X147567530Y-84649660D01*
X147505241Y-84762963D01*
X147503380Y-84768830D01*
X147503379Y-84768832D01*
X147450503Y-84935518D01*
X147448641Y-84941388D01*
X147427775Y-85127409D01*
X146804605Y-85127409D01*
X146787652Y-84954506D01*
X146733549Y-84775309D01*
X146723466Y-84756346D01*
X146648564Y-84615474D01*
X146648562Y-84615471D01*
X146645670Y-84610032D01*
X146641780Y-84605262D01*
X146641777Y-84605258D01*
X146531257Y-84469748D01*
X146531254Y-84469745D01*
X146527362Y-84464973D01*
X146520556Y-84459342D01*
X146387881Y-84349584D01*
X146383132Y-84345655D01*
X146218473Y-84256624D01*
X146049895Y-84204441D01*
X146045544Y-84203094D01*
X146045541Y-84203093D01*
X146039657Y-84201272D01*
X146033532Y-84200628D01*
X146033531Y-84200628D01*
X145859624Y-84182349D01*
X145859623Y-84182349D01*
X145853496Y-84181705D01*
X145776943Y-84188672D01*
X145673218Y-84198112D01*
X145673215Y-84198113D01*
X145667079Y-84198671D01*
X145661173Y-84200409D01*
X145661169Y-84200410D01*
X145590969Y-84221071D01*
X145487508Y-84251521D01*
X145321622Y-84338244D01*
X145316822Y-84342104D01*
X145316821Y-84342104D01*
X145311270Y-84346567D01*
X145175740Y-84455536D01*
X145055419Y-84598930D01*
X145052455Y-84604322D01*
X145052452Y-84604326D01*
X145027530Y-84649660D01*
X144965241Y-84762963D01*
X144963380Y-84768830D01*
X144963379Y-84768832D01*
X144910503Y-84935518D01*
X144908641Y-84941388D01*
X144887775Y-85127409D01*
X144903439Y-85313939D01*
X144905138Y-85319864D01*
X144916729Y-85360285D01*
X144955035Y-85493875D01*
X145040597Y-85660362D01*
X145044424Y-85665190D01*
X145126325Y-85768524D01*
X145152963Y-85834334D01*
X145139792Y-85904099D01*
X145090995Y-85955668D01*
X145027580Y-85972789D01*
X144124814Y-85972789D01*
X144056693Y-85952787D01*
X144010200Y-85899131D01*
X144000096Y-85828857D01*
X144029433Y-85764458D01*
X144086509Y-85698335D01*
X144086510Y-85698333D01*
X144090538Y-85693667D01*
X144182998Y-85530908D01*
X144242083Y-85353291D01*
X144265544Y-85167580D01*
X144265918Y-85140800D01*
X144247652Y-84954506D01*
X144193549Y-84775309D01*
X144183466Y-84756346D01*
X144108564Y-84615474D01*
X144108562Y-84615471D01*
X144105670Y-84610032D01*
X144101780Y-84605262D01*
X144101777Y-84605258D01*
X143991257Y-84469748D01*
X143991254Y-84469745D01*
X143987362Y-84464973D01*
X143980556Y-84459342D01*
X143847881Y-84349584D01*
X143843132Y-84345655D01*
X143678473Y-84256624D01*
X143509895Y-84204441D01*
X143505544Y-84203094D01*
X143505541Y-84203093D01*
X143499657Y-84201272D01*
X143493532Y-84200628D01*
X143493531Y-84200628D01*
X143319624Y-84182349D01*
X143319623Y-84182349D01*
X143313496Y-84181705D01*
X143236943Y-84188672D01*
X143133218Y-84198112D01*
X143133215Y-84198113D01*
X143127079Y-84198671D01*
X143121173Y-84200409D01*
X143121169Y-84200410D01*
X143050969Y-84221071D01*
X142947508Y-84251521D01*
X142781622Y-84338244D01*
X142776822Y-84342104D01*
X142776821Y-84342104D01*
X142771270Y-84346567D01*
X142635740Y-84455536D01*
X142515419Y-84598930D01*
X142512455Y-84604322D01*
X142512452Y-84604326D01*
X142487530Y-84649660D01*
X142425241Y-84762963D01*
X142423380Y-84768830D01*
X142423379Y-84768832D01*
X142370503Y-84935518D01*
X142368641Y-84941388D01*
X142347775Y-85127409D01*
X142363439Y-85313939D01*
X142365138Y-85319864D01*
X142376729Y-85360285D01*
X142415035Y-85493875D01*
X142500597Y-85660362D01*
X142504424Y-85665190D01*
X142586325Y-85768524D01*
X142612963Y-85834334D01*
X142599792Y-85904099D01*
X142550995Y-85955668D01*
X142487580Y-85972789D01*
X141584814Y-85972789D01*
X141516693Y-85952787D01*
X141470200Y-85899131D01*
X141460096Y-85828857D01*
X141489433Y-85764458D01*
X141546509Y-85698335D01*
X141546510Y-85698333D01*
X141550538Y-85693667D01*
X141642998Y-85530908D01*
X141702083Y-85353291D01*
X141725544Y-85167580D01*
X141725918Y-85140800D01*
X141707652Y-84954506D01*
X141653549Y-84775309D01*
X141643466Y-84756346D01*
X141568564Y-84615474D01*
X141568562Y-84615471D01*
X141565670Y-84610032D01*
X141561780Y-84605262D01*
X141561777Y-84605258D01*
X141451257Y-84469748D01*
X141451254Y-84469745D01*
X141447362Y-84464973D01*
X141441659Y-84460255D01*
X141316984Y-84357114D01*
X141277246Y-84298281D01*
X141271300Y-84260030D01*
X141271300Y-82620624D01*
X141272641Y-82608619D01*
X141272145Y-82608579D01*
X141272865Y-82599632D01*
X141274846Y-82590876D01*
X141271542Y-82537618D01*
X141271300Y-82529816D01*
X141271300Y-82513774D01*
X141269835Y-82503543D01*
X141268803Y-82493477D01*
X141266454Y-82455600D01*
X141266454Y-82455598D01*
X141265898Y-82446641D01*
X141262851Y-82438201D01*
X141262170Y-82434911D01*
X141258216Y-82419054D01*
X141257273Y-82415829D01*
X141256001Y-82406948D01*
X141236573Y-82364218D01*
X141232769Y-82354875D01*
X141216827Y-82310715D01*
X141211532Y-82303467D01*
X141209947Y-82300486D01*
X141201707Y-82286387D01*
X141199903Y-82283567D01*
X141196188Y-82275395D01*
X141165551Y-82239838D01*
X141159269Y-82231926D01*
X141154204Y-82224993D01*
X141154193Y-82224980D01*
X141151326Y-82221056D01*
X141140471Y-82210201D01*
X141134113Y-82203354D01*
X141128018Y-82196280D01*
X141101856Y-82165918D01*
X141094322Y-82161035D01*
X141087755Y-82155306D01*
X141076344Y-82146074D01*
X140665475Y-81735204D01*
X140657934Y-81725766D01*
X140657555Y-81726089D01*
X140651737Y-81719253D01*
X140646947Y-81711661D01*
X140606940Y-81676328D01*
X140601254Y-81670983D01*
X140589920Y-81659649D01*
X140581645Y-81653447D01*
X140573800Y-81647060D01*
X140545357Y-81621940D01*
X140538630Y-81615999D01*
X140530508Y-81612186D01*
X140527707Y-81610346D01*
X140513712Y-81601937D01*
X140510749Y-81600315D01*
X140503564Y-81594930D01*
X140495154Y-81591777D01*
X140495152Y-81591776D01*
X140459618Y-81578454D01*
X140450302Y-81574529D01*
X140407818Y-81554583D01*
X140398944Y-81553201D01*
X140395717Y-81552215D01*
X140379934Y-81548075D01*
X140376656Y-81547354D01*
X140368248Y-81544202D01*
X140354491Y-81543180D01*
X140321443Y-81540724D01*
X140311396Y-81539570D01*
X140302914Y-81538249D01*
X140302911Y-81538249D01*
X140298103Y-81537500D01*
X140282738Y-81537500D01*
X140273401Y-81537154D01*
X140257319Y-81535959D01*
X140224133Y-81533493D01*
X140215358Y-81535366D01*
X140206662Y-81535959D01*
X140192062Y-81537500D01*
X125800630Y-81537500D01*
X125788622Y-81536158D01*
X125788582Y-81536654D01*
X125779631Y-81535934D01*
X125770877Y-81533953D01*
X125740430Y-81535842D01*
X125717607Y-81537258D01*
X125709805Y-81537500D01*
X125693774Y-81537500D01*
X125683541Y-81538965D01*
X125673489Y-81539995D01*
X125644085Y-81541820D01*
X125635601Y-81542346D01*
X125635600Y-81542346D01*
X125626642Y-81542902D01*
X125618199Y-81545950D01*
X125614920Y-81546629D01*
X125599055Y-81550584D01*
X125595831Y-81551527D01*
X125586948Y-81552799D01*
X125578779Y-81556513D01*
X125578773Y-81556515D01*
X125544221Y-81572225D01*
X125534853Y-81576039D01*
X125490716Y-81591972D01*
X125483466Y-81597269D01*
X125480499Y-81598846D01*
X125466386Y-81607093D01*
X125463563Y-81608898D01*
X125455395Y-81612612D01*
X125448598Y-81618469D01*
X125448596Y-81618470D01*
X125419847Y-81643243D01*
X125411936Y-81649525D01*
X125401056Y-81657473D01*
X125390194Y-81668335D01*
X125383348Y-81674693D01*
X125345918Y-81706944D01*
X125341034Y-81714479D01*
X125335301Y-81721051D01*
X125326074Y-81732455D01*
X122773982Y-84284547D01*
X122711670Y-84318573D01*
X122640855Y-84313508D01*
X122584019Y-84270961D01*
X122559208Y-84204441D01*
X122558887Y-84195452D01*
X122558887Y-82422774D01*
X122578889Y-82354653D01*
X122595792Y-82333679D01*
X126392394Y-78537077D01*
X126401834Y-78529535D01*
X126401511Y-78529155D01*
X126408347Y-78523337D01*
X126415939Y-78518547D01*
X126451272Y-78478540D01*
X126456617Y-78472854D01*
X126467951Y-78461520D01*
X126474153Y-78453245D01*
X126480540Y-78445400D01*
X126505660Y-78416957D01*
X126511601Y-78410230D01*
X126515414Y-78402108D01*
X126517254Y-78399307D01*
X126525663Y-78385312D01*
X126527285Y-78382349D01*
X126532670Y-78375164D01*
X126535824Y-78366752D01*
X126549146Y-78331218D01*
X126553071Y-78321902D01*
X126569201Y-78287545D01*
X126573017Y-78279418D01*
X126574399Y-78270544D01*
X126575385Y-78267317D01*
X126579525Y-78251534D01*
X126580246Y-78248256D01*
X126583398Y-78239848D01*
X126586876Y-78193043D01*
X126588030Y-78182996D01*
X126589351Y-78174514D01*
X126589351Y-78174511D01*
X126590100Y-78169703D01*
X126590100Y-78154338D01*
X126590446Y-78145001D01*
X126593442Y-78104681D01*
X126594107Y-78095733D01*
X126592234Y-78086958D01*
X126591641Y-78078262D01*
X126590100Y-78063662D01*
X126590100Y-73099830D01*
X126591442Y-73087822D01*
X126590946Y-73087782D01*
X126591666Y-73078831D01*
X126593647Y-73070077D01*
X126590342Y-73016807D01*
X126590100Y-73009005D01*
X126590100Y-72992974D01*
X126588635Y-72982741D01*
X126587604Y-72972681D01*
X126585254Y-72934801D01*
X126585254Y-72934800D01*
X126584698Y-72925842D01*
X126581650Y-72917399D01*
X126580971Y-72914120D01*
X126577016Y-72898255D01*
X126576073Y-72895031D01*
X126574801Y-72886148D01*
X126571087Y-72877979D01*
X126571085Y-72877973D01*
X126555375Y-72843421D01*
X126551561Y-72834052D01*
X126538677Y-72798363D01*
X126535628Y-72789916D01*
X126530331Y-72782666D01*
X126528754Y-72779699D01*
X126520507Y-72765586D01*
X126518702Y-72762763D01*
X126514988Y-72754595D01*
X126484353Y-72719042D01*
X126478075Y-72711136D01*
X126470127Y-72700256D01*
X126459265Y-72689394D01*
X126452907Y-72682547D01*
X126426515Y-72651918D01*
X126420656Y-72645118D01*
X126413121Y-72640234D01*
X126406549Y-72634501D01*
X126395145Y-72625274D01*
X124354081Y-70584210D01*
X124320055Y-70521898D01*
X124323510Y-70460905D01*
X124322378Y-70460633D01*
X124323726Y-70455018D01*
X124325584Y-70449545D01*
X124354712Y-70248653D01*
X124356232Y-70190600D01*
X124337658Y-69988459D01*
X124336090Y-69982899D01*
X124284125Y-69798646D01*
X124284124Y-69798644D01*
X124282557Y-69793087D01*
X124271978Y-69771633D01*
X124195331Y-69616209D01*
X124192776Y-69611028D01*
X124071320Y-69448379D01*
X123922258Y-69310587D01*
X123917375Y-69307506D01*
X123917371Y-69307503D01*
X123810265Y-69239925D01*
X123763326Y-69186658D01*
X123751500Y-69133363D01*
X123751500Y-66193361D01*
X123771502Y-66125240D01*
X123788405Y-66104266D01*
X127625261Y-62267409D01*
X132187775Y-62267409D01*
X132203439Y-62453939D01*
X132205138Y-62459864D01*
X132230311Y-62547651D01*
X132255035Y-62633875D01*
X132340597Y-62800362D01*
X132344420Y-62805186D01*
X132344423Y-62805190D01*
X132366994Y-62833667D01*
X132456868Y-62947059D01*
X132461562Y-62951054D01*
X132564695Y-63038827D01*
X132599418Y-63068379D01*
X132604796Y-63071385D01*
X132604798Y-63071386D01*
X132639196Y-63090610D01*
X132762818Y-63159700D01*
X132940843Y-63217544D01*
X133126714Y-63239708D01*
X133132849Y-63239236D01*
X133132851Y-63239236D01*
X133307208Y-63225820D01*
X133307213Y-63225819D01*
X133313349Y-63225347D01*
X133319279Y-63223691D01*
X133319281Y-63223691D01*
X133432164Y-63192173D01*
X133493641Y-63175009D01*
X133517227Y-63163095D01*
X133641061Y-63100541D01*
X133660721Y-63090610D01*
X133685294Y-63071412D01*
X133803371Y-62979160D01*
X133803372Y-62979160D01*
X133808227Y-62975366D01*
X133930538Y-62833667D01*
X134022998Y-62670908D01*
X134082083Y-62493291D01*
X134105544Y-62307580D01*
X134105918Y-62280800D01*
X134104605Y-62267409D01*
X134727775Y-62267409D01*
X134743439Y-62453939D01*
X134745138Y-62459864D01*
X134770311Y-62547651D01*
X134795035Y-62633875D01*
X134880597Y-62800362D01*
X134884420Y-62805186D01*
X134884423Y-62805190D01*
X134906994Y-62833667D01*
X134996868Y-62947059D01*
X135001562Y-62951054D01*
X135104695Y-63038827D01*
X135139418Y-63068379D01*
X135144796Y-63071385D01*
X135144798Y-63071386D01*
X135179196Y-63090610D01*
X135302818Y-63159700D01*
X135480843Y-63217544D01*
X135666714Y-63239708D01*
X135672849Y-63239236D01*
X135672851Y-63239236D01*
X135847208Y-63225820D01*
X135847213Y-63225819D01*
X135853349Y-63225347D01*
X135859279Y-63223691D01*
X135859281Y-63223691D01*
X135972164Y-63192173D01*
X136033641Y-63175009D01*
X136057227Y-63163095D01*
X136181061Y-63100541D01*
X136200721Y-63090610D01*
X136225294Y-63071412D01*
X136343371Y-62979160D01*
X136343372Y-62979160D01*
X136348227Y-62975366D01*
X136470538Y-62833667D01*
X136562998Y-62670908D01*
X136622083Y-62493291D01*
X136645544Y-62307580D01*
X136645918Y-62280800D01*
X136644605Y-62267409D01*
X137267775Y-62267409D01*
X137283439Y-62453939D01*
X137285138Y-62459864D01*
X137310311Y-62547651D01*
X137335035Y-62633875D01*
X137420597Y-62800362D01*
X137424420Y-62805186D01*
X137424423Y-62805190D01*
X137446994Y-62833667D01*
X137536868Y-62947059D01*
X137541562Y-62951054D01*
X137644695Y-63038827D01*
X137679418Y-63068379D01*
X137684796Y-63071385D01*
X137684798Y-63071386D01*
X137719196Y-63090610D01*
X137842818Y-63159700D01*
X138020843Y-63217544D01*
X138206714Y-63239708D01*
X138212849Y-63239236D01*
X138212851Y-63239236D01*
X138387208Y-63225820D01*
X138387213Y-63225819D01*
X138393349Y-63225347D01*
X138399279Y-63223691D01*
X138399281Y-63223691D01*
X138512164Y-63192173D01*
X138573641Y-63175009D01*
X138597227Y-63163095D01*
X138721061Y-63100541D01*
X138740721Y-63090610D01*
X138765294Y-63071412D01*
X138883371Y-62979160D01*
X138883372Y-62979160D01*
X138888227Y-62975366D01*
X139010538Y-62833667D01*
X139102998Y-62670908D01*
X139162083Y-62493291D01*
X139185544Y-62307580D01*
X139185918Y-62280800D01*
X139184605Y-62267409D01*
X139807775Y-62267409D01*
X139823439Y-62453939D01*
X139825138Y-62459864D01*
X139850311Y-62547651D01*
X139875035Y-62633875D01*
X139960597Y-62800362D01*
X139964420Y-62805186D01*
X139964423Y-62805190D01*
X139986994Y-62833667D01*
X140076868Y-62947059D01*
X140081562Y-62951054D01*
X140184695Y-63038827D01*
X140219418Y-63068379D01*
X140224796Y-63071385D01*
X140224798Y-63071386D01*
X140259196Y-63090610D01*
X140382818Y-63159700D01*
X140560843Y-63217544D01*
X140746714Y-63239708D01*
X140752849Y-63239236D01*
X140752851Y-63239236D01*
X140927208Y-63225820D01*
X140927213Y-63225819D01*
X140933349Y-63225347D01*
X140939279Y-63223691D01*
X140939281Y-63223691D01*
X141052164Y-63192173D01*
X141113641Y-63175009D01*
X141137227Y-63163095D01*
X141261061Y-63100541D01*
X141280721Y-63090610D01*
X141305294Y-63071412D01*
X141423371Y-62979160D01*
X141423372Y-62979160D01*
X141428227Y-62975366D01*
X141550538Y-62833667D01*
X141642998Y-62670908D01*
X141702083Y-62493291D01*
X141725544Y-62307580D01*
X141725918Y-62280800D01*
X141707652Y-62094506D01*
X141653549Y-61915309D01*
X141650105Y-61908832D01*
X141568564Y-61755474D01*
X141568562Y-61755471D01*
X141565670Y-61750032D01*
X141561780Y-61745262D01*
X141561777Y-61745258D01*
X141451257Y-61609748D01*
X141451254Y-61609745D01*
X141447362Y-61604973D01*
X141433609Y-61593595D01*
X141346518Y-61521547D01*
X141303132Y-61485655D01*
X141138473Y-61396624D01*
X141049065Y-61368948D01*
X140965544Y-61343094D01*
X140965541Y-61343093D01*
X140959657Y-61341272D01*
X140953532Y-61340628D01*
X140953531Y-61340628D01*
X140779624Y-61322349D01*
X140779623Y-61322349D01*
X140773496Y-61321705D01*
X140696943Y-61328672D01*
X140593218Y-61338112D01*
X140593215Y-61338113D01*
X140587079Y-61338671D01*
X140581173Y-61340409D01*
X140581169Y-61340410D01*
X140445875Y-61380229D01*
X140407508Y-61391521D01*
X140241622Y-61478244D01*
X140236822Y-61482104D01*
X140236821Y-61482104D01*
X140227518Y-61489584D01*
X140095740Y-61595536D01*
X139975419Y-61738930D01*
X139972455Y-61744322D01*
X139972452Y-61744326D01*
X139908268Y-61861077D01*
X139885241Y-61902963D01*
X139883380Y-61908830D01*
X139883379Y-61908832D01*
X139880981Y-61916392D01*
X139828641Y-62081388D01*
X139807775Y-62267409D01*
X139184605Y-62267409D01*
X139167652Y-62094506D01*
X139113549Y-61915309D01*
X139110105Y-61908832D01*
X139028564Y-61755474D01*
X139028562Y-61755471D01*
X139025670Y-61750032D01*
X139021780Y-61745262D01*
X139021777Y-61745258D01*
X138911257Y-61609748D01*
X138911254Y-61609745D01*
X138907362Y-61604973D01*
X138893609Y-61593595D01*
X138806518Y-61521547D01*
X138763132Y-61485655D01*
X138598473Y-61396624D01*
X138509065Y-61368948D01*
X138425544Y-61343094D01*
X138425541Y-61343093D01*
X138419657Y-61341272D01*
X138413532Y-61340628D01*
X138413531Y-61340628D01*
X138239624Y-61322349D01*
X138239623Y-61322349D01*
X138233496Y-61321705D01*
X138156943Y-61328672D01*
X138053218Y-61338112D01*
X138053215Y-61338113D01*
X138047079Y-61338671D01*
X138041173Y-61340409D01*
X138041169Y-61340410D01*
X137905875Y-61380229D01*
X137867508Y-61391521D01*
X137701622Y-61478244D01*
X137696822Y-61482104D01*
X137696821Y-61482104D01*
X137687518Y-61489584D01*
X137555740Y-61595536D01*
X137435419Y-61738930D01*
X137432455Y-61744322D01*
X137432452Y-61744326D01*
X137368268Y-61861077D01*
X137345241Y-61902963D01*
X137343380Y-61908830D01*
X137343379Y-61908832D01*
X137340981Y-61916392D01*
X137288641Y-62081388D01*
X137267775Y-62267409D01*
X136644605Y-62267409D01*
X136627652Y-62094506D01*
X136573549Y-61915309D01*
X136570105Y-61908832D01*
X136488564Y-61755474D01*
X136488562Y-61755471D01*
X136485670Y-61750032D01*
X136481780Y-61745262D01*
X136481777Y-61745258D01*
X136371257Y-61609748D01*
X136371254Y-61609745D01*
X136367362Y-61604973D01*
X136353609Y-61593595D01*
X136266518Y-61521547D01*
X136223132Y-61485655D01*
X136058473Y-61396624D01*
X135969065Y-61368948D01*
X135885544Y-61343094D01*
X135885541Y-61343093D01*
X135879657Y-61341272D01*
X135873532Y-61340628D01*
X135873531Y-61340628D01*
X135699624Y-61322349D01*
X135699623Y-61322349D01*
X135693496Y-61321705D01*
X135616943Y-61328672D01*
X135513218Y-61338112D01*
X135513215Y-61338113D01*
X135507079Y-61338671D01*
X135501173Y-61340409D01*
X135501169Y-61340410D01*
X135365875Y-61380229D01*
X135327508Y-61391521D01*
X135161622Y-61478244D01*
X135156822Y-61482104D01*
X135156821Y-61482104D01*
X135147518Y-61489584D01*
X135015740Y-61595536D01*
X134895419Y-61738930D01*
X134892455Y-61744322D01*
X134892452Y-61744326D01*
X134828268Y-61861077D01*
X134805241Y-61902963D01*
X134803380Y-61908830D01*
X134803379Y-61908832D01*
X134800981Y-61916392D01*
X134748641Y-62081388D01*
X134727775Y-62267409D01*
X134104605Y-62267409D01*
X134087652Y-62094506D01*
X134033549Y-61915309D01*
X134030105Y-61908832D01*
X133948564Y-61755474D01*
X133948562Y-61755471D01*
X133945670Y-61750032D01*
X133941780Y-61745262D01*
X133941777Y-61745258D01*
X133831257Y-61609748D01*
X133831254Y-61609745D01*
X133827362Y-61604973D01*
X133813609Y-61593595D01*
X133726518Y-61521547D01*
X133683132Y-61485655D01*
X133518473Y-61396624D01*
X133429065Y-61368948D01*
X133345544Y-61343094D01*
X133345541Y-61343093D01*
X133339657Y-61341272D01*
X133333532Y-61340628D01*
X133333531Y-61340628D01*
X133159624Y-61322349D01*
X133159623Y-61322349D01*
X133153496Y-61321705D01*
X133076943Y-61328672D01*
X132973218Y-61338112D01*
X132973215Y-61338113D01*
X132967079Y-61338671D01*
X132961173Y-61340409D01*
X132961169Y-61340410D01*
X132825875Y-61380229D01*
X132787508Y-61391521D01*
X132621622Y-61478244D01*
X132616822Y-61482104D01*
X132616821Y-61482104D01*
X132607518Y-61489584D01*
X132475740Y-61595536D01*
X132355419Y-61738930D01*
X132352455Y-61744322D01*
X132352452Y-61744326D01*
X132288268Y-61861077D01*
X132265241Y-61902963D01*
X132263380Y-61908830D01*
X132263379Y-61908832D01*
X132260981Y-61916392D01*
X132208641Y-62081388D01*
X132187775Y-62267409D01*
X127625261Y-62267409D01*
X129137609Y-60755061D01*
X132497094Y-60755061D01*
X132506390Y-60767076D01*
X132535989Y-60787801D01*
X132545477Y-60793279D01*
X132727077Y-60877959D01*
X132737371Y-60881707D01*
X132930922Y-60933569D01*
X132941709Y-60935471D01*
X133141325Y-60952935D01*
X133152275Y-60952935D01*
X133351891Y-60935471D01*
X133362678Y-60933569D01*
X133556229Y-60881707D01*
X133566523Y-60877959D01*
X133748123Y-60793279D01*
X133757611Y-60787801D01*
X133788048Y-60766489D01*
X133796423Y-60756012D01*
X133789354Y-60742564D01*
X133159612Y-60112822D01*
X133145668Y-60105208D01*
X133143835Y-60105339D01*
X133137220Y-60109590D01*
X132503524Y-60743286D01*
X132497094Y-60755061D01*
X129137609Y-60755061D01*
X130813976Y-59078694D01*
X130876288Y-59044668D01*
X130903071Y-59041789D01*
X131942094Y-59041789D01*
X132010215Y-59061791D01*
G37*
%TD.AperFunction*%
%TD*%
M02*
