%TF.GenerationSoftware,KiCad,Pcbnew,(6.0.1)*%
%TF.CreationDate,2023-02-04T15:12:00+01:00*%
%TF.ProjectId,PCB_Top_Rev4-PcbDoc,5043425f-546f-4705-9f52-6576342d5063,rev?*%
%TF.SameCoordinates,Original*%
%TF.FileFunction,Profile,NP*%
%FSLAX46Y46*%
G04 Gerber Fmt 4.6, Leading zero omitted, Abs format (unit mm)*
G04 Created by KiCad (PCBNEW (6.0.1)) date 2023-02-04 15:12:00*
%MOMM*%
%LPD*%
G01*
G04 APERTURE LIST*
%TA.AperFunction,Profile*%
%ADD10C,0.100000*%
%TD*%
G04 APERTURE END LIST*
D10*
X169773600Y-58572400D02*
X170332400Y-58572400D01*
X169773600Y-81483200D02*
X169773600Y-58572400D01*
X177800000Y-89509600D02*
X169773600Y-81483200D01*
X193395600Y-89509600D02*
X177800000Y-89509600D01*
X193395600Y-58572400D02*
X193395600Y-89509600D01*
X170332400Y-58572400D02*
X193395600Y-58572400D01*
%TO.C,Ref\u002A\u002A*%
X118831617Y-60473457D02*
X118828000Y-93299227D01*
X127416920Y-101880927D02*
X160242700Y-101884527D01*
X160239100Y-55580407D02*
X160239100Y-51888144D01*
X165128500Y-60469817D02*
X160239100Y-55580407D01*
X168824400Y-93295627D02*
X168828000Y-60469817D01*
X160242700Y-98185027D02*
X165132100Y-93295627D01*
X122523880Y-60473457D02*
X118831617Y-60473457D01*
X160242700Y-101884527D02*
X160242700Y-98185027D01*
X122527490Y-93299227D02*
X127416920Y-98188627D01*
X165132100Y-93295627D02*
X168824400Y-93295627D01*
X127413300Y-55584027D02*
X122523880Y-60473457D01*
X127413300Y-51884527D02*
X127413300Y-55584027D01*
X118828000Y-93299227D02*
X122527490Y-93299227D01*
X127413300Y-51884527D02*
X127413300Y-51884527D01*
X127416920Y-98188627D02*
X127416920Y-101880927D01*
X160239100Y-51888144D02*
X127413300Y-51884527D01*
X168828000Y-60469817D02*
X165128500Y-60469817D01*
%TD*%
M02*
